<?xml version="1.0" standalone="no"?>
<!DOCTYPE svg PUBLIC "-//W3C//DTD SVG 20010904//EN"
 "http://www.w3.org/TR/2001/REC-SVG-20010904/DTD/svg10.dtd">
<svg version="1.0" xmlns="http://www.w3.org/2000/svg"
 width="1024.000000pt" height="1024.000000pt" viewBox="0 0 1024.000000 1024.000000"
 preserveAspectRatio="xMidYMid meet">

<g transform="translate(0.000000,1024.000000) scale(0.100000,-0.100000)"
fill="#000000" stroke="none">
<path d="M4210 8895 c-183 -18 -269 -33 -425 -72 -349 -87 -685 -254 -961
-477 -101 -81 -254 -242 -338 -353 -284 -379 -423 -847 -387 -1306 25 -310 78
-510 206 -772 180 -368 441 -661 805 -903 265 -176 551 -294 1085 -447 412
-118 607 -220 763 -399 117 -135 190 -350 178 -526 -12 -179 -68 -310 -184
-431 -83 -88 -183 -145 -317 -181 -108 -29 -401 -32 -545 -5 -84 16 -318 87
-351 108 -10 6 -8 25 7 91 24 107 25 324 1 453 -32 177 -104 352 -209 510 -67
101 -260 296 -358 362 -198 133 -413 211 -670 242 -116 15 -209 14 -347 -4
-331 -44 -586 -167 -799 -387 -101 -104 -161 -189 -224 -316 -92 -186 -126
-347 -117 -560 8 -203 41 -339 124 -507 129 -260 309 -447 554 -574 123 -65
204 -95 362 -136 l129 -33 76 -85 c145 -162 334 -320 527 -442 119 -75 362
-193 502 -244 193 -70 502 -143 703 -166 30 -3 89 -10 130 -15 41 -4 172 -7
290 -4 700 13 1306 224 1791 624 585 483 902 1216 850 1963 -11 166 -39 344
-71 461 -11 38 -19 70 -17 71 1 1 33 12 70 25 188 61 308 244 294 445 -4 44
-16 113 -27 154 -11 40 -19 76 -16 78 5 5 72 -21 595 -228 260 -104 322 -118
444 -101 63 9 104 23 177 58 82 41 109 61 196 148 256 256 420 632 495 1141
30 197 32 567 6 745 -84 558 -268 984 -546 1261 -155 154 -268 216 -436 241
-74 10 -100 10 -183 -4 -88 -15 -117 -27 -307 -121 -115 -57 -381 -195 -590
-306 l-380 -203 -20 28 c-109 151 -159 209 -284 335 -212 212 -392 340 -656
468 -502 245 -1065 349 -1595 296z m4105 -828 c33 -18 94 -65 136 -105 235
-223 422 -647 481 -1092 19 -147 17 -549 -5 -690 -51 -327 -140 -577 -281
-790 -74 -110 -189 -225 -261 -260 -58 -28 -139 -37 -189 -20 -161 53 -382
472 -480 911 -35 155 -34 156 17 109 64 -61 179 -116 280 -136 81 -16 93 -16
169 -1 210 41 392 199 475 410 25 65 28 68 54 62 40 -9 71 24 67 72 -3 36 -5
37 -108 84 -116 53 -135 57 -162 32 -36 -32 -18 -90 38 -121 17 -9 15 -16 -25
-96 -77 -157 -200 -262 -340 -291 -225 -47 -429 103 -529 388 -24 70 -24 78
-19 247 19 554 181 1047 413 1259 94 86 147 92 269 28z m-723 -224 c-29 -57
-106 -275 -136 -383 -113 -422 -126 -915 -35 -1386 42 -220 144 -535 226 -698
19 -37 33 -70 31 -71 -2 -2 -123 43 -268 101 -825 326 -1414 561 -1476 589
-79 36 -78 33 -103 190 -38 234 -8 595 62 747 l24 53 389 212 c703 382 1295
695 1302 688 2 -1 -5 -20 -16 -42z m-2818 -597 c172 -44 292 -113 404 -229 34
-36 62 -69 62 -74 0 -5 -21 -29 -46 -53 -67 -64 -111 -135 -139 -223 -21 -65
-25 -98 -25 -197 0 -65 5 -142 11 -170 6 -28 9 -53 7 -55 -7 -7 -486 152 -583
194 -304 131 -465 301 -465 492 0 131 101 263 237 311 130 45 370 47 537 4z
m796 -473 c0 -5 -7 -48 -15 -98 -17 -105 -20 -369 -5 -464 6 -35 9 -65 7 -68
-3 -2 -49 16 -103 40 l-99 43 -24 70 c-28 80 -34 224 -13 285 18 51 70 102
160 154 77 45 92 51 92 38z m1316 -1472 l67 -29 38 -123 c78 -252 82 -309 23
-378 -24 -29 -89 -59 -101 -47 -3 3 2 37 11 75 20 80 21 74 -64 351 -50 164
-54 180 -46 180 2 0 34 -13 72 -29z m-4325 -805 c14 -6 15 -12 3 -49 -7 -23
-16 -55 -21 -72 l-9 -30 -144 3 c-217 5 -396 -30 -555 -110 -205 -104 -374
-282 -461 -488 -30 -71 -40 -109 -64 -235 -7 -39 -8 -20 -5 85 4 155 22 228
84 355 145 295 438 496 796 549 44 6 357 -1 376 -8z"/>
<path d="M7962 7264 c-34 -23 -51 -66 -63 -153 -12 -87 0 -200 25 -250 33 -63
110 -60 141 5 51 108 39 324 -21 389 -27 29 -50 31 -82 9z"/>
<path d="M8373 7265 c-56 -39 -80 -272 -40 -378 43 -109 127 -100 163 18 17
57 18 203 3 276 -18 85 -73 121 -126 84z"/>
</g>
</svg>
