<?xml version="1.0" standalone="no"?>
<!DOCTYPE svg PUBLIC "-//W3C//DTD SVG 20010904//EN"
 "http://www.w3.org/TR/2001/REC-SVG-20010904/DTD/svg10.dtd">
<svg version="1.0" xmlns="http://www.w3.org/2000/svg"
 width="1024.000000pt" height="1024.000000pt" viewBox="0 0 1024.000000 1024.000000"
 preserveAspectRatio="xMidYMid meet">

<g transform="translate(0.000000,1024.000000) scale(0.100000,-0.100000)"
fill="#000000" stroke="none">
<path d="M0 5830 l0 -4410 40 0 c22 0 40 -4 40 -10 0 -6 33 -10 80 -10 47 0
80 -4 80 -10 0 -6 38 -10 95 -10 63 0 95 -4 95 -11 0 -8 15 -9 45 -5 41 7 46
5 57 -18 9 -22 18 -26 50 -26 22 0 48 4 58 10 14 8 25 5 47 -14 15 -12 38 -28
51 -35 34 -18 148 -118 224 -197 292 -303 471 -661 514 -1027 l7 -57 113 0
113 0 -4 32 c-21 165 -29 215 -50 298 -28 112 -44 162 -95 290 -21 53 -41 110
-45 128 -3 17 -11 34 -16 37 -12 8 -12 25 0 25 5 0 12 -11 15 -25 6 -23 8 -24
22 -10 21 21 45 19 51 -4 5 -19 40 -31 89 -31 13 0 24 -4 24 -10 0 -5 14 -10
31 -10 19 0 28 -4 23 -11 -4 -7 0 -9 12 -5 12 3 46 -8 87 -29 38 -19 73 -35
79 -35 7 0 22 -9 34 -21 12 -11 28 -21 35 -23 19 -2 79 -39 79 -47 0 -6 39
-20 65 -24 6 0 9 -7 7 -14 -1 -7 2 -10 7 -7 5 4 12 2 16 -4 3 -5 40 -35 82
-67 42 -32 86 -67 98 -78 12 -11 49 -45 81 -75 33 -30 77 -77 99 -104 22 -28
51 -61 64 -75 13 -14 35 -43 49 -64 l25 -37 3783 0 3784 0 0 3973 0 3973 -31
23 c-24 18 -28 25 -18 32 8 5 -12 6 -48 2 -44 -4 -63 -2 -63 6 0 6 -17 11 -40
11 -22 0 -40 5 -40 10 0 6 -12 10 -26 10 -44 0 -154 23 -154 32 0 4 -25 8 -55
8 -30 0 -55 -4 -55 -10 0 -5 -7 -10 -15 -10 -8 0 -15 5 -15 10 0 6 7 10 15 10
8 0 15 4 15 9 0 5 -7 11 -15 15 -8 3 -15 12 -15 21 0 11 -11 15 -39 15 -22 0
-41 4 -43 9 -1 4 -20 11 -40 15 -31 6 -38 4 -38 -9 0 -11 -12 -15 -49 -15 -28
0 -53 5 -56 10 -3 6 -17 10 -31 10 -13 0 -24 4 -24 9 0 5 -20 12 -44 15 -50 8
-98 40 -90 60 3 7 -2 16 -10 19 -10 4 -16 1 -16 -8 0 -20 -5 -19 -35 9 -15 14
-41 28 -58 31 -68 13 -89 26 -83 52 5 17 2 23 -11 23 -10 0 -27 10 -38 23 -22
25 -59 47 -76 47 -6 0 -31 21 -55 47 -36 38 -44 43 -44 26 0 -13 -8 -23 -21
-26 -20 -5 -21 -11 -17 -58 4 -40 3 -47 -5 -33 -6 11 -11 46 -11 79 -1 42 -6
67 -20 85 -14 19 -17 20 -11 5 4 -11 10 -102 13 -202 l4 -182 52 -20 c80 -31
121 -34 182 -15 75 23 97 12 120 -61 19 -59 35 -74 99 -95 22 -7 45 -17 51
-22 36 -27 14 -89 -53 -151 -39 -36 -43 -44 -43 -86 0 -58 -19 -129 -30 -112
-4 8 -16 10 -28 7 -15 -5 -22 -2 -26 12 -4 10 -17 29 -30 41 -20 19 -33 22
-82 19 l-59 -3 43 -19 c27 -12 42 -25 42 -36 0 -11 3 -21 8 -23 10 -7 7 -85
-6 -129 -10 -36 -60 -98 -80 -98 -5 0 -17 -9 -26 -19 -10 -11 -25 -17 -34 -14
-11 5 -13 3 -7 -7 5 -8 4 -11 -2 -7 -6 4 -23 2 -39 -2 -85 -26 -144 -41 -187
-45 -51 -6 -181 10 -207 25 -10 6 -5 7 15 4 93 -13 116 -15 111 -7 -3 5 -27
12 -54 15 -120 14 -221 91 -279 214 -25 53 -49 64 -37 17 3 -13 2 -24 -3 -24
-13 0 -42 67 -45 105 -2 17 -7 29 -13 28 -11 -2 -3 156 10 195 4 12 3 22 -2
22 -15 0 -34 -67 -27 -94 4 -16 1 -32 -6 -41 -9 -11 -11 -38 -7 -90 4 -61 3
-73 -9 -68 -8 3 -17 23 -20 44 -4 22 -9 38 -11 36 -2 -3 -4 -278 -3 -613 l0
-609 23 -15 c12 -8 48 -39 80 -70 69 -65 108 -156 106 -243 l-2 -52 -8 64
c-10 79 -19 100 -17 41 2 -72 -12 -128 -41 -157 -14 -14 -20 -23 -14 -19 7 4
5 -6 -5 -23 -9 -17 -20 -31 -24 -31 -5 0 -8 -6 -8 -12 -1 -30 -94 -95 -168
-118 -45 -14 -72 -16 -129 -9 -86 9 -128 29 -154 74 -11 18 -33 38 -49 45 -16
6 -27 17 -24 23 2 7 -12 22 -31 35 -20 12 -40 33 -44 46 -9 21 -19 114 -21
181 l-1 30 -14 -30 c-7 -17 -14 -23 -14 -14 -1 9 11 38 25 65 61 117 185 196
337 216 l87 12 0 650 c0 417 -4 664 -10 688 -28 99 -114 145 -237 126 -32 -5
-278 -53 -548 -108 -1297 -261 -1662 -333 -1680 -332 -11 0 -76 -7 -144 -16
l-124 -16 -48 -100 c-27 -56 -49 -106 -49 -113 0 -39 -108 -179 -124 -162 -2
2 -16 68 -31 146 -14 79 -28 153 -30 165 -7 32 -13 35 -105 41 -74 5 -80 4
-51 -6 32 -11 34 -15 34 -52 l0 -40 -79 -17 c-91 -20 -603 -125 -1452 -298
-327 -66 -619 -129 -650 -140 -103 -36 -175 -101 -221 -200 l-26 -55 0 -2170
0 -2170 22 -40 c27 -51 57 -79 111 -103 48 -21 39 -32 -26 -32 -84 0 -181 82
-207 175 -12 42 -14 387 -16 2220 -2 1975 -1 2174 14 2212 40 105 131 210 224
256 84 43 48 35 1088 248 799 164 869 178 970 197 87 16 96 20 67 26 -65 15
-69 73 -9 130 110 106 216 166 231 132 3 -6 2 5 0 24 -6 36 -50 181 -65 212
-4 9 -11 39 -15 68 -5 37 -10 50 -20 46 -17 -7 -18 6 -2 22 28 28 75 13 183
-59 l108 -70 31 28 c17 16 68 63 113 106 86 80 118 96 162 81 35 -12 38 -44
15 -166 -9 -54 -15 -100 -12 -103 5 -5 265 39 328 55 19 5 100 23 179 40 132
27 165 30 149 14 -7 -6 -478 -106 -596 -126 -71 -12 -72 -13 -82 -47 -18 -64
-13 -75 59 -144 38 -37 72 -67 75 -67 3 0 511 101 1128 225 618 124 1145 225
1173 225 104 -1 199 -54 256 -142 25 -39 34 -46 48 -38 12 6 26 4 43 -4 25
-13 27 -12 54 37 37 68 138 166 202 196 l51 24 -3 49 c-2 27 -7 52 -11 56 -5
4 -5 1 0 -7 6 -10 4 -12 -4 -7 -7 5 -10 15 -6 24 8 21 -74 96 -123 110 -86 26
-180 12 -847 -122 -828 -167 -1348 -267 -1360 -262 -14 5 -26 115 -14 129 13
16 2005 417 2069 417 95 0 212 -40 287 -98 47 -35 111 -136 130 -204 l17 -59
55 3 56 3 0 135 c-1 160 -6 240 -17 240 -4 0 -8 7 -8 15 0 48 -70 128 -140
162 -73 35 -150 24 -850 -116 -360 -72 -665 -131 -676 -131 -16 0 -23 8 -27
30 -5 23 -12 30 -29 30 -32 1 -60 25 -56 47 4 21 -32 13 683 158 286 58 563
115 615 126 72 16 118 20 190 16 52 -2 86 -1 75 4 -11 4 -42 8 -70 9 -27 1
-61 6 -75 10 -14 4 15 5 65 2 50 -2 98 -9 109 -14 12 -7 16 -7 12 0 -3 6 2 13
11 15 12 4 9 5 -7 5 -55 -2 -154 5 -137 9 9 2 17 7 17 10 0 14 -56 93 -66 93
-6 0 -16 11 -22 25 -7 16 -20 25 -33 25 -12 0 -20 3 -16 6 3 4 -5 21 -18 39
-14 17 -25 36 -25 41 0 12 -37 44 -50 44 -5 0 -14 9 -20 20 -6 11 -17 20 -25
20 -8 0 -15 9 -15 20 0 11 -7 20 -15 20 -8 0 -15 7 -15 14 0 8 -11 27 -24 41
-25 27 -25 27 -38 6 -18 -29 -27 -26 -46 17 -9 20 -29 53 -44 73 -16 20 -28
42 -28 49 0 6 -11 21 -25 32 -14 11 -25 26 -25 34 0 8 -4 14 -9 14 -13 0 -34
67 -25 81 3 6 0 15 -7 20 -9 5 -16 3 -21 -9 -4 -11 -7 -4 -7 19 -1 20 -10 57
-21 83 -14 31 -20 63 -19 97 2 43 -1 55 -19 70 -12 9 -22 22 -22 28 0 6 -6 11
-12 11 -8 1 -6 6 5 14 23 17 22 38 -3 54 -17 10 -20 23 -20 92 l0 80 -3780 0
-3780 0 0 -4410z m7840 3594 c0 -14 -3 -14 -15 -4 -8 7 -15 14 -15 16 0 2 7 4
15 4 8 0 15 -7 15 -16z m160 -184 c0 -5 -2 -10 -4 -10 -3 0 -8 5 -11 10 -3 6
-1 10 4 10 6 0 11 -4 11 -10z m-3809 -438 c83 -40 158 -113 198 -194 35 -69
41 -99 16 -78 -24 20 -25 8 -3 -20 14 -16 22 -21 25 -13 8 24 43 -5 43 -35 -1
-24 -29 -90 -30 -68 0 4 -8 -2 -18 -14 -24 -30 -42 -18 -42 25 0 19 -5 37 -11
41 -7 4 -7 10 -1 16 7 7 3 17 -10 30 -12 12 -18 28 -15 39 4 13 1 19 -6 16 -8
-2 -12 -28 -12 -69 0 -61 -2 -67 -34 -97 -29 -27 -33 -36 -27 -63 3 -17 13
-40 22 -49 23 -25 12 -58 -32 -102 -76 -76 -167 -111 -279 -108 -57 2 -134 18
-145 31 -3 3 -20 12 -38 19 -18 8 -31 16 -28 18 2 3 -9 17 -24 32 -26 24 -52
69 -55 96 -1 6 -7 24 -15 40 -53 123 -61 216 -25 285 8 16 15 32 15 35 0 9
-24 -17 -38 -40 -6 -11 -11 -15 -12 -10 0 18 46 90 57 88 6 -1 21 10 34 25
l24 27 -27 -24 c-49 -43 -30 -6 21 42 93 87 175 118 306 114 89 -3 107 -6 166
-35z m-2420 -79 c53 -26 100 -62 174 -133 113 -109 152 -133 210 -133 68 0 98
22 239 172 70 75 120 100 199 101 65 0 116 -21 183 -76 39 -31 73 -88 61 -100
-3 -4 -43 -10 -89 -14 -93 -9 -98 -10 -151 -33 -20 -9 -38 -16 -40 -16 -1 0
-24 -7 -52 -15 -27 -8 -75 -17 -105 -21 -30 -4 -92 -17 -136 -31 -148 -44
-198 -30 -317 88 -131 130 -200 169 -304 176 -86 5 -147 -12 -228 -64 -64 -40
-70 -33 -17 23 42 45 82 68 162 94 85 28 127 24 211 -18z m1849 -182 c0 -6 -4
-13 -10 -16 -5 -3 -10 1 -10 9 0 9 5 16 10 16 6 0 10 -4 10 -9z m-23 -53 c-3
-8 -6 -5 -6 6 -1 11 2 17 5 13 3 -3 4 -12 1 -19z m5193 -12 c0 -3 -4 -8 -10
-11 -5 -3 -10 -1 -10 4 0 6 5 11 10 11 6 0 10 -2 10 -4z m-4440 -286 c-11 -16
-26 -33 -33 -37 -12 -7 0 11 32 50 23 28 24 20 1 -13z m-1802 -7 c37 -18 85
-75 108 -129 9 -22 16 -66 16 -107 0 -113 -33 -171 -350 -627 -90 -129 -133
-167 -175 -156 -30 7 -334 333 -408 436 -97 136 -114 179 -114 290 0 86 3 100
28 142 51 88 163 129 248 91 63 -28 104 -66 166 -155 30 -43 58 -78 62 -78 3
0 31 42 61 93 120 203 226 262 358 200z m1752 -47 c0 -2 -8 -10 -17 -17 -16
-13 -17 -12 -4 4 13 16 21 21 21 13z m5300 -11 c0 -11 -11 -15 -40 -15 -29 0
-40 4 -40 15 0 11 11 15 40 15 29 0 40 -4 40 -15z m-492 -26 c-3 -8 -7 -3 -11
10 -4 17 -3 21 5 13 5 -5 8 -16 6 -23z m-5803 -272 c35 -20 40 -28 38 -56 0
-18 -3 -35 -6 -37 -3 -3 -98 -25 -212 -50 -114 -24 -212 -47 -217 -50 -9 -6
67 141 82 159 8 9 213 55 250 56 14 0 43 -10 65 -22z m1425 -53 c0 -8 -5 -12
-10 -9 -6 4 -8 11 -5 16 9 14 15 11 15 -7z m-47 -11 c-7 -2 -19 -2 -25 0 -7 3
-2 5 12 5 14 0 19 -2 13 -5z m-44 -7 c-7 -8 -211 -47 -216 -42 -3 2 22 9 54
15 32 7 72 15 88 20 32 10 81 14 74 7z m2890 -10 c-2 -3 -74 -19 -159 -36 -85
-17 -184 -38 -220 -46 -36 -8 -135 -28 -220 -44 -85 -16 -186 -36 -225 -44
-38 -8 -131 -27 -205 -40 -74 -14 -189 -37 -255 -52 -66 -14 -131 -26 -145
-28 -14 -2 -68 -12 -120 -24 -52 -11 -122 -25 -155 -31 -33 -6 -96 -18 -140
-27 -191 -38 -221 -44 -235 -44 -37 1 20 18 115 34 55 10 145 29 200 41 55 13
163 36 241 50 78 14 156 30 175 35 30 9 103 23 259 50 49 8 189 37 370 76 63
14 185 38 270 54 85 16 191 37 235 45 190 39 228 44 214 31z m48 8 c-3 -3 -12
-4 -19 -1 -8 3 -5 6 6 6 11 1 17 -2 13 -5z m-3182 -49 c-13 -5 -215 -49 -344
-75 -57 -12 -111 -19 -120 -18 -9 2 36 14 99 26 63 13 162 33 220 46 91 20
176 32 145 21z m-664 -80 c8 -62 2 -93 -19 -99 -10 -3 -105 -23 -212 -45 -107
-21 -319 -65 -470 -96 -389 -79 -410 -83 -410 -76 1 3 36 43 78 89 l77 82 400
85 c220 47 427 92 460 99 85 20 89 19 96 -39z m172 -22 c-7 -2 -19 -2 -25 0
-7 3 -2 5 12 5 14 0 19 -2 13 -5z m-50 -10 c-7 -2 -19 -2 -25 0 -7 3 -2 5 12
5 14 0 19 -2 13 -5z m5210 -35 c-22 -45 -26 -48 -17 -13 8 37 13 45 24 45 5 0
1 -15 -7 -32z m-1395 17 c-5 -5 -218 -49 -753 -154 -170 -34 -334 -67 -362
-75 -29 -7 -53 -9 -53 -5 0 5 3 9 8 10 4 0 257 51 562 113 521 107 611 124
598 111z m-2835 -159 c6 -14 -12 -26 -38 -26 -7 0 -15 9 -18 20 -4 16 0 20 23
20 15 0 30 -6 33 -14z m2786 -30 c-8 -7 -252 -57 -256 -52 -10 9 174 54 226
55 19 1 32 -1 30 -3z m-2196 -63 c-7 -2 -19 -2 -25 0 -7 3 -2 5 12 5 14 0 19
-2 13 -5z m1782 -12 c-9 -8 -464 -101 -494 -101 -42 0 21 16 235 60 259 52
273 54 259 41z m-1922 -18 c-7 -2 -21 -2 -30 0 -10 3 -4 5 12 5 17 0 24 -2 18
-5z m-3643 -668 c0 -297 4 -545 8 -552 7 -11 114 -73 126 -73 8 0 3 985 -5
1015 -8 26 -2 22 56 -35 l65 -64 2 -531 3 -530 28 -62 c61 -138 60 -309 -3
-440 -33 -66 -33 -71 -31 -183 2 -63 0 -159 -4 -214 l-7 -98 -35 36 c-40 41
-48 43 -77 19 -20 -18 -20 -18 -3 10 15 23 18 48 16 140 l-2 112 36 41 c20 23
44 58 53 78 10 20 21 36 25 36 4 0 9 7 12 14 4 9 1 13 -7 10 -14 -5 -52 -65
-48 -76 1 -4 -4 -5 -11 -2 -7 2 -31 -13 -54 -33 -22 -21 -50 -46 -62 -56 -25
-20 -117 -52 -181 -63 -98 -16 -261 7 -330 48 -42 25 -170 157 -170 175 0 7
-4 13 -9 13 -5 0 -12 8 -15 18 -4 9 -15 33 -26 52 -30 56 -64 171 -65 220 0
65 34 156 78 205 20 24 37 48 37 54 0 7 23 11 59 11 52 0 62 3 80 25 12 16 36
29 63 35 l43 9 -47 -4 c-39 -4 -46 -2 -42 10 4 8 3 27 -1 42 -6 24 -8 26 -16
10 -6 -10 -14 -15 -20 -12 -5 4 -9 1 -9 -4 0 -6 -4 -11 -9 -11 -4 0 -7 11 -5
25 5 47 54 102 54 61 0 -24 16 -27 61 -10 32 12 80 17 172 17 96 1 127 4 123
13 -3 7 -5 261 -6 566 -2 475 -4 557 -17 578 -9 14 14 -4 51 -40 l66 -64 0
-541z m3535 649 c-73 -16 -75 -16 -75 -6 0 5 14 9 31 10 17 0 34 3 37 6 3 3
19 6 36 5 23 -1 14 -5 -29 -15z m1221 -2 c24 -16 34 -54 34 -131 0 -101 -7
-109 -102 -126 -71 -11 -68 8 -68 -436 0 -376 -1 -400 -19 -418 -18 -18 -140
-51 -192 -51 -60 0 -60 -5 -59 407 1 324 3 377 16 391 25 25 -5 33 -70 20 -85
-18 -90 -12 -97 113 -5 82 -3 107 8 119 8 9 111 36 256 66 258 55 276 58 293
46z m2002 -18 c37 -13 51 -22 47 -32 -3 -7 -5 -185 -5 -394 0 -358 -1 -380
-17 -372 -10 4 -37 8 -61 9 l-42 0 0 408 c1 316 4 407 13 403 7 -2 36 -13 65
-22z m-3544 -59 c-4 -8 -10 -12 -15 -9 -11 6 -2 24 11 24 5 0 7 -7 4 -15z
m-74 -15 c-14 -4 -38 -8 -55 -8 -29 1 -29 1 5 8 50 11 83 11 50 0z m-205 -40
c-3 -5 -16 -10 -28 -9 -21 0 -21 1 -2 9 28 12 37 12 30 0z m1156 -27 c11 -13
14 -89 13 -408 -1 -368 -3 -397 -22 -462 -55 -179 -201 -285 -397 -287 -79 -1
-95 2 -130 24 -50 31 -86 71 -80 88 3 7 0 10 -5 7 -29 -18 -35 54 -38 464 -2
228 -1 425 2 437 7 26 34 37 149 60 132 26 121 59 125 -399 2 -250 7 -386 14
-394 16 -20 63 -15 84 8 18 20 19 46 24 424 3 222 9 407 13 411 10 10 161 42
203 43 18 1 37 -6 45 -16z m-1346 -13 c-11 -5 -31 -8 -45 -8 l-25 0 25 8 c14
4 34 8 45 8 l20 1 -20 -9z m-78 -16 c-3 -3 -12 -4 -19 -1 -8 3 -5 6 6 6 11 1
17 -2 13 -5z m-44 -11 c-7 -2 -19 -2 -25 0 -7 3 -2 5 12 5 14 0 19 -2 13 -5z
m-77 -12 c-3 -5 -27 -12 -53 -16 -27 -5 -52 -10 -58 -11 -43 -12 -211 -43
-260 -48 -45 -5 -31 0 55 19 63 14 153 32 199 40 46 8 86 16 89 19 9 10 34 7
28 -3z m3436 -8 c31 -28 19 -93 -19 -108 -10 -3 -180 -40 -378 -80 -198 -41
-405 -83 -459 -95 -93 -19 -100 -19 -118 -4 -25 23 -25 99 0 113 9 5 211 47
447 94 237 47 439 88 450 90 40 9 59 7 77 -10z m-3949 -100 c-7 -2 -21 -2 -30
0 -10 3 -4 5 12 5 17 0 24 -2 18 -5z m-53 -7 c0 -6 -132 -28 -137 -22 -2 2 19
9 49 14 62 11 88 14 88 8z m1159 -42 c69 -20 132 -82 154 -150 22 -67 33 -421
18 -564 -19 -175 -93 -294 -224 -358 -183 -89 -356 -56 -430 83 -21 39 -22 51
-22 375 l0 335 33 67 c83 168 296 264 471 212z m-1342 0 c-3 -3 -12 -4 -19 -1
-8 3 -5 6 6 6 11 1 17 -2 13 -5z m-64 -11 c-7 -2 -21 -2 -30 0 -10 3 -4 5 12
5 17 0 24 -2 18 -5z m-180 -40 c-7 -2 -21 -2 -30 0 -10 3 -4 5 12 5 17 0 24
-2 18 -5z m-216 -39 c-3 -3 -12 -4 -19 -1 -8 3 -5 6 6 6 11 1 17 -2 13 -5z
m-150 -30 c-3 -3 -12 -4 -19 -1 -8 3 -5 6 6 6 11 1 17 -2 13 -5z m1289 -8 c18
-14 19 -32 21 -508 1 -311 -2 -505 -8 -525 -9 -28 -18 -35 -62 -47 -115 -32
-166 -39 -182 -22 -8 8 -15 21 -15 30 0 8 -4 18 -10 21 -13 8 -13 282 0 290 6
4 7 11 4 17 -4 6 0 14 7 19 11 6 11 11 2 20 -13 13 -126 -3 -149 -21 -10 -9
-14 -61 -16 -220 -2 -143 -7 -213 -15 -221 -12 -12 -171 -49 -214 -49 -55 0
-54 -9 -57 556 l-3 523 23 14 c13 8 70 25 128 37 l104 22 18 -22 c16 -20 18
-45 18 -206 l0 -184 23 0 c41 0 97 21 107 40 6 11 10 98 10 203 0 159 2 186
16 198 16 14 153 45 205 48 14 0 34 -5 45 -13z m-970 -54 c54 -27 87 -68 113
-137 30 -79 28 -138 -4 -163 -26 -21 -184 -62 -236 -62 -25 0 -33 6 -44 34
-19 44 -30 51 -64 36 -38 -15 -57 -53 -45 -87 10 -29 19 -34 164 -77 117 -35
185 -84 225 -161 29 -57 30 -63 30 -189 -1 -113 -4 -139 -24 -189 -53 -135
-164 -233 -315 -279 -55 -16 -85 -20 -155 -16 -171 10 -254 87 -267 250 -9
107 -3 113 163 143 73 14 138 22 146 20 7 -3 21 -19 31 -35 18 -32 52 -40 74
-18 7 7 12 29 12 51 0 26 4 36 12 31 7 -4 8 -3 4 5 -4 6 -12 8 -18 5 -7 -5 -9
-2 -6 8 5 12 -17 20 -115 43 -155 35 -217 58 -250 93 -86 90 -88 308 -5 464
58 109 193 207 334 243 80 20 187 14 240 -13z m-559 12 c-3 -3 -12 -4 -19 -1
-8 3 -5 6 6 6 11 1 17 -2 13 -5z m5028 -84 c3 -6 -4 -10 -17 -10 -13 0 -185
-33 -383 -74 -326 -66 -378 -75 -364 -62 2 2 141 32 309 67 168 34 332 68 365
74 79 17 83 17 90 5z m1065 -330 c-12 -16 -24 -30 -26 -30 -7 0 5 20 24 43 24
27 25 20 2 -13z m90 -119 c0 -6 -4 -13 -10 -16 -5 -3 -10 1 -10 9 0 9 5 16 10
16 6 0 10 -4 10 -9z m-1895 -75 c-77 -17 -150 -37 -162 -44 -19 -11 -22 -10
-17 2 3 9 35 21 77 30 40 9 99 22 132 30 33 8 71 14 85 14 14 0 -38 -14 -115
-32z m1518 7 c-7 -2 -19 -2 -25 0 -7 3 -2 5 12 5 14 0 19 -2 13 -5z m-44 -7
c-2 -2 -26 -6 -54 -10 -36 -5 -46 -4 -35 3 13 10 99 16 89 7z m452 -28 l23
-33 -27 24 c-15 14 -27 28 -27 33 0 15 8 8 31 -24z m-7741 -32 c0 -17 -15 -36
-29 -36 -13 1 -13 2 3 11 15 9 16 13 5 20 -11 7 -10 9 4 9 9 0 17 -2 17 -4z
m7147 -18 c-3 -8 -6 -5 -6 6 -1 11 2 17 5 13 3 -3 4 -12 1 -19z m-1323 -24
c27 -10 20 -44 -9 -44 -20 0 -25 -5 -25 -25 0 -33 16 -32 51 6 27 29 31 30 52
17 31 -21 32 -50 2 -86 -30 -36 -64 -50 -75 -32 -14 22 -43 3 -36 -24 6 -26
-15 -52 -37 -43 -13 5 -37 70 -37 101 0 9 6 16 14 16 9 0 14 12 14 35 0 46 15
64 69 84 1 1 8 -2 17 -5z m-655 -177 c30 -20 50 -44 66 -80 31 -69 40 -127 23
-150 -13 -18 -184 -71 -199 -62 -4 3 -13 21 -19 40 -14 43 -39 59 -74 45 -30
-11 -46 -38 -46 -79 0 -39 19 -49 124 -67 159 -28 223 -82 246 -207 19 -102
-20 -251 -86 -330 -71 -85 -188 -133 -294 -122 -36 3 -73 7 -82 8 -9 1 -15 4
-13 7 2 3 -11 13 -28 23 l-32 17 24 -20 c13 -11 18 -20 12 -20 -5 0 -29 19
-51 42 -46 48 -70 114 -70 189 0 55 5 60 90 77 140 27 142 27 162 -33 10 -32
18 -41 40 -43 33 -4 68 28 68 64 0 14 4 23 10 19 20 -12 9 16 -15 40 -13 14
-36 25 -50 25 -40 0 -183 38 -227 61 -106 54 -137 243 -63 388 23 47 101 127
146 151 61 34 135 50 215 47 69 -2 86 -6 123 -30z m-5296 -42 c-3 -9 -8 -14
-10 -11 -3 3 -2 9 2 15 9 16 15 13 8 -4z m7077 -1185 c0 -1106 -1 -1171 -17
-1177 -10 -4 -35 -17 -55 -30 l-38 -23 0 1179 0 1178 53 21 c28 11 53 20 55
21 1 0 2 -526 2 -1169z m-7103 1118 c-3 -8 -6 -5 -6 6 -1 11 2 17 5 13 3 -3 4
-12 1 -19z m4668 8 c15 -11 21 -32 26 -92 8 -96 0 -127 -32 -136 -13 -4 -44
-13 -69 -20 l-45 -13 -5 -387 c-4 -274 -8 -390 -17 -399 -11 -11 -151 -48
-186 -49 -10 0 -28 9 -40 20 -21 20 -22 28 -25 298 -3 192 0 294 8 332 7 30
13 73 14 95 1 44 9 42 -94 29 -41 -5 -58 -3 -67 7 -13 17 -23 202 -12 221 9
14 426 105 490 107 19 1 44 -5 54 -13z m-4678 -78 c-2 -13 -4 -5 -4 17 -1 22
1 32 4 23 2 -10 2 -28 0 -40z m7514 -1 l29 11 0 -280 c0 -263 1 -280 18 -273
109 47 216 62 326 47 47 -6 102 -20 124 -31 49 -25 49 -27 58 -297 l7 -201
-24 -6 c-13 -4 -34 -7 -46 -7 -12 0 -27 -8 -32 -17 -7 -13 -11 26 -12 137 -1
85 -4 195 -8 245 -7 101 -8 102 -88 90 l-45 -7 6 -86 c4 -48 9 -161 11 -252 5
-150 7 -165 22 -163 10 2 54 3 98 4 90 1 105 -9 105 -70 l0 -34 26 24 c24 22
26 22 20 4 -3 -11 -1 -27 5 -35 9 -12 10 -12 5 4 -8 24 17 62 57 86 36 23 15
27 -23 5 -40 -23 -58 -18 -65 16 -9 39 5 53 69 72 l50 14 -3 108 c-2 99 -1
108 14 95 13 -11 19 -10 36 8 11 12 24 22 28 22 15 0 53 -103 73 -200 17 -81
19 -106 10 -170 -12 -82 -46 -175 -62 -165 -5 3 -12 -6 -16 -20 -3 -14 -10
-25 -15 -25 -5 0 -6 -6 -3 -13 2 -7 -4 -22 -16 -32 -11 -10 -20 -14 -20 -10 0
5 -11 -2 -25 -15 -13 -12 -22 -26 -20 -30 3 -4 -3 -14 -12 -21 -12 -10 -14
-10 -9 -1 10 17 -2 15 -32 -7 -79 -55 -216 -101 -304 -101 -131 0 -286 59
-377 144 -94 90 -124 180 -122 381 0 72 3 148 7 171 5 36 3 42 -15 47 -31 8
-37 35 -12 61 13 14 21 36 21 57 0 46 9 56 51 64 l36 7 6 96 c4 54 7 202 7
329 l0 233 26 -12 c19 -9 33 -9 55 -1z m-3493 -43 l22 -15 0 -379 c0 -243 -4
-398 -11 -432 -26 -122 -100 -217 -204 -263 -69 -31 -165 -49 -218 -41 -23 3
-54 8 -70 11 -34 5 -49 14 -43 24 3 4 -8 21 -24 36 -17 16 -30 26 -30 22 0 -3
12 -18 27 -32 15 -14 23 -25 17 -25 -17 0 -67 58 -59 69 3 7 1 10 -6 9 -7 -2
-14 6 -16 17 -3 16 -2 17 6 5 12 -17 14 -10 5 14 -3 9 -10 13 -15 10 -11 -7
-10 -47 -9 408 1 299 -2 391 -12 407 -10 17 -10 23 3 36 22 22 217 61 238 48
14 -9 17 -54 21 -392 5 -364 6 -383 24 -397 27 -20 41 -18 73 10 l28 24 3 396
3 395 37 11 c52 14 154 38 172 39 9 1 26 -6 38 -15z m2736 -2 c2 -4 -11 -6
-30 -4 -19 2 -34 6 -34 8 0 8 59 4 64 -4z m-87 -8 c-3 -3 -12 -4 -19 -1 -8 3
-5 6 6 6 11 1 17 -2 13 -5z m-50 -10 c-3 -3 -12 -4 -19 -1 -8 3 -5 6 6 6 11 1
17 -2 13 -5z m-6630 -26 c-3 -8 -6 -5 -6 6 -1 11 2 17 5 13 3 -3 4 -12 1 -19z
m6543 6 c-88 -21 -144 -25 -65 -5 39 10 81 19 95 19 14 0 0 -6 -30 -14z m-155
-31 c-93 -22 -560 -113 -568 -110 -6 2 39 13 99 25 60 13 183 38 274 56 91 19
176 34 190 34 20 0 21 -1 5 -5z m-6378 -55 c-3 -8 -6 -5 -6 6 -1 11 2 17 5 13
3 -3 4 -12 1 -19z m3200 16 c-3 -3 -12 -4 -19 -1 -8 3 -5 6 6 6 11 1 17 -2 13
-5z m-44 -11 c-7 -2 -19 -2 -25 0 -7 3 -2 5 12 5 14 0 19 -2 13 -5z m-56 -9
c-3 -3 -12 -4 -19 -1 -8 3 -5 6 6 6 11 1 17 -2 13 -5z m-50 -10 c-3 -3 -12 -4
-19 -1 -8 3 -5 6 6 6 11 1 17 -2 13 -5z m-44 -11 c-7 -2 -19 -2 -25 0 -7 3 -2
5 12 5 14 0 19 -2 13 -5z m-46 -9 c-3 -3 -12 -4 -19 -1 -8 3 -5 6 6 6 11 1 17
-2 13 -5z m-50 -10 c-3 -3 -12 -4 -19 -1 -8 3 -5 6 6 6 11 1 17 -2 13 -5z
m318 -3 c-6 -4 -87 -25 -181 -44 -94 -20 -180 -40 -190 -43 -14 -5 -16 -4 -8
5 6 6 91 29 190 50 203 44 202 44 189 32z m-370 -7 c-34 -13 -106 -31 -99 -24
10 10 71 28 94 28 8 0 11 -1 5 -4z m2910 -14 c-85 -22 -115 -27 -115 -20 0 9
81 28 120 28 22 0 22 -1 -5 -8z m-2655 -56 c12 -22 12 -27 0 -36 -12 -8 -12
-9 2 -4 35 11 63 -94 52 -194 -7 -54 -9 -60 -14 -32 l-5 33 -23 -21 c-31 -29
-38 -20 -25 33 12 56 -7 132 -37 140 -24 6 -36 51 -21 83 15 33 53 32 71 -2z
m-497 9 c-7 -2 -21 -2 -30 0 -10 3 -4 5 12 5 17 0 24 -2 18 -5z m-66 -9 c-3
-3 -12 -4 -19 -1 -8 3 -5 6 6 6 11 1 17 -2 13 -5z m4166 -1 c-7 -2 -19 -2 -25
0 -7 3 -2 5 12 5 14 0 19 -2 13 -5z m-4210 -10 c-7 -2 -19 -2 -25 0 -7 3 -2 5
12 5 14 0 19 -2 13 -5z m4164 1 c-3 -3 -12 -4 -19 -1 -8 3 -5 6 6 6 11 1 17
-2 13 -5z m-4214 -11 c-7 -2 -19 -2 -25 0 -7 3 -2 5 12 5 14 0 19 -2 13 -5z
m-50 -10 c-7 -2 -19 -2 -25 0 -7 3 -2 5 12 5 14 0 19 -2 13 -5z m4160 0 c-7
-2 -19 -2 -25 0 -7 3 -2 5 12 5 14 0 19 -2 13 -5z m-4268 -23 c-38 -9 -79 -20
-90 -24 -11 -4 -7 0 8 9 28 16 94 33 132 33 11 0 -11 -8 -50 -18z m4218 13
c-7 -2 -19 -2 -25 0 -7 3 -2 5 12 5 14 0 19 -2 13 -5z m-3864 -7 c-6 -7 -330
-76 -353 -76 -40 0 -5 10 134 39 186 39 228 46 219 37z m3818 -2 c-3 -3 -12
-4 -19 -1 -8 3 -5 6 6 6 11 1 17 -2 13 -5z m-54 -11 c-7 -2 -19 -2 -25 0 -7 3
-2 5 12 5 14 0 19 -2 13 -5z m-68 -13 c-16 -4 -39 -8 -50 -8 -16 0 -15 2 5 8
14 4 36 8 50 8 22 0 22 -1 -5 -8z m-78 -16 c-3 -3 -12 -4 -19 -1 -8 3 -5 6 6
6 11 1 17 -2 13 -5z m-44 -11 c-7 -2 -21 -2 -30 0 -10 3 -4 5 12 5 17 0 24 -2
18 -5z m-4190 -10 c-7 -2 -19 -2 -25 0 -7 3 -2 5 12 5 14 0 19 -2 13 -5z
m4134 1 c-3 -3 -12 -4 -19 -1 -8 3 -5 6 6 6 11 1 17 -2 13 -5z m-4194 -11 c-7
-2 -19 -2 -25 0 -7 3 -2 5 12 5 14 0 19 -2 13 -5z m4150 0 c-7 -2 -19 -2 -25
0 -7 3 -2 5 12 5 14 0 19 -2 13 -5z m-4196 -9 c-3 -3 -12 -4 -19 -1 -8 3 -5 6
6 6 11 1 17 -2 13 -5z m4146 -1 c-7 -2 -19 -2 -25 0 -7 3 -2 5 12 5 14 0 19
-2 13 -5z m2251 1 c9 -3 16 -12 16 -20 0 -17 -26 -8 -34 12 -6 16 -4 17 18 8z
m-6459 -14 c-16 -4 -39 -8 -50 -8 -16 0 -15 2 5 8 14 4 36 8 50 8 22 0 22 -1
-5 -8z m4164 6 c-7 -7 -220 -48 -225 -43 -5 5 171 45 205 46 13 1 22 -1 20 -3z
m2225 -11 c6 -17 36 -21 36 -4 0 5 5 7 10 4 23 -14 7 -25 -40 -25 -51 0 -60 6
-38 28 16 16 25 15 32 -3z m-6534 -25 c-77 -19 -107 -20 -48 -2 47 15 70 20
98 20 14 0 -9 -8 -50 -18z m265 -15 c-60 -13 -150 -32 -199 -43 -48 -11 -84
-17 -80 -12 5 4 74 22 154 38 80 17 154 33 165 35 11 3 31 5 45 5 14 0 -24
-10 -85 -23z m3203 0 c-3 -3 -9 2 -12 12 -6 14 -5 15 5 6 7 -7 10 -15 7 -18z
m3087 -35 c25 -28 12 -37 -16 -11 -12 11 -24 19 -27 17 -6 -7 18 -46 28 -46 6
0 10 -4 10 -10 0 -18 -29 -11 -40 9 -28 53 7 84 45 41z m-5350 -53 c1 -13 14
-45 29 -71 15 -25 24 -51 21 -56 -3 -6 -1 -10 4 -10 25 0 9 -18 -19 -22 -23
-4 -30 -1 -26 9 3 8 2 12 -3 8 -17 -10 -88 122 -83 153 2 6 -2 12 -8 12 -21 0
-4 24 21 31 30 8 63 -20 64 -54z m-2185 -172 c0 -193 1 -190 -63 -159 l-33 16
2 112 c1 61 3 125 3 143 1 27 6 33 44 46 23 8 43 15 45 16 1 0 2 -78 2 -174z
m2320 120 c14 -19 27 -35 30 -35 10 0 26 15 43 40 24 34 21 12 -3 -28 -19 -31
-73 -72 -96 -72 -10 0 -54 78 -54 97 0 9 35 31 50 32 3 0 16 -15 30 -34z
m5214 -31 c3 -9 4 -20 0 -25 -3 -5 2 -9 10 -9 21 0 21 -19 0 -27 -20 -8 -31 5
-37 45 -6 34 15 47 27 16z m-7144 -63 c0 -5 -7 -12 -16 -15 -14 -5 -15 -4 -4
9 14 17 20 19 20 6z m-30 -51 c0 -5 -5 -10 -11 -10 -5 0 -8 -4 -5 -8 3 -5 -6
-21 -19 -38 l-24 -29 21 48 c20 43 38 61 38 37z m5648 -70 c63 -39 62 -27 62
-700 0 -586 -1 -612 -20 -649 -32 -65 -68 -86 -187 -115 -95 -22 -628 -132
-1053 -216 -80 -16 -313 -63 -519 -105 -205 -41 -382 -75 -392 -75 -13 0 -19
7 -19 23 0 32 -27 67 -53 67 -28 -1 -40 -11 -99 -80 -42 -51 -50 -56 -90 -59
-23 -1 -47 -6 -52 -11 -9 -9 -57 25 -126 87 -14 13 -40 30 -59 39 -55 26 -65
13 -71 -97 l-5 -94 -80 -17 c-44 -10 -233 -49 -420 -87 -682 -141 -1474 -303
-1651 -338 l-180 -37 -40 20 c-25 13 -46 34 -59 60 -19 38 -20 59 -20 649 l0
610 25 44 c46 81 -19 63 850 241 1021 209 1347 276 1615 330 160 32 434 89
610 125 176 36 451 93 610 125 407 82 1044 213 1210 249 169 36 172 36 213 11z
m-6086 -87 c65 -24 70 -36 8 -15 -86 29 -88 30 -68 31 10 1 37 -6 60 -16z
m128 -53 c8 -5 11 -10 5 -10 -5 0 -17 5 -25 10 -8 5 -10 10 -5 10 6 0 17 -5
25 -10z m6527 -67 c-3 -10 -5 -4 -5 12 0 17 2 24 5 18 2 -7 2 -21 0 -30z
m-6414 -342 c15 -22 40 -54 57 -71 29 -29 30 -34 30 -120 l0 -88 -32 8 c-18 5
-50 11 -72 14 -21 3 -41 8 -45 12 -3 4 1 5 11 1 22 -8 25 8 21 156 -2 70 -1
127 1 127 2 0 15 -18 29 -39z m-163 -116 l0 -135 41 0 c24 0 38 -4 34 -10 -4
-6 9 -10 32 -10 21 0 65 -7 98 -15 33 -9 67 -17 76 -19 31 -8 98 -56 141 -100
88 -90 133 -235 111 -360 -13 -74 -56 -177 -86 -203 -15 -13 -13 -7 8 25 23
35 26 45 15 55 -10 9 -11 9 -6 0 4 -8 2 -13 -5 -13 -7 0 -10 -3 -6 -6 3 -3 -4
-15 -16 -27 -26 -26 -113 -87 -124 -87 -5 0 -21 -7 -36 -15 -97 -50 -315 -39
-446 22 -61 29 -121 74 -121 90 0 8 -6 13 -13 10 -14 -5 -14 18 -2 110 7 47 5
54 -18 77 -14 14 -37 26 -49 26 -17 0 -24 6 -25 22 -3 33 36 154 58 182 10 13
19 28 19 33 0 5 13 22 30 38 16 16 28 31 25 33 -7 8 -47 -38 -93 -108 -51 -76
-55 -69 -7 10 38 62 100 124 116 115 5 -4 9 1 9 9 0 8 34 36 75 61 l75 47 0
133 0 134 28 4 c67 10 62 20 62 -128z m6776 -7 l24 -11 0 -389 0 -389 -60 43
-60 42 0 389 0 389 36 -32 c20 -17 47 -36 60 -42z m-7172 -464 c3 -8 2 -12 -4
-9 -6 3 -10 -2 -10 -11 0 -10 -3 -15 -6 -11 -6 5 4 47 11 47 1 0 6 -7 9 -16z
m-30 -78 c-3 -15 -8 -25 -11 -23 -2 3 -1 17 3 31 3 15 8 25 11 23 2 -3 1 -17
-3 -31z m-14 -56 c0 -11 -4 -20 -9 -20 -5 0 -7 9 -4 20 3 11 7 20 9 20 2 0 4
-9 4 -20z m7135 -149 c54 -31 66 -39 129 -92 64 -55 150 -109 180 -114 21 -4
62 4 126 25 83 28 104 32 175 28 102 -6 165 -36 228 -110 58 -69 75 -104 93
-190 22 -103 -3 -120 -65 -43 -31 38 -146 146 -186 174 -22 15 -62 36 -90 46
-27 10 -56 23 -64 29 -9 7 -70 11 -156 11 l-142 0 -119 59 c-65 32 -119 58
-119 56 0 -2 -18 8 -40 22 -61 38 -184 98 -202 98 -45 0 -99 -28 -158 -82 -61
-56 -144 -161 -159 -202 -3 -10 -9 -16 -13 -13 -3 4 6 31 21 61 59 121 154
205 285 253 94 34 198 28 276 -16z m-6436 -1062 c1 -344 7 -382 67 -449 45
-50 90 -70 157 -70 30 0 180 27 333 60 310 68 676 146 889 190 362 75 593 124
854 179 214 46 287 58 298 50 7 -7 13 -31 13 -55 0 -48 -9 -57 -75 -68 -22 -4
-132 -27 -245 -51 -113 -24 -325 -69 -471 -99 -313 -64 -389 -83 -409 -101 -8
-7 -64 -23 -125 -35 -60 -12 -148 -30 -195 -41 -375 -84 -801 -169 -849 -169
-80 0 -144 22 -225 78 -139 95 -136 74 -136 775 l0 557 53 23 52 23 6 -245 c3
-135 7 -384 8 -552z m-249 92 c0 -403 4 -679 10 -712 21 -110 87 -205 173
-252 36 -19 56 -22 147 -21 108 1 161 11 1127 225 105 23 198 39 207 36 17 -7
33 -74 20 -87 -5 -5 -133 -37 -284 -70 -151 -33 -356 -78 -455 -100 -375 -82
-412 -90 -495 -106 -106 -20 -225 -14 -293 15 -66 28 -146 107 -181 178 -39
79 -43 89 -63 163 -16 59 -18 123 -18 727 l0 663 53 0 52 0 0 -659z m3850 578
c0 -11 -6 -27 -12 -34 -7 -7 -40 -56 -73 -109 -33 -52 -67 -98 -75 -101 -7 -3
-24 2 -36 12 -12 10 -60 49 -106 87 -45 38 -99 75 -118 83 -41 18 -36 13 -45
41 -7 23 -6 23 22 8 15 -8 42 -28 58 -43 67 -63 203 -173 215 -173 7 0 10 8 7
19 -2 11 11 39 34 72 22 30 42 61 46 69 4 8 15 24 25 34 10 11 18 28 18 38 0
11 7 18 20 18 14 0 20 -7 20 -21z m2176 -85 c-3 -26 -6 -57 -6 -69 0 -20 -9
-24 -77 -38 -43 -9 -109 -24 -148 -32 -38 -9 -96 -20 -127 -25 -32 -4 -61 -10
-65 -13 -19 -11 -266 -58 -279 -53 -10 4 -12 2 -8 -6 5 -8 -2 -9 -23 -5 -16 3
-83 -5 -149 -18 -188 -38 -744 -152 -794 -164 -81 -19 -81 -19 -78 52 l3 62
85 17 c613 124 1494 303 1560 318 121 26 114 27 106 -26z m691 15 c48 -23 77
-65 114 -162 12 -33 28 -61 36 -64 7 -3 45 25 85 62 86 80 153 115 222 115 67
0 109 -41 126 -124 24 -118 -9 -208 -129 -343 -103 -117 -307 -316 -333 -326
-35 -13 -63 16 -165 171 -173 264 -226 367 -239 467 -9 60 16 124 63 166 71
62 144 75 220 38z m-2644 -245 c9 -3 17 -11 17 -16 0 -7 -32 -8 -92 -4 -106 8
-128 13 -128 28 0 12 170 5 203 -8z m-714 -40 c44 -9 39 -19 -16 -32 l-48 -11
50 6 c28 2 47 2 44 -1 -8 -8 -273 -43 -288 -38 -6 2 -11 12 -11 22 0 15 11 20
58 25 31 4 82 13 112 20 69 17 62 16 99 9z m2735 -59 c10 -24 16 -48 14 -52
-2 -4 -140 -35 -308 -69 -168 -34 -354 -73 -414 -87 -119 -27 -142 -26 -126 3
6 10 10 32 10 49 0 28 3 30 53 41 28 6 207 44 397 85 190 40 348 74 351 74 4
1 14 -19 23 -44z m-2667 -438 c-2 -23 -3 -1 -3 48 0 50 1 68 3 42 2 -26 2 -67
0 -90z m1873 47 c62 -19 113 -52 104 -66 -5 -7 -3 -8 5 -3 15 9 63 -33 54 -48
-3 -6 -2 -7 4 -4 20 12 102 -102 107 -148 l3 -26 -31 30 c-18 17 -40 31 -49
31 -29 0 -20 -46 26 -133 29 -58 42 -94 42 -124 0 -23 -3 -39 -7 -37 -5 3 -8
-3 -9 -13 0 -10 -9 -31 -20 -48 -11 -16 -22 -38 -25 -47 -4 -10 -11 -15 -17
-11 -7 4 -8 0 -3 -13 4 -10 4 -15 0 -12 -3 4 -18 -5 -33 -19 -45 -43 -129 -93
-194 -115 -91 -31 -221 -34 -295 -6 -65 24 -135 75 -125 91 4 7 0 8 -11 4 -11
-4 -15 -3 -10 4 3 6 -3 20 -14 32 -11 12 -26 39 -33 60 -7 20 -17 37 -22 37
-4 0 -6 8 -2 19 3 11 0 21 -9 24 -7 3 -16 20 -18 39 -3 18 -8 42 -12 53 -7 17
-6 17 4 5 9 -12 10 -10 4 10 -4 14 -7 48 -6 75 1 36 -1 46 -8 35 -15 -24 -12
-5 11 54 11 31 25 59 31 62 7 5 8 2 3 -7 -8 -12 -6 -12 8 0 18 15 23 26 7 16
-18 -11 -10 6 22 46 43 54 131 118 192 141 99 38 230 43 326 12z m-2283 -240
c-3 -3 -12 -4 -19 -1 -8 3 -5 6 6 6 11 1 17 -2 13 -5z m-57 -12 c-23 -4 -24
-5 -5 -13 19 -7 19 -8 -2 -8 -13 -1 -23 -6 -23 -12 0 -6 9 -8 21 -4 24 8 21 4
-23 -46 -10 -10 -18 -23 -18 -28 0 -5 -12 -19 -27 -30 -16 -11 -22 -21 -15
-21 6 0 12 -6 12 -14 0 -27 -149 15 -257 72 -29 15 -53 29 -53 32 0 8 349 78
385 78 27 -1 27 -1 5 -6z m2686 -44 c4 -6 3 -8 -3 -5 -6 4 -13 -2 -16 -13 -7
-26 -37 -26 -37 -1 0 17 11 25 42 30 4 0 10 -4 14 -11z m-953 -88 c-7 -27 -13
-25 -11 4 1 14 5 23 9 20 4 -2 5 -13 2 -24z m910 -165 c-3 -9 -8 -14 -10 -11
-3 3 -2 9 2 15 9 16 15 13 8 -4z m-7156 -106 c35 -6 63 -15 63 -19 0 -5 -15
-4 -32 1 -18 4 -51 12 -73 18 -57 13 -33 13 42 0z m120 -35 c-3 -3 -12 -4 -19
-1 -8 3 -5 6 6 6 11 1 17 -2 13 -5z m106 -31 c-7 -2 -19 -2 -25 0 -7 3 -2 5
12 5 14 0 19 -2 13 -5z m47 -13 c13 -8 13 -10 -2 -10 -9 0 -20 5 -23 10 -8 13
5 13 25 0z m109 -45 c2 -3 0 -5 -6 -5 -12 0 -73 30 -73 36 0 5 71 -24 79 -31z
m-336 8 c-7 -2 -21 -2 -30 0 -10 3 -4 5 12 5 17 0 24 -2 18 -5z m157 -3 c0 -5
-2 -10 -4 -10 -3 0 -8 5 -11 10 -3 6 -1 10 4 10 6 0 11 -4 11 -10z m57 4 c-3
-3 -12 -4 -19 -1 -8 3 -5 6 6 6 11 1 17 -2 13 -5z m215 -56 c69 -34 84 -48 48
-45 -11 1 -20 5 -20 10 0 4 -5 5 -12 1 -7 -5 -8 -3 -3 6 6 10 4 12 -8 7 -17
-6 -75 9 -92 25 -5 5 5 3 23 -3 44 -15 51 -6 10 14 -18 9 -28 17 -23 17 6 0
40 -14 77 -32z m942 -543 c4 -14 11 -25 16 -25 6 0 10 -4 10 -10 0 -5 -4 -10
-8 -10 -8 0 -16 14 -40 63 -2 4 1 7 6 7 5 0 13 -11 16 -25z m-24 -15 c0 -5 -2
-10 -4 -10 -3 0 -8 5 -11 10 -3 6 -1 10 4 10 6 0 11 -4 11 -10z m190 -66 c0
-8 -4 -12 -10 -9 -5 3 -10 10 -10 16 0 5 5 9 10 9 6 0 10 -7 10 -16z m60 -19
c0 -3 -9 -5 -20 -5 -11 0 -20 7 -20 15 0 13 4 14 20 5 11 -6 20 -13 20 -15z"/>
<path d="M3842 8724 c-12 -8 -22 -20 -22 -25 0 -6 10 -3 22 5 48 34 138 8 138
-39 0 -8 4 -15 9 -15 16 0 -9 59 -32 75 -28 20 -87 19 -115 -1z"/>
<path d="M4164 8670 c-12 -5 -24 -16 -28 -26 -6 -17 -6 -17 12 -1 29 26 85 22
123 -10 18 -15 30 -21 27 -13 -12 36 -92 66 -134 50z"/>
<path d="M3812 8489 c-37 -14 -25 -27 21 -22 39 5 46 2 70 -27 16 -18 27 -25
27 -17 0 42 -73 82 -118 66z"/>
<path d="M4135 8430 c-25 -9 -52 -40 -37 -40 6 0 14 5 17 10 10 16 72 12 90
-7 9 -9 22 -28 27 -42 9 -22 12 -23 15 -8 8 33 -7 66 -37 82 -32 17 -45 18
-75 5z"/>
<path d="M3735 8293 c17 -93 80 -162 171 -189 112 -32 219 5 272 95 l25 43
-34 -8 c-19 -5 -77 -9 -129 -8 -107 1 -193 25 -269 76 l-43 29 7 -38z"/>
<path d="M1689 5949 c25 -11 61 -29 80 -41 19 -12 31 -16 27 -10 -11 19 -109
72 -131 72 -12 0 -2 -8 24 -21z"/>
<path d="M1156 5876 c-21 -19 -36 -43 -36 -56 0 -20 5 -17 39 21 35 40 43 44
86 44 39 0 51 -5 71 -28 22 -26 24 -26 24 -7 0 29 -55 60 -107 60 -34 0 -48
-6 -77 -34z"/>
<path d="M1605 5879 c-19 -20 -19 -20 7 -10 25 9 82 2 108 -14 7 -4 25 -35 41
-69 27 -59 39 -52 16 9 -36 92 -126 136 -172 84z"/>
<path d="M1085 5503 c40 -212 187 -341 378 -331 155 8 275 114 313 276 l13 54
-32 -6 c-192 -40 -479 -27 -638 29 l-41 15 7 -37z m465 -254 c0 -6 -6 -16 -13
-23 -11 -11 -17 -11 -30 -1 -26 19 -20 35 13 35 17 0 30 -5 30 -11z"/>
<path d="M1515 5240 c-3 -5 -1 -10 4 -10 6 0 11 5 11 10 0 6 -2 10 -4 10 -3 0
-8 -4 -11 -10z"/>
<path d="M4588 6645 c-15 -8 -30 -25 -34 -37 -12 -34 -4 -520 8 -535 16 -20
54 -15 84 11 l28 23 4 239 c2 149 7 248 14 262 22 43 -47 68 -104 37z"/>
<path d="M8523 5053 c-31 -6 -48 -78 -25 -106 22 -26 10 -51 -37 -74 -25 -13
-50 -28 -55 -34 -8 -9 -5 -9 11 0 12 6 33 11 47 11 l26 0 0 -156 0 -155 -22
15 c-12 9 -29 16 -38 16 -9 -1 -4 -7 12 -15 28 -15 44 -47 33 -65 -3 -5 -1
-10 4 -10 6 0 11 6 11 14 0 27 54 2 65 -30 5 -16 14 -32 19 -35 5 -4 6 -11 4
-15 -7 -12 17 -80 24 -68 3 5 -5 42 -18 83 -31 95 -31 108 4 115 l27 6 -6 223
c-4 122 -7 237 -8 255 -1 28 -4 32 -28 31 -16 -1 -38 -4 -50 -6z"/>
<path d="M8344 4754 c3 -9 6 -18 6 -20 0 -2 9 -4 20 -4 11 0 20 5 20 10 0 6
-7 10 -15 10 -8 0 -15 5 -15 10 0 6 -5 10 -11 10 -6 0 -8 -7 -5 -16z"/>
<path d="M9136 4284 c-5 -14 -4 -15 9 -4 17 14 19 20 6 20 -5 0 -12 -7 -15
-16z"/>
<path d="M4292 4690 c0 -14 2 -19 5 -12 2 6 2 18 0 25 -3 6 -5 1 -5 -13z"/>
<path d="M4020 5216 c0 -7 7 -19 15 -26 12 -10 15 -9 15 8 0 11 -7 22 -15 26
-9 3 -15 0 -15 -8z"/>
<path d="M3810 4990 c6 -11 13 -20 16 -20 2 0 0 9 -6 20 -6 11 -13 20 -16 20
-2 0 0 -9 6 -20z"/>
<path d="M7474 4431 l27 -29 -31 -36 c-18 -20 -28 -36 -22 -36 11 0 72 66 72
78 0 9 -55 52 -66 52 -4 0 5 -13 20 -29z"/>
<path d="M6807 4334 c-4 -4 -7 -34 -7 -66 0 -58 0 -59 22 -47 14 8 18 14 10
17 -16 5 -16 62 1 62 8 0 9 3 1 8 -6 4 -13 13 -15 20 -3 7 -8 10 -12 6z"/>
<path d="M6882 4314 c-31 -21 -28 -77 4 -82 11 -2 27 4 34 13 12 14 11 16 -13
10 -16 -4 -27 -3 -27 3 0 5 14 12 30 16 31 6 38 24 18 44 -15 15 -19 15 -46
-4z m38 -14 c0 -5 -9 -10 -21 -10 -11 0 -17 5 -14 10 3 6 13 10 21 10 8 0 14
-4 14 -10z"/>
<path d="M6735 4303 c-12 -22 -8 -103 6 -103 5 0 9 18 9 39 0 25 5 41 15 45 8
3 15 10 15 16 0 6 -4 8 -10 5 -5 -3 -10 -1 -10 4 0 17 -14 13 -25 -6z"/>
<path d="M6557 4290 c-9 -25 -14 -130 -6 -130 8 0 14 19 21 64 2 11 9 21 16
24 8 2 12 -9 12 -39 0 -31 3 -40 11 -32 6 6 9 28 7 49 -3 33 -6 39 -25 37 -15
-2 -23 4 -26 20 -2 16 -5 18 -10 7z"/>
<path d="M6661 4271 c-39 -39 -20 -98 27 -80 30 11 28 23 -3 15 -18 -5 -25 -2
-25 9 0 8 9 15 20 15 27 0 37 27 17 47 -13 14 -17 13 -36 -6z m29 -10 c0 -12
-20 -25 -27 -18 -7 7 6 27 18 27 5 0 9 -4 9 -9z"/>
<path d="M6395 4259 c-9 -14 4 -117 16 -124 9 -6 21 17 33 68 4 15 2 27 -3 27
-6 0 -14 -17 -18 -37 l-7 -38 -6 40 c-3 22 -2 45 3 52 4 6 4 14 -2 17 -5 4
-13 1 -16 -5z"/>
<path d="M6500 4251 c0 -12 5 -21 10 -21 6 0 10 6 10 14 0 8 -4 18 -10 21 -5
3 -10 -3 -10 -14z"/>
<path d="M6956 4261 c-4 -7 -5 -15 -2 -18 9 -9 19 4 14 18 -4 11 -6 11 -12 0z"/>
<path d="M6152 4148 c1 -46 3 -58 5 -31 5 57 33 68 33 13 0 -22 5 -40 10 -40
6 0 10 20 10 45 0 42 -2 45 -26 45 -21 0 -25 4 -21 20 3 11 1 20 -4 20 -5 0
-8 -33 -7 -72z"/>
<path d="M6300 4195 c-1 -5 -3 -34 -5 -62 -2 -29 0 -55 6 -58 5 -4 9 5 9 19 0
18 5 26 18 26 27 0 42 20 42 57 0 32 -2 34 -35 31 -19 -1 -35 -7 -35 -13z m50
-39 c-9 -25 -33 -28 -38 -5 -4 23 28 55 39 38 4 -7 4 -22 -1 -33z"/>
<path d="M6047 4177 c-11 -28 -9 -95 3 -102 6 -4 24 -4 40 0 28 6 30 10 30 52
0 45 0 45 -29 40 -23 -5 -30 -2 -33 11 -3 15 -4 15 -11 -1z m53 -57 c0 -16 -2
-30 -4 -30 -2 0 -11 -3 -20 -6 -12 -5 -16 1 -16 23 0 33 6 43 27 43 8 0 13
-12 13 -30z"/>
<path d="M5968 4139 c-28 -16 -23 -49 8 -49 16 0 24 -5 21 -12 -2 -7 -14 -12
-26 -11 -11 2 -21 -1 -21 -5 0 -17 12 -20 41 -10 37 13 38 43 2 56 -27 10 -28
11 -6 17 13 4 20 11 17 16 -7 11 -15 11 -36 -2z"/>
<path d="M5767 4134 c-4 -4 -7 -34 -7 -66 0 -51 2 -58 19 -58 31 0 52 29 49
64 -2 23 -8 31 -23 31 -11 0 -22 8 -25 18 -3 10 -8 15 -13 11z m43 -73 c0 -27
-20 -47 -34 -34 -11 11 -6 51 7 56 23 10 27 7 27 -22z"/>
<path d="M5872 4114 c-30 -21 -28 -77 3 -82 23 -3 64 23 52 34 -4 4 -13 2 -19
-4 -16 -16 -38 -15 -38 2 0 8 14 17 31 21 21 5 29 11 25 22 -3 8 -6 17 -6 19
0 9 -27 3 -48 -12z m28 -14 c-20 -13 -33 -13 -25 0 3 6 14 10 23 10 15 0 15
-2 2 -10z"/>
<path d="M5663 4080 c-19 -8 -23 -17 -23 -49 0 -22 5 -43 10 -46 6 -4 10 10
10 35 0 33 4 43 20 47 11 3 20 9 20 14 0 11 -8 11 -37 -1z"/>
<path d="M5600 4020 c0 -32 4 -49 10 -45 6 3 10 24 10 45 0 21 -4 42 -10 45
-6 4 -10 -13 -10 -45z"/>
<path d="M5549 4055 c-3 -24 3 -81 9 -87 4 -4 14 -3 22 3 11 8 12 12 3 16 -7
2 -13 14 -13 26 0 23 -19 60 -21 42z"/>
<path d="M5480 4042 c-42 -7 -54 -51 -25 -88 15 -18 16 -16 10 22 -5 32 -3 43
9 47 20 8 29 -7 21 -33 -8 -24 20 -39 38 -21 9 10 9 12 -2 9 -10 -2 -14 7 -15
29 -1 38 -4 40 -36 35z"/>
<path d="M5328 4009 c-28 -16 -23 -49 8 -49 16 0 24 -5 21 -12 -2 -7 -14 -13
-26 -12 -11 0 -21 -3 -21 -8 0 -15 47 -8 61 8 11 14 10 18 -5 30 -11 7 -23 11
-27 8 -5 -3 -9 0 -9 6 0 7 9 14 20 17 11 3 17 9 14 14 -7 11 -15 11 -36 -2z"/>
<path d="M5262 3964 c2 -30 -1 -38 -20 -45 -20 -8 -22 -5 -22 26 0 18 -4 37
-10 40 -6 4 -10 -12 -10 -41 0 -46 0 -46 28 -40 15 4 35 7 46 7 15 0 17 5 12
31 -3 17 -6 37 -6 44 0 8 -5 14 -11 14 -6 0 -9 -15 -7 -36z"/>
<path d="M5122 3960 c-39 -36 -21 -91 23 -74 20 8 19 -6 -2 -23 -17 -13 -17
-14 2 -11 15 3 22 15 29 51 13 76 -7 98 -52 57z m36 -27 c-2 -20 -9 -28 -22
-28 -26 0 -31 19 -11 39 24 24 37 19 33 -11z"/>
<path d="M4980 3935 c-16 -20 -5 -45 20 -45 11 0 20 -4 20 -10 0 -5 -9 -10
-20 -10 -11 0 -20 -4 -20 -10 0 -15 36 -12 50 5 16 20 5 45 -20 45 -11 0 -20
5 -20 10 0 6 9 10 20 10 11 0 20 5 20 10 0 15 -36 12 -50 -5z"/>
<path d="M4913 3929 c-13 -5 -23 -17 -23 -28 0 -13 8 -21 23 -23 28 -4 25 -21
-5 -30 -22 -6 -22 -6 3 -7 29 -1 55 22 44 39 -3 5 -15 10 -26 10 -12 0 -19 5
-16 13 2 6 11 11 21 9 9 -2 16 2 16 7 0 16 -13 19 -37 10z"/>
<path d="M4700 3865 c0 -69 17 -90 22 -27 4 49 31 51 38 2 l6 -35 7 28 c10 36
-8 71 -34 64 -14 -4 -19 0 -19 14 0 10 -4 19 -10 19 -6 0 -10 -28 -10 -65z"/>
<path d="M4816 3907 c-12 -9 -17 -23 -14 -47 2 -28 8 -36 27 -38 13 -2 28 2
35 8 8 9 5 11 -13 8 -33 -4 -39 20 -7 28 29 7 36 38 10 48 -20 8 -17 8 -38 -7z
m34 -17 c0 -5 -7 -10 -16 -10 -8 0 -12 5 -9 10 3 6 10 10 16 10 5 0 9 -4 9
-10z"/>
<path d="M4618 3869 c-13 -7 -18 -22 -18 -50 0 -39 1 -40 32 -37 17 2 33 10
36 18 4 12 2 13 -9 3 -17 -17 -39 -16 -39 1 0 8 14 19 31 25 26 9 29 13 19 31
-12 22 -26 25 -52 9z m32 -19 c0 -5 -7 -10 -15 -10 -8 0 -15 5 -15 10 0 6 7
10 15 10 8 0 15 -4 15 -10z"/>
<path d="M4556 3835 c-7 -26 -36 -25 -36 1 0 8 -4 14 -10 14 -5 0 -10 -20 -10
-44 0 -25 5 -48 10 -51 6 -4 10 5 10 19 0 30 15 34 29 9 13 -23 17 -17 24 35
5 45 -7 58 -17 17z"/>
<path d="M4387 3823 c-14 -13 -6 -41 13 -46 26 -7 26 -27 1 -27 -11 0 -23 -4
-26 -10 -7 -11 24 -13 49 -4 23 9 20 45 -4 51 -11 3 -20 9 -20 14 0 5 9 9 20
9 11 0 20 5 20 10 0 11 -43 14 -53 3z"/>
<path d="M4327 3803 c-11 -3 -16 -10 -13 -20 3 -8 6 -26 6 -39 0 -13 5 -24 10
-24 6 0 10 16 10 35 0 19 5 35 10 35 6 0 10 5 10 10 0 10 -3 11 -33 3z"/>
<path d="M4260 3780 c0 -11 -2 -20 -4 -20 -2 0 -11 -3 -20 -6 -10 -4 -16 -1
-16 9 0 9 -4 19 -10 22 -15 9 -12 -58 3 -79 10 -14 18 -15 40 -7 24 9 27 16
27 56 0 25 -4 45 -10 45 -5 0 -10 -9 -10 -20z m-3 -57 c-15 -15 -37 -11 -37 7
0 10 31 19 43 12 5 -2 2 -11 -6 -19z"/>
<path d="M4123 3770 c-21 -8 -23 -16 -23 -75 0 -42 4 -64 10 -60 6 3 10 15 10
26 0 12 7 19 18 19 25 0 42 20 42 50 0 24 -16 51 -29 49 -4 0 -16 -4 -28 -9z
m35 -40 c4 -23 -15 -43 -30 -34 -10 6 -11 48 -1 58 12 12 28 0 31 -24z"/>
<path d="M3968 3703 c-4 -49 -28 -57 -28 -9 0 20 -4 36 -10 36 -13 0 -13 -77
0 -85 5 -3 21 -3 35 1 22 5 25 11 25 50 0 53 -18 59 -22 7z"/>
<path d="M7335 3719 c-49 -11 -164 -35 -254 -54 -140 -29 -169 -39 -194 -62
-98 -92 -63 -233 57 -233 55 0 435 80 489 102 55 24 92 63 108 118 15 49 6 85
-31 121 -33 34 -48 35 -175 8z m-85 -150 c0 -36 -4 -49 -12 -47 -7 3 -14 14
-16 26 -5 32 -24 27 -20 -5 2 -15 -2 -28 -9 -30 -9 -3 -13 7 -13 30 0 38 23
56 46 36 11 -9 14 -6 14 15 0 14 2 26 5 26 3 0 5 -23 5 -51z m120 2 c0 -42
-19 -65 -47 -58 -15 3 -14 5 6 14 20 8 21 11 8 16 -17 6 -23 47 -10 60 3 4 15
7 25 7 14 0 18 -8 18 -39z m-64 5 c7 -31 -1 -46 -27 -46 -14 0 -19 7 -19 29 0
26 9 38 32 40 4 1 10 -10 14 -23z m-246 -5 c0 -5 -5 -11 -11 -13 -6 -2 -11
-16 -11 -30 0 -30 -33 -67 -47 -52 -5 5 -11 26 -14 47 -4 28 -2 37 9 37 8 0
14 -4 14 -10 0 -19 28 -10 33 10 5 20 27 29 27 11z m110 -30 c0 -26 -14 -41
-40 -41 -9 0 -19 57 -12 65 3 3 16 5 29 5 19 0 23 -5 23 -29z m-68 -12 c5 -32
-9 -46 -37 -35 -18 7 -20 37 -3 54 20 20 36 13 40 -19z"/>
<path d="M7274 3569 c-3 -6 -1 -16 5 -22 8 -8 11 -5 11 11 0 24 -5 28 -16 11z"/>
<path d="M7000 3510 c0 -19 3 -21 12 -12 9 9 9 15 0 24 -9 9 -12 7 -12 -12z"/>
<path d="M7130 3540 c0 -11 5 -20 10 -20 6 0 10 9 10 20 0 11 -4 20 -10 20 -5
0 -10 -9 -10 -20z"/>
<path d="M7070 3539 c0 -5 5 -7 10 -4 6 3 10 8 10 11 0 2 -4 4 -10 4 -5 0 -10
-5 -10 -11z"/>
<path d="M7070 3510 c0 -5 5 -10 10 -10 6 0 10 5 10 10 0 6 -4 10 -10 10 -5 0
-10 -4 -10 -10z"/>
<path d="M3691 3696 c-1 -16 4 -46 11 -68 9 -31 9 -44 -1 -60 -10 -16 -10 -19
1 -16 12 4 56 108 57 136 2 24 -17 2 -24 -29 -8 -37 -16 -31 -32 24 -10 37
-11 38 -12 13z"/>
<path d="M3868 3683 c-4 -49 -28 -57 -28 -9 0 20 -4 36 -10 36 -5 0 -10 -20
-10 -45 0 -47 4 -50 48 -39 18 5 22 13 22 50 0 53 -18 59 -22 7z"/>
<path d="M4007 3676 c-4 -10 -5 -21 -2 -24 9 -9 17 6 13 25 -3 17 -4 17 -11
-1z"/>
<path d="M3597 3652 c-30 -33 -16 -82 25 -82 23 0 50 43 46 72 -4 30 -47 36
-71 10z m51 -29 c-2 -20 -9 -29 -25 -31 -18 -3 -23 1 -23 21 0 29 7 37 32 37
15 0 19 -6 16 -27z"/>
<path d="M3539 3646 c-3 -4 -58 -12 -101 -15 -12 -1 -9 -131 2 -131 6 0 10 11
10 25 0 18 4 23 16 18 22 -8 44 22 44 60 0 43 24 28 31 -19 7 -46 9 -44 16 19
4 41 -3 58 -18 43z m-51 -53 c-4 -36 -38 -45 -38 -10 0 27 7 37 27 37 10 0 13
-9 11 -27z"/>
<path d="M3123 3610 c-19 -8 -23 -17 -22 -47 1 -21 5 -51 9 -68 l8 -30 1 32
c1 26 6 34 26 39 34 8 48 29 41 59 -7 26 -24 30 -63 15z m47 -29 c0 -17 -18
-31 -41 -31 -10 0 -12 33 -2 43 14 15 43 7 43 -12z"/>
<path d="M3333 3612 c-20 -3 -23 -9 -23 -50 0 -34 3 -43 10 -32 5 8 10 25 10
37 0 12 8 26 17 32 22 12 15 18 -14 13z"/>
<path d="M2807 3579 c-48 -25 -77 -72 -77 -124 0 -53 21 -82 69 -95 46 -12 83
-1 123 37 57 54 60 133 6 178 -35 30 -70 31 -121 4z m43 -69 c0 -5 -7 -7 -15
-4 -8 4 -15 8 -15 10 0 2 7 4 15 4 8 0 15 -4 15 -10z m23 -54 c-20 -28 -38
-35 -29 -11 3 10 -1 15 -12 16 -9 0 -1 6 18 13 43 16 47 14 23 -18z"/>
<path d="M3221 3581 c-12 -12 -21 -26 -21 -32 0 -22 21 -49 39 -49 27 0 43 24
39 62 -4 40 -28 48 -57 19z m43 -16 c8 -23 -4 -45 -25 -45 -19 0 -24 16 -13
44 8 20 30 21 38 1z"/>
<path d="M4233 3303 c-21 -8 -15 -44 7 -50 11 -3 20 -9 20 -14 0 -5 -9 -9 -20
-9 -11 0 -20 -4 -20 -10 0 -15 27 -12 44 6 21 21 20 35 -4 41 -23 6 -27 23 -5
23 8 0 15 5 15 10 0 10 -16 12 -37 3z"/>
<path d="M4126 3268 c-32 -46 -10 -86 38 -68 36 13 33 21 -5 13 -25 -5 -31 -3
-27 8 3 8 18 16 34 19 27 5 30 10 26 40 -3 19 -51 10 -66 -12z m49 -9 c-4 -5
-16 -9 -28 -9 -21 1 -21 1 -3 15 20 15 41 11 31 -6z"/>
<path d="M4056 3270 c-35 -11 -46 -25 -46 -64 0 -26 3 -28 30 -24 19 3 29 1
27 -6 -2 -6 -13 -12 -25 -14 -27 -4 -29 -22 -2 -22 11 0 26 10 34 23 14 23 29
118 17 116 -3 0 -19 -5 -35 -9z m12 -42 c-4 -29 -38 -38 -38 -10 0 22 8 32 27
32 9 0 13 -8 11 -22z"/>
<path d="M3925 3240 c-4 -7 2 -9 19 -4 20 5 26 2 26 -9 0 -9 -10 -17 -22 -19
-28 -4 -33 -51 -7 -56 26 -5 50 27 47 62 -2 25 -8 32 -30 34 -14 2 -29 -2 -33
-8z m45 -49 c0 -14 -18 -23 -31 -15 -8 4 -7 9 2 15 18 11 29 11 29 0z"/>
<path d="M3842 3228 c-22 -22 -14 -48 13 -48 16 0 25 -6 25 -15 0 -9 -9 -15
-22 -15 -16 0 -19 -3 -11 -11 8 -8 17 -8 33 1 27 14 22 44 -8 48 -28 4 -24 26
6 30 12 2 20 8 17 13 -9 13 -39 11 -53 -3z"/>
<path d="M3762 3208 c-22 -22 -14 -48 14 -48 32 0 27 -22 -7 -30 -13 -3 -19
-9 -13 -12 15 -10 58 15 62 35 3 12 -5 19 -27 23 -33 7 -33 24 0 24 10 0 19 5
19 10 0 14 -33 13 -48 -2z"/>
<path d="M3666 3184 c-17 -16 -20 -41 -10 -68 7 -18 41 -21 64 -6 21 13 5 23
-19 11 -14 -8 -22 -8 -27 0 -8 13 13 29 39 29 9 0 17 4 17 10 0 5 -13 7 -32 3
-22 -4 -29 -3 -24 5 4 7 18 12 32 12 14 0 22 4 19 10 -9 15 -42 12 -59 -6z"/>
<path d="M3449 3163 c-1 -10 -1 -21 -1 -24 1 -4 2 -23 4 -43 3 -46 18 -47 18
-2 0 19 5 38 10 41 6 3 10 11 10 16 0 6 -4 7 -10 4 -5 -3 -10 1 -10 9 0 22
-20 20 -21 -1z"/>
<path d="M3590 3170 c0 -5 5 -10 10 -10 6 0 10 -16 10 -35 0 -19 5 -35 10 -35
6 0 10 20 10 45 0 38 -3 45 -20 45 -11 0 -20 -4 -20 -10z"/>
<path d="M3507 3163 c-2 -4 -1 -28 3 -53 7 -44 8 -44 9 -9 1 35 21 66 34 52 4
-3 7 -21 7 -40 0 -18 5 -33 11 -33 6 0 9 17 7 43 -3 39 -5 42 -35 45 -17 2
-33 -1 -36 -5z"/>
<path d="M3133 3133 c-22 -4 -23 -9 -21 -76 0 -40 3 -58 5 -41 3 24 11 32 36
40 22 6 33 16 35 32 3 22 -13 54 -27 51 -3 -1 -16 -4 -28 -6z m35 -40 c-2 -10
-13 -19 -26 -21 -17 -3 -22 2 -22 17 0 16 6 21 26 21 19 0 25 -5 22 -17z"/>
<path d="M3317 3123 c-14 -14 -6 -34 18 -43 30 -11 33 -30 5 -30 -11 0 -20 -4
-20 -10 0 -13 16 -13 41 0 27 15 24 35 -8 49 -27 13 -23 25 12 34 14 3 10 5
-11 6 -17 0 -34 -2 -37 -6z"/>
<path d="M3232 3104 c-27 -18 -31 -78 -6 -88 19 -7 50 8 58 30 11 29 6 62 -10
68 -20 8 -16 9 -42 -10z m38 -34 c0 -33 -24 -50 -42 -32 -8 8 -8 18 0 37 16
36 42 33 42 -5z"/>
<path d="M2799 3086 c-41 -28 -64 -74 -64 -130 0 -106 159 -117 219 -15 19 32
21 107 3 130 -34 45 -104 51 -158 15z m61 -62 c0 -2 -9 -4 -20 -4 -11 0 -20 4
-20 9 0 5 9 7 20 4 11 -3 20 -7 20 -9z m34 -33 c3 -4 -6 -19 -21 -32 -20 -18
-25 -20 -20 -6 5 13 1 17 -16 18 -19 1 -18 2 8 14 36 17 42 18 49 6z"/>
<path d="M1590 4010 c-12 -8 -9 -10 13 -10 15 0 27 5 27 10 0 13 -20 13 -40 0z"/>
<path d="M1648 4013 c6 -2 18 -2 25 0 6 3 1 5 -13 5 -14 0 -19 -2 -12 -5z"/>
<path d="M1485 3970 c-39 -26 -26 -26 22 0 21 11 31 20 23 20 -8 0 -28 -9 -45
-20z"/>
<path d="M1426 3935 c-11 -8 -15 -15 -9 -15 6 0 16 7 23 15 16 19 11 19 -14 0z"/>
<path d="M1845 3902 c-24 -5 -45 -21 -45 -33 0 -5 11 -2 25 7 45 29 126 -7
148 -66 4 -12 6 -11 6 3 2 51 -74 102 -134 89z"/>
<path d="M1408 3843 c-34 -37 -62 -82 -55 -89 3 -3 12 8 21 24 8 16 27 44 42
61 32 38 27 41 -8 4z"/>
<path d="M1450 3783 c-49 -18 -97 -94 -86 -138 10 -40 26 -29 26 18 1 83 85
135 148 91 12 -8 22 -11 22 -5 0 28 -68 49 -110 34z"/>
<path d="M1770 3654 c-77 -21 -157 -63 -191 -102 -28 -31 -32 -65 -6 -44 23
18 260 74 313 74 13 0 26 10 33 24 27 60 -33 79 -149 48z"/>
<path d="M6862 2074 c-12 -8 -27 -25 -33 -37 -10 -18 -7 -18 16 6 15 15 35 28
44 28 57 4 93 -16 120 -69 23 -43 28 -27 7 23 -24 57 -105 83 -154 49z"/>
<path d="M6514 2051 c-28 -17 -72 -96 -60 -108 3 -3 11 10 19 29 35 83 132
106 159 39 7 -17 12 -21 15 -12 3 7 -3 25 -14 40 -25 33 -76 39 -119 12z"/>
<path d="M6371 1944 c0 -11 3 -14 6 -6 3 7 2 16 -1 19 -3 4 -6 -2 -5 -13z"/>
<path d="M6550 1783 c-29 -11 -60 -54 -56 -76 3 -12 7 -42 11 -65 6 -51 32
-106 72 -152 77 -93 230 -93 335 -2 47 42 90 140 92 209 1 59 -4 66 -64 83
-37 10 -364 13 -390 3z m416 -35 c16 -15 14 -17 -22 -27 -88 -23 -208 -31
-294 -20 -109 15 -136 24 -120 44 18 21 40 23 237 22 156 -2 185 -4 199 -19z"/>
<path d="M4548 1943 c7 -3 16 -2 19 1 4 3 -2 6 -13 5 -11 0 -14 -3 -6 -6z"/>
<path d="M8610 10222 c0 -46 43 -252 75 -358 79 -260 193 -477 383 -728 94
-125 165 -201 262 -279 41 -34 77 -64 80 -67 3 -4 48 -35 100 -69 122 -80 327
-180 455 -221 89 -28 248 -70 268 -70 4 0 7 54 7 119 l0 120 -57 16 c-292 80
-506 199 -756 420 -204 179 -427 528 -516 805 -35 107 -70 261 -71 303 l0 27
-115 0 c-105 0 -115 -2 -115 -18z"/>
<path d="M8428 8893 c7 -3 16 -2 19 1 4 3 -2 6 -13 5 -11 0 -14 -3 -6 -6z"/>
<path d="M8699 8633 c-13 -16 -12 -17 4 -4 9 7 17 15 17 17 0 8 -8 3 -21 -13z"/>
<path d="M8770 8550 c0 -5 4 -10 9 -10 6 0 13 5 16 10 3 6 -1 10 -9 10 -9 0
-16 -4 -16 -10z"/>
<path d="M9040 8335 c0 -8 7 -15 15 -15 8 0 15 4 15 9 0 5 -7 11 -15 15 -9 3
-15 0 -15 -9z"/>
<path d="M9288 8233 c7 -3 16 -2 19 1 4 3 -2 6 -13 5 -11 0 -14 -3 -6 -6z"/>
<path d="M9440 8175 c0 -8 7 -15 15 -15 8 0 15 4 15 9 0 5 -7 11 -15 15 -9 3
-15 0 -15 -9z"/>
<path d="M8306 7971 c-3 -5 15 -11 40 -14 24 -2 53 -12 63 -21 23 -21 37 -21
20 1 -27 32 -110 55 -123 34z"/>
<path d="M8116 7953 c-6 -14 -5 -15 5 -6 7 7 10 15 7 18 -3 3 -9 -2 -12 -12z"/>
<path d="M9186 7880 c-38 -27 -62 -57 -52 -67 6 -6 54 27 80 55 30 34 14 41
-28 12z"/>
<path d="M8230 7825 c-13 -16 -10 -18 33 -15 39 2 70 -21 92 -69 30 -67 50
-46 21 23 -27 64 -113 100 -146 61z"/>
<path d="M8051 7774 c0 -11 3 -14 6 -6 3 7 2 16 -1 19 -3 4 -6 -2 -5 -13z"/>
<path d="M9122 7700 c0 -14 2 -19 5 -12 2 6 2 18 0 25 -3 6 -5 1 -5 -13z"/>
<path d="M8668 7644 c-31 -16 -39 -41 -10 -29 58 26 126 11 142 -30 12 -31 30
-24 30 10 0 55 -98 84 -162 49z"/>
<path d="M8270 7532 c0 -24 55 -89 102 -118 55 -35 149 -57 209 -49 53 7 101
37 84 53 -5 5 -56 21 -112 35 -56 14 -137 42 -179 62 -87 40 -104 43 -104 17z"/>
<path d="M4638 7473 c6 -2 18 -2 25 0 6 3 1 5 -13 5 -14 0 -19 -2 -12 -5z"/>
<path d="M7983 6332 c-12 -2 -27 -10 -35 -19 -12 -15 -11 -15 11 -4 14 8 39
11 59 8 37 -7 38 -5 7 10 -11 5 -30 7 -42 5z"/>
<path d="M7604 6206 c-19 -19 -34 -39 -34 -45 0 -7 14 4 31 24 17 19 45 39 63
44 l31 9 -28 1 c-20 1 -39 -9 -63 -33z"/>
<path d="M7951 6194 c-12 -15 -21 -32 -21 -38 0 -6 10 1 21 17 24 32 72 37
101 10 16 -15 18 -15 18 0 0 21 -30 37 -69 37 -20 0 -36 -8 -50 -26z"/>
<path d="M7673 6129 c-32 -9 -63 -42 -63 -66 0 -7 5 -13 10 -13 6 0 10 6 10
14 0 18 47 56 70 56 10 0 29 -9 44 -21 27 -21 35 -14 14 13 -18 22 -47 28 -85
17z"/>
<path d="M8020 5989 c-81 -49 -207 -91 -282 -93 -32 0 -58 -2 -58 -4 0 -2 19
-12 43 -22 119 -54 299 7 358 121 11 22 16 39 12 39 -5 -1 -37 -19 -73 -41z"/>
<path d="M660 1315 c14 -17 13 -18 -4 -12 -16 6 -17 5 -6 -8 13 -16 35 -21 26
-6 -4 5 0 11 6 13 8 3 3 10 -12 18 -24 13 -24 12 -10 -5z"/>
<path d="M727 1216 c-4 -10 0 -12 14 -9 10 3 16 9 13 14 -8 13 -21 11 -27 -5z"/>
</g>
</svg>
