<?xml version="1.0" standalone="no"?>
<!DOCTYPE svg PUBLIC "-//W3C//DTD SVG 20010904//EN"
 "http://www.w3.org/TR/2001/REC-SVG-20010904/DTD/svg10.dtd">
<svg version="1.0" xmlns="http://www.w3.org/2000/svg"
 width="1024.000000pt" height="1024.000000pt" viewBox="0 0 1024.000000 1024.000000"
 preserveAspectRatio="xMidYMid meet">

<g transform="translate(0.000000,1024.000000) scale(0.100000,-0.100000)"
fill="#000000" stroke="none">
<path d="M1 9673 l0 -568 102 -75 c468 -346 841 -638 1419 -1111 l148 -121
-15 -28 c-24 -46 -101 -153 -129 -179 l-25 -23 -78 25 c-43 13 -112 35 -153
47 -82 24 -191 60 -435 146 -88 30 -187 64 -220 74 -292 91 -389 120 -401 120
-8 0 -40 8 -72 19 -31 10 -76 21 -100 25 l-42 6 0 -127 c0 -142 -7 -127 79
-175 63 -36 369 -195 706 -368 121 -62 272 -141 335 -175 114 -62 451 -243
645 -345 55 -29 154 -82 220 -118 66 -36 140 -76 164 -89 l45 -23 -3 -168 c-1
-92 -5 -169 -7 -171 -8 -8 -184 75 -459 218 -580 300 -1559 776 -1533 744 12
-15 11 -15 -9 -3 -12 8 -19 18 -17 22 5 8 -23 12 -65 8 -13 -1 -21 3 -17 8 4
6 -2 8 -14 5 -11 -3 -27 0 -35 7 -8 6 -19 9 -25 5 -7 -4 -10 -181 -10 -543 l0
-537 213 -44 c116 -24 266 -57 332 -72 66 -16 356 -81 645 -144 289 -64 597
-132 685 -151 88 -20 195 -45 238 -57 l77 -20 -7 -96 c-4 -53 -7 -107 -6 -121
2 -14 4 -44 6 -67 l4 -43 -56 0 c-31 0 -94 4 -141 10 -180 20 -1923 170 -1977
170 -10 0 -13 -94 -13 -437 l0 -436 112 7 c433 26 1226 78 1388 91 107 8 208
15 224 15 l29 0 -45 43 c-147 138 -133 329 30 425 40 23 58 27 127 27 71 0 86
-3 135 -31 74 -42 110 -100 117 -186 6 -79 -8 -132 -52 -197 l-35 -50 45 3
c34 3 48 -1 54 -13 5 -9 10 -72 10 -140 1 -69 4 -128 7 -133 3 -4 -1 -8 -8 -8
-9 0 -9 -3 2 -10 11 -7 11 -10 2 -10 -7 0 -11 -4 -7 -10 3 -5 -11 -14 -32 -19
-62 -16 -672 -143 -1398 -291 -326 -66 -651 -135 -687 -146 -17 -5 -18 -39
-18 -540 0 -519 1 -534 19 -525 10 6 21 8 24 4 3 -3 13 2 22 11 9 9 24 16 33
16 15 0 15 -2 2 -10 -32 -21 2 -8 87 31 48 23 112 52 141 65 30 13 51 28 47
34 -3 5 0 7 7 5 13 -5 105 37 458 207 80 39 233 112 340 163 107 51 254 121
325 155 339 163 613 284 666 294 l34 7 -22 -18 c-21 -17 -22 -26 -25 -196 -2
-112 1 -178 7 -180 6 -2 -348 -183 -785 -402 -437 -218 -799 -401 -805 -405
-5 -4 -137 -71 -292 -150 l-283 -143 0 -689 c0 -378 3 -688 8 -688 4 0 77 57
162 126 85 69 254 203 375 299 121 95 293 231 381 302 89 70 213 168 275 218
63 49 302 240 531 423 253 202 422 331 429 326 7 -4 9 -3 6 3 -8 13 18 37 31
29 5 -3 18 4 28 17 l19 22 -25 -20 -25 -20 19 22 c10 13 22 20 27 17 5 -2 26
6 47 20 l40 25 28 -28 c26 -26 157 -111 170 -111 5 0 19 -11 49 -38 7 -6 24
-12 36 -12 12 0 28 -8 36 -17 8 -10 12 -13 9 -8 -2 6 4 11 14 11 13 0 -16 -36
-90 -116 -146 -155 -1300 -1303 -1900 -1890 -593 -580 -680 -669 -680 -692 0
-17 14 -18 186 -18 l186 0 68 49 c113 83 672 508 717 546 39 33 178 201 353
425 41 52 80 101 87 108 7 7 13 17 13 20 0 4 10 18 23 32 28 32 148 190 256
339 86 119 95 131 193 269 32 44 58 87 58 95 0 9 16 32 35 53 19 20 35 41 35
46 0 14 27 38 34 30 4 -3 4 1 0 11 -4 12 4 26 25 46 17 16 31 36 31 44 0 8 7
20 15 27 8 7 12 17 8 23 -4 6 0 8 10 4 12 -5 17 -1 17 13 0 11 6 20 13 20 7 0
17 9 22 19 19 36 250 364 284 403 18 21 37 35 42 32 5 -3 7 1 4 8 -4 9 7 13
35 15 22 0 40 -3 40 -9 0 -5 4 -7 9 -3 15 8 93 -12 102 -27 7 -10 9 -10 9 1 0
11 3 12 11 4 6 -6 13 -59 16 -117 3 -58 10 -106 14 -106 5 0 9 15 9 33 0 17 7
50 15 72 l14 40 1 -67 c0 -54 3 -68 15 -68 12 0 15 14 15 68 0 38 4 62 8 54 5
-7 16 -10 25 -7 12 5 16 -1 19 -31 5 -56 28 -57 28 -1 0 48 5 54 78 101 37 23
42 24 33 8 -10 -19 -8 -20 37 -16 88 7 117 15 157 43 50 35 155 61 155 39 0
-6 7 -8 15 -4 41 15 12 -37 -340 -599 -155 -247 -363 -578 -462 -735 -176
-279 -245 -392 -631 -1030 l-191 -315 521 -3 c287 -1 523 0 525 2 7 7 149 376
421 1096 87 229 227 607 282 760 23 63 48 129 56 147 8 17 14 34 14 37 0 29
217 499 228 492 7 -4 164 8 214 17 10 2 25 12 33 23 26 33 -70 -226 -170 -461
-25 -60 -80 -198 -122 -305 -41 -107 -83 -215 -93 -240 -30 -72 -168 -427
-255 -655 -89 -232 -104 -271 -150 -390 -58 -148 -195 -514 -195 -520 0 -3
197 -5 438 -5 l439 0 12 73 c49 278 183 980 212 1110 34 151 90 416 105 502 8
43 18 82 22 85 5 3 32 111 61 240 67 298 67 299 100 297 17 -1 25 3 23 11 -4
20 17 52 35 52 10 0 14 6 11 18 -4 15 0 17 24 14 23 -4 27 -1 22 12 -7 19 21
46 46 45 10 0 11 -2 3 -6 -7 -2 -13 -13 -13 -23 0 -13 5 -17 20 -13 11 3 20 9
20 13 0 5 9 12 20 15 16 5 19 12 14 28 -4 15 -3 19 4 12 5 -5 12 -19 15 -30 4
-18 5 -17 6 3 0 13 6 20 11 17 6 -3 10 4 10 16 0 12 3 19 6 16 10 -10 -15
-314 -125 -1507 -17 -179 -42 -455 -56 -615 -14 -160 -28 -311 -31 -337 l-6
-48 446 0 c350 0 446 3 446 13 0 16 -55 496 -80 702 -10 88 -31 273 -45 410
-14 138 -37 358 -51 490 -14 132 -27 263 -29 290 -8 103 -24 354 -30 460 -3
61 -8 142 -11 181 l-6 70 63 17 c35 9 75 15 89 13 15 -2 28 3 32 13 6 14 7 14
7 -1 1 -10 13 -19 30 -23 28 -6 31 -11 51 -103 12 -53 46 -200 75 -327 119
-510 207 -933 325 -1570 44 -237 90 -476 101 -532 l22 -103 443 0 443 0 -25
67 c-14 38 -41 108 -61 158 -19 50 -42 109 -51 132 -9 23 -21 39 -26 36 -5 -4
-6 -1 -3 4 7 11 -17 88 -51 161 -11 24 -22 40 -24 35 -3 -4 -3 -2 -1 5 1 8 0
25 -3 39 -5 18 -9 21 -15 11 -9 -14 -13 5 -10 47 2 17 0 18 -9 5 -9 -12 -10
-9 -6 15 l6 30 -15 -25 c-17 -29 -19 -22 -5 15 5 14 6 24 2 21 -5 -3 -14 11
-21 30 -7 19 -16 32 -21 29 -8 -5 -26 51 -22 68 1 4 -2 7 -7 7 -14 0 -53 114
-46 135 5 15 5 17 -3 6 -8 -11 -13 -4 -22 30 -7 24 -16 52 -22 63 -5 10 -24
59 -42 110 -18 50 -75 199 -126 331 -139 358 -190 497 -185 506 3 4 1 9 -5 11
-6 2 -12 20 -15 41 -3 20 -28 101 -56 178 -28 77 -49 142 -48 144 9 9 243 35
249 28 10 -11 122 -266 260 -593 228 -542 575 -1322 761 -1710 l79 -165 767
-2 768 -3 -55 53 c-31 28 -157 142 -280 252 -212 189 -302 271 -376 340 -60
57 -84 75 -97 72 -6 -1 -12 5 -12 13 0 8 -8 23 -17 32 -23 23 -35 23 -17 1 13
-15 11 -16 -13 -10 -22 6 -26 4 -22 -8 8 -19 -14 -47 -30 -38 -6 4 -4 -1 4
-11 8 -11 16 -14 18 -7 2 6 15 11 28 11 22 0 24 -3 23 -52 -1 -29 -3 -45 -6
-36 -3 14 -9 16 -23 8 -15 -8 -23 -5 -39 16 -12 15 -21 23 -22 18 -1 -5 -4 2
-8 15 -8 30 -31 40 -32 14 -1 -13 -3 -11 -8 7 -4 14 -13 24 -19 22 -7 -1 -12
7 -12 18 0 12 -11 32 -24 45 -13 13 -21 27 -17 31 3 4 0 3 -8 -1 -11 -6 -13
-4 -7 11 5 14 4 16 -4 8 -7 -7 4 -36 41 -100 28 -49 57 -96 64 -104 7 -8 20
-32 29 -53 10 -25 20 -36 27 -31 7 4 9 3 5 -4 -3 -6 9 -36 29 -66 19 -30 35
-57 35 -60 0 -3 14 -28 30 -56 17 -28 30 -54 30 -58 0 -9 -22 25 -51 78 -13
25 -26 47 -29 50 -3 3 -12 16 -19 30 -14 23 -143 236 -346 570 -48 80 -103
167 -122 193 -84 119 -639 1027 -635 1039 1 5 -3 8 -9 8 -5 0 -7 4 -4 10 3 5
1 10 -5 10 -6 0 -8 5 -5 10 3 6 1 10 -4 10 -6 0 -11 6 -11 13 0 7 -25 53 -55
101 -75 119 -87 143 -72 143 7 0 47 10 90 22 93 25 192 73 209 101 7 11 20 20
28 20 8 0 29 15 45 33 l30 33 100 -6 c82 -5 116 -13 187 -42 70 -28 84 -31 75
-16 -7 10 -15 18 -18 18 -4 0 -10 8 -13 18 -4 9 21 -10 55 -43 34 -33 56 -51
50 -40 -6 11 -28 37 -50 59 -22 21 -37 45 -34 52 3 8 9 11 14 8 5 -3 9 -2 8 3
-6 32 24 55 76 60 49 4 165 34 165 43 0 24 144 16 160 -9 3 -5 43 -37 90 -72
80 -60 324 -256 470 -378 36 -29 87 -72 114 -95 69 -58 254 -214 361 -304 49
-43 114 -97 145 -122 30 -24 61 -50 68 -57 7 -7 75 -63 150 -125 75 -62 139
-115 142 -118 3 -3 63 -55 135 -115 175 -148 183 -155 229 -196 46 -40 292
-247 319 -268 16 -13 17 23 17 748 l0 762 -297 144 c-163 80 -297 145 -298
145 -2 0 -110 52 -241 116 -267 130 -444 214 -449 214 -15 0 -195 128 -216
153 -44 55 -81 133 -145 307 -35 98 -65 155 -95 180 l-24 20 25 -9 c43 -15
406 -184 615 -286 613 -299 722 -350 743 -346 6 1 12 -3 12 -8 0 -5 27 -18 59
-27 33 -10 57 -22 55 -26 -5 -8 11 -12 31 -8 9 1 40 -11 152 -61 78 -34 73
-68 73 507 l0 514 -22 5 c-35 8 -498 98 -823 159 -159 31 -346 67 -414 81 -68
14 -131 25 -140 24 -16 -1 150 -37 483 -105 104 -21 185 -39 180 -41 -10 -3
-800 153 -819 162 -5 3 13 3 40 1 l50 -5 -54 14 c-30 7 -57 18 -60 24 -4 5
-81 26 -171 47 -163 36 -218 53 -130 40 25 -4 40 -4 34 1 -7 5 -14 68 -19 163
-4 90 -12 161 -18 170 -10 13 -10 13 4 3 9 -7 19 -10 22 -6 4 3 -1 12 -11 19
-30 22 4 25 154 16 76 -5 141 -5 142 0 2 4 25 9 50 10 l47 1 -40 7 c-45 9 -34
8 240 -10 203 -14 227 -20 60 -15 -177 5 -135 0 245 -30 280 -22 607 -48 893
-71 l77 -7 0 407 0 406 -34 0 c-18 0 -100 -7 -182 -15 -222 -22 -1028 -95
-1049 -95 -10 0 -16 -3 -13 -6 3 -3 98 2 212 11 113 9 213 15 223 13 10 -2
-130 -16 -312 -31 -181 -15 -350 -30 -375 -32 -33 -4 -40 -3 -25 4 34 16 -8
18 -209 7 -90 -5 -126 -4 -121 3 3 6 0 11 -7 11 -9 0 -9 3 2 10 13 8 12 10 -4
10 -15 0 -17 3 -9 11 8 8 10 57 7 163 -3 83 -7 157 -9 163 -3 7 6 15 18 18
107 24 403 98 407 102 3 3 -17 2 -45 -2 -93 -14 -40 4 120 40 375 84 809 175
818 172 6 -2 -16 -9 -49 -16 -32 -7 -95 -21 -139 -31 -44 -10 -146 -33 -228
-51 -81 -18 -145 -34 -143 -36 2 -2 100 17 217 42 118 26 264 58 324 71 108
23 536 118 584 130 20 4 22 7 10 15 -9 6 -10 9 -1 9 9 0 12 103 12 480 0 264
-2 480 -5 480 -2 0 -24 -9 -47 -20 -40 -18 -443 -188 -698 -295 -63 -26 -137
-58 -165 -70 -104 -47 -590 -244 -855 -347 -30 -11 -109 -45 -174 -75 -92 -42
-121 -51 -128 -41 -4 7 -6 19 -3 26 2 6 0 12 -5 12 -6 0 -10 4 -10 9 0 5 32
20 70 32 39 12 73 25 75 29 3 4 7 29 11 56 10 81 11 88 22 115 6 15 8 30 5 33
-3 3 0 12 7 21 7 8 10 24 7 35 -3 11 0 20 6 20 8 0 7 3 -1 9 -8 5 -12 17 -10
27 2 11 -2 24 -10 29 -10 8 22 29 130 84 192 99 280 146 358 191 36 21 92 51
126 68 34 17 76 43 93 58 18 15 258 141 534 280 276 139 539 272 584 296 l83
43 0 718 c0 394 -2 717 -5 717 -5 0 -137 -109 -255 -210 -30 -26 -127 -107
-215 -180 -88 -74 -162 -136 -165 -139 -5 -6 -192 -164 -285 -241 -75 -62
-369 -314 -385 -329 -24 -24 -537 -450 -640 -532 -52 -41 -158 -124 -235 -183
-77 -60 -145 -113 -151 -118 -8 -6 -29 3 -60 23 -80 55 -166 81 -281 87 -57 2
-103 8 -103 12 0 3 11 17 25 30 14 13 23 30 20 38 -2 7 -1 11 4 8 11 -7 33 18
25 27 -4 3 -36 -20 -72 -53 -48 -44 -72 -58 -93 -58 -23 1 -26 3 -14 12 12 9
9 11 -17 12 -87 1 -175 8 -195 16 -22 7 -23 13 -23 113 0 63 -4 105 -10 105
-6 0 -10 -33 -10 -77 -1 -49 -6 -87 -15 -103 -13 -23 -14 -19 -15 60 -2 156
-28 162 -31 6 -1 -53 -5 -99 -10 -102 -5 -3 -10 -24 -10 -47 -2 -41 -2 -40
-13 18 l-12 60 -58 -62 -59 -63 -55 5 c-31 3 -72 8 -92 11 -44 8 -110 49 -110
70 0 8 -5 12 -11 8 -8 -4 -8 -1 -1 12 5 11 7 25 5 32 -3 6 0 12 6 12 6 0 11 4
11 9 0 6 16 37 36 71 19 33 33 64 29 69 -3 5 0 13 6 17 8 4 9 3 5 -4 -4 -7 -5
-12 -2 -12 3 0 26 35 51 78 55 92 111 180 205 322 38 58 101 157 139 220 38
63 179 282 313 487 134 204 308 474 388 599 211 332 310 480 310 468 0 -6 -8
-22 -18 -35 -50 -67 -122 -191 -116 -201 4 -6 3 -8 -4 -4 -6 4 -38 -39 -79
-106 -82 -136 -79 -128 -58 -128 14 0 15 -3 5 -15 -6 -8 -9 -18 -6 -24 3 -5 3
-17 0 -26 -6 -14 -9 -13 -23 9 l-16 25 -44 -70 c-24 -39 -40 -73 -37 -76 3 -4
6 -1 6 5 0 7 7 12 16 12 8 0 13 4 9 9 -7 13 30 73 39 64 4 -4 4 1 0 11 -5 14
-3 17 7 14 8 -3 13 -10 12 -16 -1 -5 3 -9 10 -8 25 4 38 19 35 40 -1 13 5 31
15 40 9 10 17 23 17 29 0 7 4 7 12 -1 10 -10 10 -15 -2 -22 -8 -5 -10 -10 -5
-10 6 1 18 7 28 14 15 12 16 14 2 20 -16 6 -21 41 -6 50 5 4 7 -4 3 -16 -5
-21 -4 -22 13 -8 10 8 26 14 37 12 10 -2 18 2 18 9 0 8 5 7 17 -2 11 -10 14
-10 9 -1 -4 7 -2 12 7 12 8 0 22 11 31 25 15 23 15 25 -1 26 -11 0 -13 3 -5 6
7 3 19 -1 28 -7 12 -11 13 -10 8 5 -5 11 -3 16 2 12 13 -7 63 37 388 348 17
17 94 89 171 160 77 72 160 149 185 172 l45 43 -672 0 c-396 0 -673 -4 -673
-9 0 -5 -61 -139 -136 -298 -75 -158 -164 -349 -199 -423 -174 -376 -510
-1070 -519 -1070 -3 0 31 75 76 168 112 234 149 311 376 792 110 234 228 484
262 555 74 155 130 276 130 281 0 2 -9 4 -21 4 -17 0 -47 -54 -181 -327 -88
-181 -183 -375 -210 -433 -95 -200 -306 -656 -373 -805 -232 -514 -447 -966
-468 -984 -20 -16 -97 -22 -97 -8 0 6 -32 7 -80 3 l-80 -7 29 78 c16 43 69
179 119 303 49 124 138 353 197 510 59 157 110 290 113 295 4 6 8 18 9 28 2
10 8 28 15 40 7 12 13 28 14 36 2 7 18 45 37 85 19 39 42 92 51 118 9 26 20
56 25 65 14 26 81 189 81 197 0 4 23 56 50 116 28 60 50 114 50 120 0 6 13 38
29 73 17 34 53 116 82 182 28 66 62 143 74 170 35 77 55 127 55 136 0 5 -202
9 -459 9 l-459 0 -6 -24 c-9 -36 -86 -494 -85 -503 1 -5 0 -10 -1 -13 -3 -10
-8 -38 -34 -205 -27 -173 -31 -195 -65 -370 -11 -55 -23 -120 -26 -145 -4 -25
-21 -106 -37 -180 -142 -637 -209 -919 -233 -990 l-15 -45 5 40 c2 22 1 34 -4
27 -6 -10 -13 -11 -33 -1 -20 9 -39 8 -89 -5 -35 -8 -81 -14 -101 -13 l-38 2
0 50 c1 28 5 97 11 155 6 58 12 162 14 232 2 70 11 223 20 340 9 117 25 321
34 453 10 132 19 218 20 190 0 -27 -8 -179 -20 -338 -11 -159 -19 -305 -17
-325 2 -20 7 18 11 86 5 67 12 122 16 122 4 0 6 26 5 58 -2 43 -1 49 5 27 7
-25 9 -27 16 -12 4 9 5 31 3 47 -3 17 0 30 5 30 5 0 7 9 4 19 -3 11 1 22 7 24
7 3 17 21 23 40 9 29 8 34 -3 30 -10 -4 -11 1 -1 29 7 18 15 35 18 38 5 4 19
71 34 169 3 19 8 38 10 42 3 3 9 35 14 70 6 35 24 129 41 209 17 80 52 256 79
393 l48 247 -503 0 -503 0 4 -27 c3 -16 12 -125 20 -243 8 -118 20 -273 25
-345 6 -71 17 -224 25 -340 27 -389 45 -628 75 -1014 21 -274 27 -388 19 -397
-16 -20 -101 -34 -194 -33 l-83 1 -17 76 c-9 43 -28 124 -41 182 -44 185 -123
561 -229 1100 -58 289 -128 641 -157 783 l-53 257 -412 0 -412 0 29 -82 c15
-46 82 -240 148 -433 145 -422 228 -658 275 -785 123 -329 396 -1091 415
-1155 3 -11 27 -45 54 -75 55 -61 78 -125 77 -204 l-1 -51 -14 32 c-7 18 -23
37 -34 43 -10 6 -31 29 -44 53 -14 23 -41 55 -61 70 -19 15 -35 37 -35 47 0
11 -6 20 -12 20 -7 0 -38 16 -68 35 l-54 35 35 0 c20 0 57 -6 82 -14 58 -17
53 -6 -10 24 -28 13 -75 24 -119 27 -64 5 -73 8 -83 31 -17 37 -86 221 -225
599 -69 188 -167 449 -218 580 -50 131 -114 297 -142 370 -28 73 -114 290
-191 482 l-140 350 -513 1 c-408 0 -512 -3 -506 -12 4 -7 22 -36 40 -64 18
-28 77 -125 132 -215 273 -450 367 -605 517 -844 140 -225 326 -523 560 -900
34 -55 77 -125 94 -155 18 -30 45 -75 61 -100 16 -25 57 -94 93 -155 35 -60
78 -133 96 -161 41 -65 35 -83 -26 -76 -33 3 -55 0 -79 -13 -18 -10 -32 -21
-30 -24 2 -3 -12 -7 -32 -8 -21 -1 -57 -6 -81 -11 -41 -9 -46 -8 -88 24 -107
82 -211 0 -118 -93 42 -42 43 -47 10 -39 -14 4 -25 2 -25 -4 0 -5 -6 -10 -14
-10 -8 0 -16 -6 -19 -14 -4 -11 -46 -25 -92 -31 -5 0 -9 -7 -7 -14 1 -7 -22 8
-53 35 -67 57 -435 435 -435 446 0 4 -4 7 -8 5 -10 -2 -71 60 -65 67 3 2 -4 7
-14 11 -10 3 -38 31 -63 60 -25 30 -50 53 -57 50 -7 -2 -15 1 -19 7 -5 7 -2 8
7 4 8 -4 6 -1 -3 7 -10 8 -15 17 -11 20 3 4 -6 11 -21 17 -15 5 -24 15 -21 21
4 6 0 9 -11 7 -13 -2 -18 2 -16 13 2 17 -54 76 -64 66 -9 -8 -34 11 -34 26 0
6 7 2 16 -9 15 -19 15 -19 5 1 -15 29 -37 55 -46 55 -5 0 0 -9 10 -20 10 -11
14 -20 9 -20 -12 0 -274 265 -274 276 1 5 15 -7 33 -26 66 -73 156 -152 166
-145 6 3 -1 18 -19 35 -17 16 -30 34 -30 40 0 6 -5 8 -12 4 -7 -5 -9 -2 -5 9
4 12 2 14 -10 10 -13 -5 -15 -1 -11 19 4 21 1 24 -14 20 -17 -4 -19 -1 -12 33
5 28 4 36 -5 31 -6 -4 -9 -11 -6 -16 8 -13 -20 -19 -36 -8 -11 8 -10 9 4 4 19
-6 24 10 5 17 -10 4 -10 8 1 15 19 13 -3 25 -32 17 -18 -6 -20 -5 -9 6 16 17
15 29 -2 29 -15 0 -26 21 -26 51 0 11 -7 19 -16 19 -9 0 -14 6 -12 12 3 7 -4
21 -14 32 -10 11 -18 32 -18 48 0 15 -5 28 -11 28 -7 0 -9 9 -6 21 3 12 0 22
-9 26 -8 3 -14 11 -14 19 0 8 -8 14 -17 15 -11 0 -13 3 -6 6 9 3 9 11 -3 29
-9 13 -21 21 -27 17 -6 -3 -7 -1 -3 5 6 10 -19 46 -119 172 -16 21 -49 62 -71
92 -173 224 -218 274 -359 403 -54 50 -106 97 -115 105 -113 107 -427 380
-603 524 l-69 56 -134 0 -134 0 1 -567z m4873 -458 c8 -121 17 -283 20 -360 5
-140 5 -140 -9 45 -22 278 -45 657 -44 698 2 43 12 -76 33 -383z m3099 322 c3
-8 -1 -14 -8 -14 -7 0 -11 6 -8 14 3 7 6 13 8 13 2 0 5 -6 8 -13z m50 -70 c-9
-15 -21 4 -15 25 5 21 6 21 12 2 4 -10 5 -22 3 -27z m-149 -61 c-7 -28 -24
-36 -24 -11 0 8 5 15 10 15 6 0 10 8 10 17 0 9 2 14 5 11 4 -3 3 -17 -1 -32z
m-2417 -73 c-3 -10 -5 -2 -5 17 0 19 2 27 5 18 2 -10 2 -26 0 -35z m50 -205
c-3 -8 -6 -5 -6 6 -1 11 2 17 5 13 3 -3 4 -12 1 -19z m-600 -500 c-2 -18 -4
-6 -4 27 0 33 2 48 4 33 2 -15 2 -42 0 -60z m-3246 -35 c13 -16 12 -17 -3 -4
-17 13 -22 21 -14 21 2 0 10 -8 17 -17z m91 -97 c17 -25 14 -23 -16 8 -20 22
-36 42 -36 44 0 9 32 -23 52 -52z m1792 18 c3 -8 2 -12 -4 -9 -6 3 -10 10 -10
16 0 14 7 11 14 -7z m1823 -306 c-3 -7 -5 -2 -5 12 0 14 2 19 5 13 2 -7 2 -19
0 -25z m3693 -22 c0 -2 -8 -10 -17 -17 -16 -13 -17 -12 -4 4 13 16 21 21 21
13z m-40 -30 c0 -2 -17 -16 -37 -31 l-38 -26 35 30 c34 31 40 35 40 27z m-80
-60 c0 -2 -8 -10 -17 -17 -16 -13 -17 -12 -4 4 13 16 21 21 21 13z m-40 -30
c0 -2 -8 -10 -17 -17 -16 -13 -17 -12 -4 4 13 16 21 21 21 13z m-105 -82 c-38
-32 -93 -71 -80 -56 15 16 99 82 105 82 3 -1 -8 -12 -25 -26z m-95 -67 c0 -2
-10 -12 -22 -23 l-23 -19 19 23 c18 21 26 27 26 19z m-4622 -325 l3 -64 39 7
c32 5 40 4 40 -8 0 -9 3 -23 6 -32 5 -12 -4 -20 -35 -32 -28 -11 -40 -21 -36
-31 3 -7 5 -18 5 -23 0 -5 9 -9 20 -9 25 0 28 -45 4 -58 -13 -7 -16 -19 -12
-56 6 -51 3 -54 -67 -72 -22 -6 -25 -3 -25 24 0 53 -7 62 -42 50 -29 -10 -30
-12 -25 -58 l6 -48 -44 -11 c-24 -6 -46 -11 -48 -11 -2 0 -7 39 -10 86 -2 47
-7 87 -10 90 -3 3 -21 -1 -40 -10 -19 -8 -38 -12 -41 -8 -3 3 -6 24 -6 47 0
40 2 42 40 54 38 11 40 14 36 44 -3 18 -8 53 -11 79 l-6 47 38 10 c60 17 60
16 68 -59 4 -38 9 -70 10 -70 2 0 15 4 30 10 26 10 26 11 19 84 l-7 73 29 11
c59 22 69 14 72 -56z m445 -71 c19 -8 26 -21 37 -71 29 -135 94 -227 201 -280
132 -67 260 -80 499 -51 91 11 469 54 840 95 371 42 683 80 693 86 30 18 6
-18 -45 -68 l-44 -42 -585 -65 c-321 -36 -658 -75 -749 -87 -187 -24 -395 -28
-485 -9 -33 7 -98 31 -144 53 -137 66 -214 156 -256 303 -9 33 -25 69 -34 80
-21 24 -32 51 -24 59 9 9 69 7 96 -3z m-1339 -53 c17 -25 21 -58 7 -58 -15 0
-71 57 -71 72 0 35 36 27 64 -14z m366 -7 c0 -48 -12 -91 -25 -91 -8 0 -21
-23 -30 -51 -23 -67 -65 -114 -136 -149 -72 -37 -137 -46 -414 -61 -121 -6
-221 -12 -222 -13 -2 -1 7 -27 19 -57 28 -72 29 -177 1 -240 -19 -42 -66 -97
-125 -145 -40 -32 -153 -50 -219 -34 -30 7 -60 17 -67 23 -10 8 -12 -333 -10
-1729 l3 -1739 26 -55 c31 -66 82 -119 158 -163 71 -42 130 -57 228 -57 74 0
382 26 389 33 2 2 -8 32 -23 67 -30 75 -28 148 7 207 l21 36 -25 36 c-63 91
-59 -22 -59 1511 -1 1054 2 1405 11 1436 30 103 134 198 245 224 28 7 58 17
65 23 8 7 12 5 12 -6 0 -10 -14 -17 -42 -22 -107 -17 -201 -84 -245 -173 l-28
-57 0 -1420 0 -1420 21 -40 c12 -22 31 -49 43 -59 21 -19 22 -19 46 4 25 23
25 24 6 44 -11 12 -24 34 -30 49 -14 37 -15 2777 -1 2826 15 55 57 106 109
135 56 30 128 40 1076 150 308 36 747 88 975 116 773 94 1519 180 1557 180 43
0 129 -37 155 -66 9 -11 26 -40 37 -64 20 -44 21 -60 21 -1239 l0 -1193 -25
-30 c-30 -36 -32 -72 -5 -95 18 -16 20 -30 20 -148 0 -153 -9 -193 -56 -245
-46 -51 -117 -79 -225 -91 -49 -5 -239 -27 -422 -49 -797 -97 -1621 -195
-1927 -230 -146 -16 -384 -43 -530 -60 -358 -40 -327 -33 -322 -75 2 -19 8
-38 13 -40 6 -5 100 4 210 18 9 1 15 -2 15 -8 -1 -5 -5 -9 -10 -7 -18 6 -211
-23 -218 -32 -4 -6 -8 -20 -8 -31 0 -42 -22 -96 -55 -140 -41 -53 -42 -55 -14
-50 11 2 42 5 67 6 26 1 72 10 102 20 l55 17 -38 -33 c-21 -18 -45 -32 -54
-31 -9 0 -18 -5 -21 -13 -3 -8 0 -11 7 -7 6 4 0 -10 -14 -31 -32 -45 -38 -52
-30 -31 5 13 -3 15 -52 14 l-58 -1 1 43 c0 23 0 42 0 42 -1 0 -27 -13 -59 -30
-70 -35 -133 -46 -180 -31 -34 11 -126 5 -401 -29 -111 -14 -183 -12 -251 5
-130 34 -258 130 -314 234 -67 126 -64 21 -56 1932 l7 1726 -27 41 c-105 159
-54 362 113 444 59 29 76 33 142 31 48 -1 94 -8 129 -22 54 -20 58 -20 320 -6
324 18 343 20 406 52 83 41 106 72 139 186 l17 57 39 0 c37 0 40 -2 40 -29z
m4181 -130 c73 -23 128 -59 191 -126 30 -31 51 -45 69 -45 39 0 110 -27 137
-53 66 -61 93 -211 55 -298 -35 -78 -114 -149 -168 -149 -13 0 -15 -135 -15
-1284 l0 -1284 33 -21 c85 -53 166 -168 198 -281 18 -64 15 -194 -5 -265 -59
-204 -214 -354 -413 -401 -53 -12 -97 -15 -198 -10 -170 8 -575 -23 -622 -48
-18 -9 -75 -56 -127 -105 -196 -184 -361 -248 -619 -239 -116 4 -146 9 -249
42 -65 20 -198 68 -295 107 -317 127 -403 143 -625 120 -172 -19 -1106 -130
-1165 -140 -29 -4 -55 -6 -58 -3 -11 11 -5 93 8 97 6 2 210 27 452 55 242 28
517 60 610 72 94 11 226 21 295 22 141 1 209 -15 415 -94 267 -102 352 -132
446 -156 91 -24 114 -26 237 -22 224 8 335 56 509 219 121 114 151 126 360
144 92 8 178 15 191 15 20 0 15 8 -40 63 -145 143 -189 323 -127 523 84 272
403 438 674 351 20 -7 20 -5 18 1260 l-1 1267 -35 18 c-46 23 -101 88 -115
137 -31 100 0 215 74 280 19 17 34 34 34 39 0 18 -68 73 -125 99 -57 27 -67
28 -200 27 -158 0 -532 -39 -585 -60 l-35 -14 43 36 c23 19 42 44 42 54 0 10
4 21 9 25 8 4 116 17 416 49 85 9 240 -3 306 -23z m-4120 -107 c18 -19 55 -49
81 -66 56 -37 57 -48 1 -20 -39 21 -145 122 -127 122 6 0 26 -16 45 -36z
m-3464 20 c-3 -3 -12 -4 -19 -1 -8 3 -5 6 6 6 11 1 17 -2 13 -5z m6663 -258
l0 -124 37 8 c78 18 197 -27 247 -93 13 -17 34 -52 47 -77 l24 -45 3 -1241 c2
-1224 3 -1241 22 -1259 11 -10 20 -22 20 -27 0 -5 -11 4 -25 20 l-25 30 0
1209 c0 1333 3 1261 -63 1359 -18 28 -53 62 -81 79 -45 27 -57 30 -138 30
l-88 0 0 127 c0 79 4 128 10 128 6 0 10 -48 10 -124z m-500 18 c0 -3 -10 -19
-21 -36 l-22 -30 22 -28 c11 -16 21 -32 21 -35 0 -11 -49 -4 -54 8 -3 8 -8 7
-16 -5 -13 -21 -50 -24 -50 -5 0 6 7 21 15 31 13 17 12 22 -5 46 -11 16 -20
31 -20 34 0 11 48 6 52 -6 3 -8 12 -4 26 10 20 20 52 30 52 16z m-162 -59 c6
-59 4 -78 -10 -86 -51 -34 -108 -10 -108 44 0 18 7 43 16 55 13 19 24 22 57
20 38 -3 42 -6 45 -33z m-2741 3 c-3 -8 -6 -5 -6 6 -1 11 2 17 5 13 3 -3 4
-12 1 -19z m2581 -51 c3 -61 1 -68 -15 -65 -11 2 -20 15 -23 33 l-6 30 -7 -32
c-8 -40 -32 -43 -45 -5 l-10 27 -1 -32 c-1 -26 -5 -33 -21 -33 -18 0 -20 7
-20 70 0 68 1 70 25 70 19 0 29 -8 39 -32 12 -27 15 -29 15 -11 1 27 28 55 50
51 13 -3 17 -18 19 -71z m1442 18 c21 -22 30 -38 24 -44 -18 -18 -185 -103
-191 -98 -6 6 116 177 126 177 4 0 22 -16 41 -35z m-1750 -30 c0 -43 1 -45 30
-45 19 0 30 -5 30 -14 0 -17 -22 -26 -66 -26 l-34 0 0 65 c0 58 2 65 20 65 17
0 20 -7 20 -45z m-88 -28 c22 -52 24 -63 11 -65 -8 -2 -20 1 -26 7 -17 17 -35
13 -59 -11 -28 -28 -34 -11 -18 50 29 105 53 110 92 19z m-138 -3 c10 -77 9
-84 -19 -84 -24 0 -25 2 -25 65 0 57 2 65 19 65 14 0 20 -10 25 -46z m-84 21
c17 -21 4 -38 -21 -24 -25 13 -49 -4 -49 -33 0 -23 27 -35 43 -19 16 16 37 14
37 -3 0 -20 -39 -46 -67 -46 -48 0 -71 82 -33 120 23 23 72 26 90 5z m-163
-13 c39 -25 30 -101 -13 -121 -72 -32 -120 50 -66 112 16 17 58 23 79 9z
m-133 -27 c4 -11 -2 -15 -27 -16 l-32 -1 33 -14 c35 -15 44 -52 18 -73 -23
-19 -80 -10 -84 13 -4 16 0 18 27 13 17 -4 31 -3 31 2 0 5 -13 11 -30 15 -23
4 -30 11 -30 29 0 13 5 28 12 35 17 17 75 15 82 -3z m-1296 -12 c-10 -2 -28
-2 -40 0 -13 2 -5 4 17 4 22 1 32 -1 23 -4z m1097 -13 c0 -9 -10 -15 -24 -15
-13 0 -28 -7 -34 -16 -13 -21 -2 -49 19 -49 14 0 14 3 4 15 -16 20 -1 39 26
33 31 -6 25 -60 -8 -75 -70 -34 -119 55 -62 112 21 20 79 17 79 -5z m-1479
-38 c-8 -9 -18 -13 -21 -10 -9 8 6 38 16 32 5 -3 10 3 10 13 1 17 2 17 6 -1 3
-10 -2 -25 -11 -34z m292 41 c-15 -2 -42 -2 -60 0 -18 2 -6 4 27 4 33 0 48 -2
33 -4z m1047 -16 c4 -13 5 -43 3 -68 -2 -36 -7 -45 -25 -47 -16 -2 -26 5 -38
27 -20 39 -23 39 -21 -1 1 -23 -4 -33 -16 -36 -16 -3 -18 5 -18 61 0 48 4 66
15 71 15 5 23 -1 50 -39 13 -19 14 -18 15 18 0 42 26 53 35 14z m-155 -67 c0
-46 -4 -62 -16 -67 -23 -9 -34 15 -34 75 0 49 1 52 25 52 24 0 25 -3 25 -60z
m-99 34 c17 -21 17 -81 -1 -98 -8 -7 -32 -16 -52 -19 -31 -5 -38 -3 -39 11 0
9 -2 31 -5 47 -8 58 2 75 45 75 23 0 44 -6 52 -16z m-133 -59 c2 -40 -1 -61
-10 -66 -21 -13 -26 -11 -45 22 l-18 31 -5 -34 c-3 -21 -11 -34 -22 -36 -16
-3 -18 5 -18 67 0 65 2 71 20 71 12 0 28 -13 40 -32 l20 -33 0 31 c0 17 3 34
7 38 17 16 28 -5 31 -59z m-160 28 c-2 -11 -15 -20 -33 -22 l-30 -4 30 -6 c35
-7 41 -35 8 -39 -13 -2 -23 -8 -23 -13 0 -5 12 -6 26 -3 22 6 25 4 22 -12 -2
-13 -15 -21 -43 -25 -22 -4 -40 -6 -41 -5 -1 0 -4 29 -7 64 -6 58 -5 63 16 72
12 5 35 9 50 9 22 1 28 -3 25 -16z m-136 -29 c9 -19 9 -30 0 -44 -7 -12 -8
-21 -2 -25 6 -3 10 -13 10 -21 0 -19 -39 -18 -46 1 -9 22 -24 18 -24 -5 0 -13
-7 -20 -20 -20 -18 0 -20 7 -20 63 0 35 3 67 7 70 3 4 24 7 45 7 32 0 41 -5
50 -26z m-132 -3 c0 -11 -8 -21 -17 -23 -14 -3 -17 -12 -14 -51 1 -28 -2 -48
-8 -48 -39 -6 -37 -9 -40 56 -1 24 -6 35 -16 35 -8 0 -15 9 -15 19 0 16 8 21
43 24 23 2 48 4 55 5 6 1 12 -7 12 -17z m-1070 -71 c0 -11 -4 -22 -10 -25 -5
-3 -10 -14 -10 -23 -1 -40 -15 -45 -60 -22 -48 24 -43 34 23 46 35 5 38 9 33
30 -5 18 -3 22 9 18 8 -4 15 -14 15 -24z m4925 -116 c-11 -9 -51 -34 -90 -56
-38 -23 -81 -48 -95 -56 -14 -9 -20 -11 -15 -5 18 19 198 133 209 133 6 0 2
-8 -9 -16z m1055 6 c-8 -5 -19 -10 -25 -10 -5 0 -3 5 5 10 8 5 20 10 25 10 6
0 3 -5 -5 -10z m-1040 -164 c0 -8 -62 -45 -140 -85 -77 -40 -140 -70 -140 -67
0 7 262 163 278 166 1 0 2 -6 2 -14z m-4840 -37 l25 -20 -32 16 c-18 8 -33 18
-33 20 0 10 16 4 40 -16z m0 -100 c0 -11 -3 -11 -24 -3 -23 9 -20 23 4 17 11
-3 20 -9 20 -14z m4850 -18 c0 -5 -6 -13 -13 -19 -14 -12 -315 -152 -325 -152
-22 1 303 180 326 180 6 0 12 -4 12 -9z m-5220 -60 c144 -66 181 -86 140 -75
-14 3 -38 12 -55 19 -168 70 -219 93 -223 103 -6 18 0 16 138 -47z m7567 53
c-3 -3 -12 -4 -19 -1 -8 3 -5 6 6 6 11 1 17 -2 13 -5z m-44 -11 c-7 -2 -19 -2
-25 0 -7 3 -2 5 12 5 14 0 19 -2 13 -5z m-46 -9 c-3 -3 -12 -4 -19 -1 -8 3 -5
6 6 6 11 1 17 -2 13 -5z m-40 -10 c-3 -3 -12 -4 -19 -1 -8 3 -5 6 6 6 11 1 17
-2 13 -5z m-50 -10 c-3 -3 -12 -4 -19 -1 -8 3 -5 6 6 6 11 1 17 -2 13 -5z
m-7037 -14 c0 -5 -4 -10 -10 -10 -5 0 -10 5 -10 10 0 6 5 10 10 10 6 0 10 -4
10 -10z m6997 4 c-3 -3 -12 -4 -19 -1 -8 3 -5 6 6 6 11 1 17 -2 13 -5z m-50
-10 c-3 -3 -12 -4 -19 -1 -8 3 -5 6 6 6 11 1 17 -2 13 -5z m-102 -24 c-38 -10
-79 -18 -90 -18 -11 0 12 8 50 18 39 10 79 18 90 18 11 0 -11 -8 -50 -18z
m-6845 -40 c0 -5 -2 -10 -4 -10 -3 0 -8 5 -11 10 -3 6 -1 10 4 10 6 0 11 -4
11 -10z m4870 -29 c0 -15 -23 -28 -102 -60 -143 -56 -268 -101 -268 -95 0 5
125 65 320 156 46 22 50 22 50 -1z m-5253 -30 c191 -76 306 -135 226 -115 -48
12 -328 115 -337 124 -7 7 -1 30 9 30 3 0 49 -18 102 -39z m5251 -123 c-3 -18
-26 -29 -158 -73 -149 -50 -231 -73 -220 -62 3 3 77 35 165 72 88 36 169 70
180 75 31 14 37 12 33 -12z m-5174 -49 c158 -57 202 -76 193 -85 -4 -5 -118
26 -264 72 -94 29 -113 38 -113 54 0 11 3 20 7 20 3 0 83 -28 177 -61z m5174
-100 c-3 -19 -24 -28 -155 -65 -84 -24 -169 -45 -190 -48 l-38 -6 35 17 c36
17 328 121 343 122 5 1 7 -9 5 -20z m-5164 -43 c171 -51 195 -61 185 -71 -5
-5 -257 53 -339 77 -43 13 -70 48 -37 48 8 0 94 -24 191 -54z m4656 -26 c0 -5
-5 -10 -11 -10 -5 0 -7 5 -4 10 3 6 8 10 11 10 2 0 4 -4 4 -10z m507 -96 c-5
-5 -284 -67 -347 -78 -71 -12 3 18 175 70 160 48 170 50 173 32 2 -11 2 -22
-1 -24z m-5232 6 c122 -28 264 -73 244 -77 -13 -3 -303 49 -351 63 -10 3 -18
14 -18 25 0 15 5 19 18 15 9 -3 58 -15 107 -26z m-2028 -106 c-3 -3 -12 -4
-19 -1 -8 3 -5 6 6 6 11 1 17 -2 13 -5z m7263 -23 c0 -24 -3 -25 -183 -56
-144 -24 -206 -31 -195 -20 6 6 344 93 366 94 6 1 12 -8 12 -18z m1907 13 c-3
-3 -12 -4 -19 -1 -8 3 -5 6 6 6 11 1 17 -2 13 -5z m-7076 -34 c255 -51 223
-67 -51 -27 -120 18 -145 25 -148 40 -5 24 20 22 199 -13z m6977 23 c-10 -2
-26 -2 -35 0 -10 3 -2 5 17 5 19 0 27 -2 18 -5z m-105 -10 c-13 -2 -35 -2 -50
0 -16 2 -5 4 22 4 28 0 40 -2 28 -4z m-6876 -143 c76 -11 152 -24 168 -29 44
-14 -113 -12 -250 2 -91 10 -110 15 -113 30 -5 23 21 22 195 -3z m5173 0 c0
-11 -3 -20 -7 -20 -5 0 -64 -7 -133 -15 -142 -17 -256 -19 -205 -4 46 13 286
57 318 58 21 1 27 -4 27 -19z m654 -83 c46 -36 66 -75 65 -129 -1 -28 -3 -36
-8 -23 -45 139 -192 196 -289 111 -145 -127 -13 -356 168 -291 24 9 56 26 70
38 l25 22 -20 -24 c-74 -87 -227 -78 -291 18 -53 81 -39 199 29 257 51 43 86
55 153 51 49 -2 69 -9 98 -30z m-5812 -48 c217 -17 216 -27 -4 -28 -189 -1
-219 3 -203 29 8 13 36 13 207 -1z m5158 -8 c0 -26 -36 -31 -219 -30 -176 1
-165 10 44 33 172 19 175 19 175 -3z m548 -17 c12 -4 22 -14 22 -24 0 -10 8
-21 18 -25 31 -9 44 -50 31 -100 -6 -24 -18 -46 -26 -50 -20 -7 -83 5 -83 16
0 5 -11 9 -25 9 -60 0 -61 140 -1 168 25 13 34 14 64 6z m-5548 -114 c0 -12
13 -11 -193 -19 -152 -5 -167 -4 -167 11 0 9 4 18 10 20 23 8 350 -4 350 -12z
m5000 -16 l0 -26 -167 7 c-91 4 -178 11 -192 15 -32 10 -32 10 159 20 80 3
157 7 173 8 23 2 27 -2 27 -24z m-4985 -104 c11 -5 16 -9 10 -10 -5 0 -66 -7
-135 -14 -68 -8 -128 -12 -132 -10 -5 3 -8 11 -8 19 0 11 19 15 73 18 136 6
172 6 192 -3z m4903 -17 c71 -5 82 -8 82 -24 0 -15 -8 -19 -32 -19 -51 0 -311
32 -333 40 -25 11 165 13 283 3z m1550 -80 c-15 -2 -42 -2 -60 0 -18 2 -6 4
27 4 33 0 48 -2 33 -4z m105 -10 c-7 -2 -19 -2 -25 0 -7 3 -2 5 12 5 14 0 19
-2 13 -5z m-6563 -22 c-8 -5 -82 -18 -165 -30 -82 -11 -166 -23 -185 -27 -57
-11 -23 11 55 34 82 25 110 28 225 30 52 1 79 -2 70 -7z m4815 -16 c83 -8 156
-15 163 -15 6 0 12 -11 12 -25 0 -24 -3 -25 -32 -20 -172 28 -321 57 -340 64
-21 9 -20 10 12 10 19 0 103 -6 185 -14z m-4821 -105 c-18 -7 -354 -80 -369
-80 -3 0 -5 9 -5 19 0 24 6 26 145 45 61 9 121 17 135 20 14 2 45 4 70 4 34 1
40 -1 24 -8z m4806 -30 c85 -12 163 -24 173 -26 26 -8 22 -44 -5 -44 -35 0
-339 77 -351 89 -7 7 -4 9 9 6 10 -2 89 -14 174 -25z m-4810 -92 c-38 -16
-290 -88 -332 -94 -33 -6 -38 -4 -38 13 0 17 21 24 173 55 94 20 183 36 197
36 l25 1 -25 -11z m4808 -48 c204 -41 192 -38 192 -61 0 -19 -4 -20 -37 -14
-47 8 -293 84 -313 96 -25 14 2 11 158 -21z m-4799 -74 c-6 -6 -359 -126 -370
-126 -5 0 -9 8 -9 19 0 15 20 24 118 49 64 17 142 38 172 46 55 14 97 20 89
12z m4829 -77 c151 -39 162 -44 162 -66 0 -12 -2 -23 -4 -23 -10 0 -275 100
-316 119 -53 25 -54 25 158 -30z m-4880 -64 c-17 -17 -324 -133 -327 -124 -6
19 13 28 165 79 144 48 173 56 162 45z m6832 -105 c20 -6 21 -8 5 -8 -11 0
-33 4 -50 8 -27 7 -27 8 -5 8 14 0 36 -4 50 -8z m63 -17 c-7 -2 -19 -2 -25 0
-7 3 -2 5 12 5 14 0 19 -2 13 -5z m50 -10 c-7 -2 -19 -2 -25 0 -7 3 -2 5 12 5
14 0 19 -2 13 -5z m50 -10 c-7 -2 -19 -2 -25 0 -7 3 -2 5 12 5 14 0 19 -2 13
-5z m50 -10 c-7 -2 -19 -2 -25 0 -7 3 -2 5 12 5 14 0 19 -2 13 -5z m44 -9 c-3
-3 -12 -4 -19 -1 -8 3 -5 6 6 6 11 1 17 -2 13 -5z m-7191 -19 c-11 -8 -23 -15
-28 -15 -4 0 -46 -18 -93 -40 -94 -44 -98 -45 -93 -28 3 7 51 31 109 54 113
45 135 51 105 29z m4613 -29 c-2 -2 -13 8 -23 22 l-19 27 24 -22 c12 -12 21
-24 18 -27z m2678 28 c-3 -3 -12 -4 -19 -1 -8 3 -5 6 6 6 11 1 17 -2 13 -5z
m-2779 -199 c-6 -148 -30 -208 -115 -285 -72 -66 -129 -82 -413 -115 -124 -14
-299 -35 -390 -46 -91 -11 -302 -35 -470 -54 -168 -20 -375 -44 -460 -55 -85
-11 -254 -31 -375 -45 -643 -73 -1058 -125 -1071 -136 -11 -9 -14 -8 -14 4 0
19 3 19 240 47 531 62 1134 133 1270 150 85 11 367 44 625 75 862 101 914 109
975 137 65 30 122 84 151 145 24 49 40 157 39 253 -2 76 0 93 7 65 3 -11 3
-74 1 -140z m-4618 10 c-14 -8 -29 -14 -35 -14 -5 0 1 6 15 14 14 8 30 14 35
14 6 0 -1 -6 -15 -14z m-50 -24 c0 -5 -13 -14 -30 -20 -35 -12 -41 1 -7 17 28
14 37 14 37 3z m20 -145 c0 -5 -69 -46 -78 -46 -6 1 69 50 76 50 1 0 2 -2 2
-4z m299 -338 c-18 -22 -54 -64 -80 -92 l-47 -51 -23 49 c-16 33 -20 50 -13
53 7 2 47 21 90 43 44 21 85 39 92 39 8 1 0 -17 -19 -41z m3379 -17 c79 1 115
-20 147 -85 31 -62 34 -151 6 -211 -53 -114 -192 -160 -292 -96 -137 86 -109
320 43 373 24 9 26 13 17 31 -9 20 -9 20 4 5 10 -13 29 -17 75 -17z m3337
-533 c204 -102 405 -202 448 -223 43 -21 76 -39 74 -42 -2 -2 -55 22 -118 53
-63 31 -304 150 -536 265 -233 114 -423 210 -423 213 0 8 156 -67 555 -266z
m-2590 52 c10 -11 16 -20 13 -20 -3 0 -13 9 -23 20 -10 11 -16 20 -13 20 3 0
13 -9 23 -20z m1000 2 c-3 -3 -11 0 -18 7 -9 10 -8 11 6 5 10 -3 15 -9 12 -12z
m-829 -77 c27 -27 29 -60 4 -60 -14 0 -60 59 -60 76 0 18 32 8 56 -16z m460
-47 c-14 -20 -18 -21 -15 -2 0 4 -5 11 -13 16 -9 6 -6 7 10 3 14 -4 22 -2 22
6 0 7 3 10 6 6 3 -3 -1 -16 -10 -29z m-1162 -167 c29 -32 40 -101 16 -101 -8
0 -50 91 -50 109 0 17 15 13 34 -8z m3726 -61 c33 -17 60 -32 60 -35 0 -5
-118 50 -128 59 -12 13 12 4 68 -24z m-3720 -116 c0 -8 -4 -12 -10 -9 -5 3
-10 13 -10 21 0 8 5 12 10 9 6 -3 10 -13 10 -21z m-1783 -86 c-3 -8 -6 -5 -6
6 -1 11 2 17 5 13 3 -3 4 -12 1 -19z m1200 -640 c-3 -8 -6 -5 -6 6 -1 11 2 17
5 13 3 -3 4 -12 1 -19z m40 -190 c-3 -8 -6 -5 -6 6 -1 11 2 17 5 13 3 -3 4
-12 1 -19z m10 -50 c-3 -8 -6 -5 -6 6 -1 11 2 17 5 13 3 -3 4 -12 1 -19z m10
-50 c-3 -8 -6 -5 -6 6 -1 11 2 17 5 13 3 -3 4 -12 1 -19z m1013 -23 c0 -5 -5
-3 -10 5 -5 8 -10 20 -10 25 0 6 5 3 10 -5 5 -8 10 -19 10 -25z m-1003 -27
c-3 -7 -5 -2 -5 12 0 14 2 19 5 13 2 -7 2 -19 0 -25z m10 -50 c-3 -7 -5 -2 -5
12 0 14 2 19 5 13 2 -7 2 -19 0 -25z m1051 -53 c-3 -3 -9 2 -12 12 -6 14 -5
15 5 6 7 -7 10 -15 7 -18z m-2081 -37 c-3 -8 -6 -5 -6 6 -1 11 2 17 5 13 3 -3
4 -12 1 -19z m1050 0 c-3 -8 -6 -5 -6 6 -1 11 2 17 5 13 3 -3 4 -12 1 -19z
m10 -50 c-3 -8 -6 -5 -6 6 -1 11 2 17 5 13 3 -3 4 -12 1 -19z m1073 -23 c0 -5
-5 -3 -10 5 -5 8 -10 20 -10 25 0 6 5 3 10 -5 5 -8 10 -19 10 -25z m-1053 -77
c-3 -8 -6 -5 -6 6 -1 11 2 17 5 13 3 -3 4 -12 1 -19z m-1100 -135 c-3 -10 -5
-2 -5 17 0 19 2 27 5 18 2 -10 2 -26 0 -35z m44 -10 l1 -28 8 25 c4 14 8 18 9
9 1 -12 15 -18 49 -22 89 -12 122 -25 122 -52 0 -13 5 -27 10 -30 6 -3 10 -1
10 6 0 10 3 10 12 1 10 -10 10 -15 -2 -23 -11 -8 -12 -12 -2 -16 6 -2 12 -11
12 -18 0 -8 9 -23 20 -33 17 -16 19 -24 11 -45 -6 -15 -10 -42 -9 -61 1 -19
-6 -46 -15 -60 -11 -16 -13 -26 -5 -28 6 -2 0 -16 -16 -32 -14 -16 -26 -35
-26 -43 0 -7 -7 -16 -15 -19 -10 -4 -13 -13 -10 -24 3 -10 -2 -25 -10 -34 -19
-19 -29 -21 -19 -4 5 7 3 8 -7 2 -8 -4 -23 -7 -34 -6 -13 2 -24 -6 -30 -20 -6
-13 -19 -23 -30 -23 -11 -1 -25 -3 -30 -7 -6 -3 -22 -6 -37 -6 -28 0 -28 1
-28 72 1 39 5 114 9 166 5 52 14 159 21 238 7 78 17 142 22 142 4 0 8 -12 9
-27z m2238 -58 c0 -5 -8 6 -19 25 -11 19 -19 40 -19 45 0 6 8 -6 19 -25 11
-19 19 -39 19 -45z m-2292 -67 c-3 -8 -6 -5 -6 6 -1 11 2 17 5 13 3 -3 4 -12
1 -19z m-1895 -309 c-81 -167 -165 -341 -187 -386 -21 -46 -40 -81 -42 -79 -2
2 19 52 47 112 93 199 323 664 327 660 2 -1 -63 -140 -145 -307z m4248 246 c0
-5 -5 -3 -10 5 -5 8 -10 20 -10 25 0 6 5 3 10 -5 5 -8 10 -19 10 -25z m920
-19 c0 -11 -19 -15 -25 -6 -3 5 1 10 9 10 9 0 16 -2 16 -4z m76 -63 c-7 -7
-26 7 -26 19 0 6 6 6 15 -2 9 -7 13 -15 11 -17z m-142 -103 c-5 -5 -10 7 -10
28 -2 37 -2 37 8 9 6 -16 6 -33 2 -37z m-744 -55 c0 -5 -5 -3 -10 5 -5 8 -10
20 -10 25 0 6 5 3 10 -5 5 -8 10 -19 10 -25z m79 -170 c0 -5 -6 1 -14 15 -8
14 -14 30 -14 35 0 6 6 -1 14 -15 8 -14 14 -29 14 -35z m35 -72 c9 -18 14 -33
12 -33 -6 0 -36 55 -36 66 0 11 5 3 24 -33z"/>
<path d="M3962 7399 c-21 -8 -29 -41 -9 -40 4 1 16 1 27 1 15 0 20 7 20 25 0
27 -3 28 -38 14z"/>
<path d="M2342 7180 c-70 -32 -110 -69 -142 -133 -56 -113 -35 -231 56 -320
82 -80 215 -110 306 -69 93 41 158 124 172 218 5 35 3 43 -12 46 -10 3 -33 36
-52 73 l-35 69 -11 -75 c-19 -121 -48 -172 -121 -208 -29 -14 -61 -21 -101
-21 -70 0 -165 26 -159 43 2 7 11 11 19 9 13 -2 16 15 17 108 1 61 6 122 11
135 10 27 0 28 163 -1 l97 -17 25 23 c35 33 24 43 -103 90 -39 15 -32 26 23
39 37 8 34 9 -35 10 -54 0 -87 -5 -118 -19z"/>
<path d="M6513 6395 c-139 -17 -257 -35 -262 -40 -11 -11 -18 -142 -8 -151 3
-3 38 -1 78 5 39 7 74 9 77 6 3 -2 0 -139 -5 -302 -9 -237 -8 -301 2 -311 10
-11 27 -11 92 -2 l81 12 6 86 c3 48 8 189 12 315 4 125 7 227 8 227 15 0 176
22 189 26 14 4 17 18 17 79 0 61 -3 73 -17 77 -10 2 -132 -10 -270 -27z"/>
<path d="M6840 6340 c0 -47 4 -80 10 -80 6 0 10 3 11 8 0 4 3 29 5 56 6 54 -1
96 -16 96 -6 0 -10 -34 -10 -80z"/>
<path d="M6155 6112 c-3 -130 -11 -264 -16 -297 -18 -123 -95 -230 -209 -291
-25 -14 -34 -22 -20 -18 73 18 176 106 214 184 34 66 44 128 51 290 3 80 8
193 11 251 5 88 3 107 -9 112 -13 5 -16 -28 -22 -231z"/>
<path d="M5992 6330 c-29 -4 -56 -11 -60 -15 -4 -4 -10 -121 -14 -260 -6 -222
-9 -260 -26 -299 -44 -98 -153 -111 -198 -24 -15 28 -16 61 -9 292 l7 259 -70
-6 c-118 -11 -119 -12 -127 -109 -4 -46 -5 -173 -3 -283 3 -220 7 -235 72
-303 82 -88 209 -101 339 -35 71 35 120 85 157 158 36 71 33 38 54 503 l7 132
-38 -1 c-21 -1 -62 -5 -91 -9z"/>
<path d="M5736 6198 c-4 -46 -8 -165 -9 -265 -2 -179 -2 -181 22 -207 14 -14
31 -26 39 -26 10 0 5 9 -13 26 l-28 26 7 264 c4 164 3 264 -3 264 -5 0 -12
-37 -15 -82z"/>
<path d="M5292 6201 c85 -54 136 -150 145 -276 13 -186 -76 -367 -231 -467
-32 -21 -55 -38 -50 -38 23 0 119 66 166 113 97 97 138 205 138 364 0 103 -16
164 -61 229 -29 43 -110 104 -138 104 -8 0 6 -13 31 -29z"/>
<path d="M4979 6196 c-68 -28 -105 -53 -151 -104 -134 -148 -170 -386 -83
-538 56 -97 141 -139 263 -132 64 4 89 10 140 38 75 40 158 126 194 201 73
156 61 356 -28 466 -75 91 -213 120 -335 69z m141 -175 c41 -30 62 -77 68
-150 12 -167 -61 -294 -168 -294 -83 0 -130 71 -130 196 0 126 38 211 115 259
35 22 76 18 115 -11z"/>
<path d="M5005 5996 c-41 -41 -66 -104 -72 -180 -9 -114 24 -193 87 -212 23
-6 23 -5 -7 20 -44 37 -56 81 -51 190 4 94 19 138 61 184 27 29 13 28 -18 -2z"/>
<path d="M6636 6168 c-3 -29 -8 -154 -11 -278 -3 -124 -8 -241 -11 -260 -5
-31 -4 -33 10 -20 12 12 17 69 25 287 6 149 11 283 11 297 0 47 -18 27 -24
-26z"/>
<path d="M4491 6150 c-29 -5 -57 -12 -62 -17 -4 -4 -11 -70 -15 -145 l-7 -136
-91 -11 c-50 -6 -106 -14 -124 -18 l-34 -6 4 143 3 142 -85 -7 c-46 -3 -90
-11 -96 -16 -8 -6 -14 -93 -18 -267 -3 -141 -9 -315 -12 -386 l-6 -129 73 6
c118 11 115 9 123 85 3 37 6 111 6 164 0 93 1 98 23 102 26 6 197 26 216 26 9
0 12 -38 10 -160 -1 -88 1 -163 4 -166 8 -8 151 6 168 17 11 6 16 79 26 341 6
183 12 359 12 391 l1 57 -32 -1 c-18 -1 -57 -5 -87 -9z"/>
<path d="M4641 5768 c-7 -216 -15 -396 -18 -400 -2 -5 0 -8 6 -8 5 0 12 4 16
9 3 6 10 144 15 308 16 462 16 476 4 480 -7 2 -14 -120 -23 -389z"/>
<path d="M4210 5973 c0 -154 17 -156 20 -3 3 127 3 130 -10 130 -6 0 -10 -49
-10 -127z"/>
<path d="M3565 6037 c-169 -57 -257 -187 -225 -332 19 -83 69 -124 187 -150
37 -9 78 -18 90 -20 32 -7 46 -38 32 -69 -27 -58 -151 -71 -240 -25 -21 10
-43 19 -48 19 -14 0 -71 -103 -71 -128 0 -29 56 -60 141 -78 80 -17 135 -12
215 18 182 67 267 310 144 409 -27 22 -56 32 -130 44 -126 22 -156 48 -129
109 24 51 122 72 196 41 19 -8 39 -15 43 -15 10 0 70 114 70 134 0 42 -190 71
-275 43z"/>
<path d="M3858 6034 c31 -21 28 -47 -13 -122 -58 -105 -31 -84 38 30 24 38 21
74 -5 92 -12 9 -27 16 -32 16 -6 0 0 -7 12 -16z"/>
<path d="M6780 5918 c-63 -9 -78 -14 -69 -22 6 -7 187 19 195 27 9 9 -44 7
-126 -5z"/>
<path d="M3570 5835 c-14 -17 -5 -51 16 -59 12 -5 12 -2 3 15 -6 12 -9 30 -6
40 6 23 3 24 -13 4z"/>
<path d="M3780 5733 c36 -14 72 -48 91 -86 18 -34 21 -53 17 -112 -7 -107 -45
-170 -153 -253 -25 -19 -26 -21 -5 -11 50 24 117 89 145 140 41 75 48 189 15
247 -21 38 -83 83 -111 81 -11 0 -10 -2 1 -6z"/>
<path d="M4195 5618 c-2 -7 -6 -79 -7 -159 -2 -104 0 -145 8 -142 10 4 24 153
24 265 0 44 -15 65 -25 36z"/>
<path d="M6750 4948 c0 -270 2 -489 4 -487 2 2 6 223 10 492 5 342 4 487 -3
487 -8 0 -11 -150 -11 -492z"/>
<path d="M5911 5299 c-129 -16 -241 -34 -248 -41 -8 -7 -13 -35 -13 -81 l0
-70 81 8 c45 3 88 9 95 12 12 4 14 -21 13 -143 0 -82 -4 -216 -8 -299 -4 -82
-5 -158 -3 -169 4 -16 12 -18 75 -11 124 12 114 -6 122 222 4 109 10 250 14
313 l6 115 83 9 82 9 2 46 c1 25 2 55 3 66 4 54 16 53 -304 14z"/>
<path d="M6256 5254 c-7 -78 -5 -91 13 -79 13 7 15 155 2 155 -4 0 -11 -34
-15 -76z"/>
<path d="M5447 5235 c-60 -7 -91 -15 -96 -25 -5 -8 -11 -127 -14 -264 -7 -277
-12 -301 -76 -343 -58 -39 -123 -26 -156 29 -20 34 -21 87 -9 387 l7 164 -83
-7 c-45 -4 -91 -11 -100 -16 -16 -8 -19 -35 -25 -235 -8 -248 -4 -309 26 -372
27 -56 64 -91 128 -121 133 -61 334 12 416 152 49 84 54 114 65 393 5 147 9
267 7 268 -1 0 -42 -4 -90 -10z"/>
<path d="M5575 5018 c-3 -128 -10 -259 -15 -291 -18 -119 -92 -228 -195 -289
-27 -16 -39 -26 -25 -23 42 11 130 76 166 123 56 74 75 140 84 292 15 245 16
413 4 417 -8 3 -14 -63 -19 -229z"/>
<path d="M5141 5063 c0 -70 -4 -180 -7 -244 -7 -125 3 -181 36 -199 30 -16 33
-12 10 18 -22 26 -22 32 -19 286 3 190 1 260 -8 263 -8 3 -11 -32 -12 -124z"/>
<path d="M6085 5128 c-2 -7 -6 -114 -9 -238 -4 -124 -9 -261 -13 -305 -5 -71
-4 -79 9 -67 13 10 17 50 22 210 3 108 9 245 12 305 4 75 2 107 -5 107 -7 0
-13 -6 -16 -12z"/>
<path d="M4626 5107 c226 -109 257 -459 60 -674 -27 -30 -73 -70 -100 -89 -28
-19 -46 -34 -40 -34 20 0 129 82 171 129 50 56 97 147 112 219 22 104 9 236
-30 313 -34 67 -124 139 -194 154 -21 5 -15 -1 21 -18z"/>
<path d="M4339 5087 c-97 -41 -153 -92 -214 -192 -102 -170 -89 -401 29 -513
60 -58 112 -77 206 -77 76 0 93 4 152 33 163 80 267 265 255 452 -8 139 -71
246 -172 295 -63 31 -185 32 -256 2z m172 -193 c62 -59 76 -206 29 -312 -27
-61 -53 -88 -106 -108 -54 -21 -100 -7 -143 41 -79 91 -55 297 46 386 33 28
41 31 90 27 42 -4 60 -11 84 -34z"/>
<path d="M4372 4885 c-120 -101 -100 -397 27 -395 25 1 25 1 -6 15 -56 24 -68
55 -68 175 0 113 10 146 63 203 32 34 23 35 -16 2z"/>
<path d="M3475 4550 c0 -272 1 -384 2 -247 2 136 2 358 0 495 -1 136 -2 24 -2
-248z"/>
<path d="M6620 4261 c-22 -6 -25 -13 -28 -60 l-3 -52 42 3 c25 2 44 9 47 17 4
11 -2 13 -27 8 -24 -5 -31 -3 -29 6 3 6 17 13 31 15 37 4 34 22 -3 22 -16 0
-30 5 -30 10 0 6 14 10 30 10 20 0 30 5 30 15 0 16 -18 18 -60 6z"/>
<path d="M6477 4243 c-4 -3 -7 -30 -7 -60 0 -40 4 -53 15 -53 8 0 15 9 15 20
0 23 18 27 26 5 4 -8 12 -15 18 -15 8 0 13 19 14 55 l1 55 -38 0 c-21 0 -41
-3 -44 -7z m58 -33 c-3 -5 -13 -10 -21 -10 -8 0 -14 5 -14 10 0 6 9 10 21 10
11 0 17 -4 14 -10z"/>
<path d="M6365 4218 c-33 -91 -34 -98 -20 -98 8 0 15 5 15 11 0 8 15 9 45 4
l46 -6 -16 38 c-9 21 -19 44 -22 51 -3 6 -14 12 -24 12 -11 0 -22 -6 -24 -12z
m32 -55 c-11 -10 -26 8 -20 23 5 15 7 14 15 -1 6 -9 7 -19 5 -22z"/>
<path d="M6278 4198 c-2 -15 -11 -24 -26 -26 -20 -3 -23 0 -17 18 6 18 3 21
-12 18 -25 -4 -33 -108 -9 -108 10 0 16 9 16 25 0 20 5 25 25 25 18 0 25 -5
25 -20 0 -11 7 -20 15 -20 12 0 15 13 15 55 0 41 -4 55 -14 55 -8 0 -16 -10
-18 -22z"/>
<path d="M6092 4188 c-7 -7 -12 -26 -12 -43 0 -37 15 -55 46 -55 26 0 57 27
48 42 -4 6 -10 6 -17 -1 -16 -16 -44 -14 -51 4 -8 23 22 47 44 35 20 -11 36 2
25 20 -9 14 -68 13 -83 -2z"/>
<path d="M5927 4165 c-22 -21 -11 -45 24 -52 16 -3 26 -10 23 -15 -3 -5 -20
-6 -36 -3 -23 6 -29 4 -26 -6 6 -18 65 -24 84 -8 32 26 11 59 -37 59 -12 0
-17 5 -14 11 4 5 18 9 30 7 13 -2 25 2 27 7 5 17 -58 17 -75 0z"/>
<path d="M5807 4163 c-4 -3 -7 -30 -7 -60 l0 -53 43 6 c49 8 51 9 42 23 -3 6
-17 8 -31 5 -14 -4 -24 -2 -24 5 0 6 11 11 25 11 16 0 25 6 25 16 0 12 -6 15
-25 10 -14 -4 -25 -2 -25 3 0 5 14 12 30 16 17 4 30 11 30 16 0 10 -73 13 -83
2z"/>
<path d="M5713 4153 c-7 -2 -13 -13 -13 -24 0 -12 -7 -19 -20 -19 -13 0 -20 7
-20 20 0 13 -5 18 -15 14 -20 -8 -22 -118 -2 -112 6 3 14 13 16 24 3 18 18 34
34 34 4 0 7 -11 7 -25 0 -16 6 -25 15 -25 12 0 15 13 15 60 0 33 -1 60 -2 59
-2 0 -9 -3 -15 -6z"/>
<path d="M5577 4133 c-4 -3 -7 -15 -7 -25 0 -11 -7 -18 -20 -18 -13 0 -20 7
-20 20 0 11 -6 20 -14 20 -10 0 -15 -16 -18 -55 -2 -39 1 -55 10 -55 6 0 12 9
12 20 0 11 4 20 9 20 5 0 16 3 25 6 12 4 16 0 16 -15 0 -12 6 -21 15 -21 12 0
15 13 15 55 0 51 -7 65 -23 48z"/>
<path d="M5388 4113 c-10 -2 -18 -10 -18 -18 0 -8 7 -11 20 -8 18 5 20 0 20
-36 0 -30 4 -41 15 -41 11 0 15 12 15 45 0 33 4 45 15 45 8 0 15 5 15 10 0 10
-49 12 -82 3z"/>
<path d="M5228 4093 c-14 -3 -18 -16 -18 -59 0 -49 2 -54 23 -54 33 0 67 11
67 21 0 5 -13 9 -30 9 -16 0 -30 5 -30 10 0 6 11 10 25 10 14 0 25 6 25 14 0
9 -8 12 -25 8 -14 -2 -25 0 -25 6 0 6 15 12 33 14 17 2 32 8 32 13 0 11 -49
16 -77 8z"/>
<path d="M5080 4046 c0 -47 -9 -66 -31 -66 -16 0 -19 8 -19 46 0 32 -4 44 -12
42 -8 -3 -13 -23 -13 -54 0 -44 2 -49 24 -52 35 -5 71 6 71 23 0 8 9 19 20 25
18 9 20 8 20 -15 0 -16 6 -25 15 -25 12 0 15 13 15 55 0 55 -16 76 -27 35 -6
-23 -33 -28 -33 -6 0 8 -7 16 -15 20 -12 4 -15 -2 -15 -28z"/>
<path d="M4931 4038 c-4 -13 -10 -30 -13 -38 -3 -10 -10 -5 -22 18 -16 30 -36
43 -36 22 0 -24 45 -100 58 -98 12 3 52 88 52 111 0 17 -31 5 -39 -15z"/>
<path d="M4758 3993 c-2 -35 -7 -48 -18 -48 -10 0 -16 13 -18 43 -4 57 -32 60
-32 3 0 -57 8 -71 41 -71 36 0 62 36 57 81 -5 53 -26 47 -30 -8z"/>
<path d="M4593 4013 c-8 -3 -13 -25 -13 -59 0 -53 1 -54 28 -54 16 0 37 7 48
15 18 14 17 14 -13 15 -37 0 -45 17 -11 22 12 2 23 9 26 16 3 9 -3 11 -23 6
-21 -5 -27 -4 -23 7 3 8 13 16 24 17 10 2 23 8 29 13 10 9 -50 11 -72 2z"/>
<path d="M6202 3998 c-20 -20 -14 -38 18 -52 35 -14 29 -29 -8 -19 -18 4 -23
2 -20 -8 7 -20 68 -18 81 3 13 20 -6 48 -34 48 -11 0 -19 4 -19 10 0 5 13 7
30 4 31 -7 42 9 14 20 -25 9 -49 7 -62 -6z"/>
<path d="M4445 3984 c-25 -25 -16 -75 17 -93 25 -14 29 -14 55 5 31 23 42 67
22 90 -16 19 -74 18 -94 -2z m73 -30 c4 -25 -22 -49 -43 -40 -18 7 -20 52 -2
59 23 10 42 2 45 -19z"/>
<path d="M6068 3992 c-27 -3 -28 -6 -28 -58 0 -40 4 -54 14 -54 10 0 16 14 18
43 2 35 7 43 26 45 20 3 22 -1 22 -37 0 -30 4 -41 15 -41 11 0 15 12 15 45 0
25 5 45 10 45 6 0 10 4 10 9 0 9 -46 11 -102 3z"/>
<path d="M4380 3965 c0 -30 -16 -33 -25 -5 -10 30 -31 24 -42 -12 l-10 -33
-11 27 c-12 30 -28 43 -36 29 -7 -11 34 -111 46 -111 5 0 17 19 28 43 l18 42
13 -32 c22 -54 33 -44 42 35 4 32 2 42 -9 42 -8 0 -14 -10 -14 -25z"/>
<path d="M5914 3966 c-9 -24 1 -99 14 -104 8 -2 12 8 12 35 l0 38 23 -32 c33
-49 47 -42 47 22 0 42 -3 55 -15 55 -10 0 -15 -10 -15 -27 l-1 -28 -22 28
c-25 30 -35 33 -43 13z"/>
<path d="M5823 3963 c-21 -4 -23 -10 -23 -59 0 -50 2 -54 24 -54 31 0 56 10
56 21 0 5 -11 9 -25 9 -14 0 -25 5 -25 10 0 6 11 10 25 10 14 0 25 5 25 10 0
6 -11 10 -25 10 -33 0 -32 18 2 22 33 4 44 29 11 27 -12 -1 -33 -4 -45 -6z"/>
<path d="M4087 3953 c-4 -3 -7 -30 -7 -60 0 -48 2 -53 23 -53 33 0 67 11 67
21 0 5 -13 9 -30 9 -36 0 -40 17 -5 22 14 2 25 8 25 13 -1 6 -12 8 -27 7 -17
-3 -24 0 -21 10 3 7 15 15 29 16 46 7 44 22 -2 22 -25 0 -49 -3 -52 -7z"/>
<path d="M5723 3953 c-46 -5 -71 -33 -28 -33 22 0 25 -4 25 -40 0 -29 4 -40
15 -40 11 0 15 12 15 45 0 33 4 45 15 45 8 0 15 7 15 15 0 8 -3 14 -7 13 -5
-1 -27 -3 -50 -5z"/>
<path d="M3983 3942 l-33 -3 0 -60 c0 -44 3 -60 13 -57 6 3 13 14 15 26 4 28
32 29 32 2 0 -11 6 -20 14 -20 10 0 14 15 14 54 0 59 -4 63 -55 58z m27 -37
c0 -8 -7 -15 -15 -15 -8 0 -15 7 -15 15 0 8 7 15 15 15 8 0 15 -7 15 -15z"/>
<path d="M5630 3885 c0 -42 3 -55 15 -55 12 0 15 13 15 55 0 42 -3 55 -15 55
-12 0 -15 -13 -15 -55z"/>
<path d="M6306 3931 c-4 -5 -2 -12 3 -15 5 -4 12 -2 15 3 4 5 2 12 -3 15 -5 4
-12 2 -15 -3z"/>
<path d="M3852 3923 c-10 -4 -62 -103 -62 -118 0 -2 9 -1 20 2 11 3 20 10 20
16 0 6 17 7 46 3 43 -5 45 -5 39 15 -7 20 -45 90 -48 88 -1 0 -8 -3 -15 -6z
m18 -54 c0 -5 -4 -9 -10 -9 -5 0 -10 7 -10 16 0 8 5 12 10 9 6 -3 10 -10 10
-16z"/>
<path d="M5580 3898 l-1 -33 -20 28 c-34 44 -49 35 -49 -29 0 -40 3 -54 13
-51 7 2 11 15 9 30 -4 34 10 35 28 2 23 -42 45 -27 48 33 2 42 0 52 -12 52
-11 0 -16 -10 -16 -32z"/>
<path d="M3730 3891 c0 -10 -9 -21 -20 -24 -15 -4 -20 0 -20 14 0 10 -6 19
-14 19 -10 0 -15 -16 -18 -55 -2 -38 1 -55 9 -55 6 0 13 10 15 23 4 30 48 38
48 8 0 -12 6 -21 15 -21 12 0 15 13 15 55 0 42 -3 55 -15 55 -8 0 -15 -8 -15
-19z"/>
<path d="M5380 3890 c-38 -38 -15 -90 39 -90 35 0 58 18 66 51 13 53 -63 81
-105 39z m80 -31 c0 -4 -7 -15 -16 -23 -12 -12 -20 -13 -35 -6 -26 14 -24 39
4 49 21 8 47 -2 47 -20z"/>
<path d="M5266 3879 c-31 -25 -34 -59 -6 -84 16 -15 26 -17 47 -9 40 14 43 38
4 29 -24 -5 -32 -3 -37 9 -9 25 14 47 42 40 29 -7 32 11 5 26 -25 13 -24 13
-55 -11z"/>
<path d="M3543 3883 c-18 -7 -16 -50 3 -57 9 -3 25 -6 35 -6 12 0 17 -5 14
-11 -4 -5 -19 -9 -33 -7 -19 2 -27 -2 -27 -12 0 -19 37 -25 64 -10 23 12 29
59 9 61 -29 3 -33 4 -33 14 0 6 10 9 23 7 14 -2 22 2 22 13 0 10 -10 15 -32
14 -18 0 -39 -3 -45 -6z"/>
<path d="M5147 3874 c-4 -4 -7 -16 -7 -26 0 -10 -7 -18 -15 -18 -8 0 -15 9
-15 20 0 11 -7 20 -15 20 -12 0 -15 -13 -15 -55 0 -41 4 -55 14 -55 8 0 16 10
18 23 4 26 34 30 32 5 -1 -11 5 -18 17 -18 15 0 17 7 14 52 -3 50 -13 67 -28
52z"/>
<path d="M4972 3844 c-22 -15 -28 -47 -16 -78 11 -27 94 -18 94 10 0 16 -5 17
-29 5 -22 -12 -44 1 -39 25 2 13 13 19 33 20 46 2 48 3 35 19 -16 19 -50 19
-78 -1z"/>
<path d="M4890 3795 c0 -42 3 -55 15 -55 12 0 15 13 15 55 0 42 -3 55 -15 55
-12 0 -15 -13 -15 -55z"/>
<path d="M4820 3785 c0 -42 3 -55 15 -55 12 0 15 13 15 55 0 42 -3 55 -15 55
-12 0 -15 -13 -15 -55z"/>
<path d="M4710 3815 c-17 -21 -8 -50 18 -53 12 -2 22 -8 22 -14 0 -6 -10 -8
-26 -4 -21 6 -25 4 -22 -11 5 -25 40 -28 68 -5 29 24 21 52 -15 52 -14 0 -25
5 -25 10 0 6 11 10 25 10 16 0 25 6 25 15 0 20 -53 20 -70 0z"/>
<path d="M4613 3813 c-16 -3 -22 -13 -25 -46 -6 -55 -1 -67 27 -67 57 0 75 27
23 32 -25 3 -29 6 -15 11 9 4 25 10 35 14 13 5 11 8 -10 11 -35 4 -37 22 -3
22 16 0 25 6 25 15 0 15 -13 17 -57 8z"/>
<path d="M6899 3803 c-13 -16 -12 -17 4 -4 16 13 21 21 13 21 -2 0 -10 -8 -17
-17z"/>
<path d="M4467 3793 c-4 -3 -7 -30 -7 -59 0 -42 3 -52 14 -48 8 3 16 14 19 25
7 25 23 24 30 -1 11 -41 27 -20 27 35 0 58 -7 68 -28 35 -7 -11 -17 -20 -22
-20 -6 0 -10 9 -10 20 0 20 -11 26 -23 13z"/>
<path d="M4308 3773 c-24 -6 -26 -103 -3 -103 9 0 15 9 15 22 l0 21 23 -21
c31 -30 41 -28 34 7 -3 15 -1 33 5 39 29 29 -16 50 -74 35z m47 -23 c3 -6 -1
-13 -10 -16 -19 -8 -30 0 -20 15 8 14 22 14 30 1z"/>
<path d="M4235 3758 c-2 -7 -4 -20 -3 -28 3 -36 -3 -50 -22 -50 -17 0 -20 7
-20 40 0 29 -4 40 -15 40 -11 0 -15 -11 -15 -43 0 -48 13 -67 45 -67 33 0 55
31 55 78 0 39 -15 57 -25 30z"/>
<path d="M4035 3725 c-30 -30 -31 -49 -4 -76 25 -25 64 -19 92 13 22 26 22 51
-1 71 -26 24 -59 21 -87 -8z m70 -15 c10 -16 -14 -50 -35 -50 -14 0 -20 7 -20
23 0 13 3 27 7 30 10 10 41 8 48 -3z"/>
<path d="M3961 3709 c-19 -30 -19 -31 -30 -10 -11 19 -47 32 -39 13 22 -52 45
-91 51 -89 4 1 18 26 32 54 27 58 16 82 -14 32z"/>
<path d="M4428 3483 c7 -3 16 -2 19 1 4 3 -2 6 -13 5 -11 0 -14 -3 -6 -6z"/>
<path d="M3205 3283 c-26 -27 -58 -68 -73 -92 -53 -90 -24 -215 67 -290 41
-33 49 -36 110 -36 76 1 124 20 177 72 73 70 97 190 52 249 -78 100 -105 118
-193 128 -33 4 -67 9 -76 12 -10 3 -34 -14 -64 -43z m160 -54 c4 -5 17 -14 29
-19 17 -6 30 -30 51 -94 l29 -85 -23 -25 c-33 -35 -102 -60 -144 -52 -66 12
-112 93 -105 186 3 44 5 46 58 72 58 29 95 35 105 17z"/>
<path d="M3293 3205 c-34 -14 -38 -22 -25 -41 10 -15 92 22 92 41 0 19 -25 18
-67 0z"/>
<path d="M3226 3164 c-3 -9 -6 -26 -6 -38 0 -30 30 -116 40 -116 10 0 -6 75
-22 100 -10 15 -10 22 0 32 14 14 16 38 3 38 -5 0 -12 -7 -15 -16z"/>
<path d="M3370 3173 c-8 -3 -35 -14 -59 -25 -41 -20 -43 -22 -37 -56 8 -52 26
-65 23 -16 -2 36 1 40 37 58 l39 19 19 -23 c10 -12 18 -32 18 -44 0 -26 -58
-66 -96 -66 -31 0 -30 -29 1 -40 27 -10 95 13 116 39 15 18 15 25 3 62 -14 41
-42 100 -47 98 -1 0 -9 -3 -17 -6z"/>
<path d="M3337 3114 c-22 -12 -27 -20 -21 -37 3 -12 8 -24 10 -26 7 -7 74 28
74 38 0 8 -28 42 -33 41 -1 -1 -15 -8 -30 -16z"/>
<path d="M8140 6930 c0 -6 -4 -9 -9 -6 -17 11 -33 -21 -22 -43 17 -31 3 -54
-31 -49 -23 4 -37 -3 -72 -39 -27 -27 -52 -43 -67 -43 -30 0 -67 25 -79 54 -8
18 -9 17 -7 -9 1 -21 -3 -30 -13 -30 -35 -1 -20 -34 30 -64 70 -42 191 -20
252 45 55 59 78 184 36 192 -10 2 -18 -2 -18 -8z"/>
<path d="M7927 6910 c-3 -11 -1 -20 4 -20 5 0 9 9 9 20 0 11 -2 20 -4 20 -2 0
-6 -9 -9 -20z"/>
<path d="M7970 6852 c-6 -2 -7 -8 -4 -13 3 -6 -2 -20 -13 -32 -16 -19 -14 -18
27 5 24 14 46 30 47 34 3 9 -37 12 -57 6z"/>
<path d="M7652 4075 c-144 -40 -283 -158 -373 -319 -41 -71 -53 -103 -57 -147
-5 -63 15 -145 54 -219 24 -46 122 -155 131 -146 3 3 15 -4 27 -15 51 -50 168
-89 261 -89 128 0 271 56 363 144 98 91 162 239 162 372 0 72 -16 106 -26 56
-4 -18 -12 -31 -18 -29 -6 1 -36 50 -66 109 -30 58 -65 118 -77 133 -13 15
-23 36 -23 45 0 24 -34 45 -130 80 -101 37 -160 44 -228 25z m-147 -176 c71
-11 76 -13 70 -33 -3 -11 -11 -39 -17 -61 -18 -72 -16 -71 -54 -34 -36 34
-104 121 -104 133 0 9 18 8 105 -5z m395 -127 c35 -34 40 -44 40 -84 0 -130
-182 -177 -250 -65 -54 87 11 187 121 187 42 0 53 -5 89 -38z m-271 -9 c5 -21
14 -61 21 -90 15 -67 46 -113 164 -245 53 -59 91 -110 86 -113 -14 -9 -113 4
-180 22 -116 33 -208 97 -257 180 -47 81 -82 233 -53 233 6 0 38 -11 72 -25
34 -14 65 -25 70 -25 5 0 18 23 30 50 11 28 24 50 29 50 5 0 12 -17 18 -37z
m-159 -493 c0 -5 -2 -10 -4 -10 -3 0 -8 5 -11 10 -3 6 -1 10 4 10 6 0 11 -4
11 -10z"/>
<path d="M6077 6943 c-14 -14 -6 -20 19 -15 19 3 22 7 12 13 -16 11 -23 11
-31 2z"/>
<path d="M6075 6890 c3 -5 12 -10 20 -10 8 0 17 5 20 10 4 6 -5 10 -20 10 -15
0 -24 -4 -20 -10z"/>
<path d="M5540 6850 c0 -5 5 -10 11 -10 5 0 7 5 4 10 -3 6 -8 10 -11 10 -2 0
-4 -4 -4 -10z"/>
<path d="M5144 6815 c-9 -23 4 -47 23 -43 11 2 19 14 21 31 3 22 -1 27 -18 27
-11 0 -23 -7 -26 -15z"/>
<path d="M4427 6743 c-13 -13 -7 -63 7 -63 21 0 29 17 22 46 -6 24 -17 30 -29
17z"/>
<path d="M3990 6675 c0 -9 6 -12 15 -9 8 4 15 10 15 15 0 5 -7 9 -15 9 -8 0
-15 -7 -15 -15z"/>
<path d="M8277 5103 c-2 -5 -7 -24 -11 -44 -7 -40 0 -69 17 -69 7 0 7 4 -1 12
-7 7 -12 19 -12 26 0 10 9 6 24 -11 28 -31 59 -27 54 6 -2 16 -10 21 -33 22
-27 0 -30 3 -30 33 0 33 -1 37 -8 25z"/>
<path d="M8332 5090 c8 -13 15 -16 19 -8 10 15 2 28 -17 28 -12 0 -12 -4 -2
-20z"/>
<path d="M8300 5075 c0 -8 5 -15 10 -15 6 0 10 7 10 15 0 8 -4 15 -10 15 -5 0
-10 -7 -10 -15z"/>
<path d="M8366 5065 c-3 -8 -1 -15 4 -15 6 0 10 7 10 15 0 8 -2 15 -4 15 -2 0
-6 -7 -10 -15z"/>
<path d="M8392 5030 c0 -14 2 -19 5 -12 2 6 2 18 0 25 -3 6 -5 1 -5 -13z"/>
<path d="M8356 4991 c-7 -11 22 -23 36 -15 6 4 5 10 -3 15 -18 11 -26 11 -33
0z"/>
<path d="M6330 3197 c0 -8 -9 -22 -21 -33 -17 -16 -22 -16 -30 -4 -8 11 -8 8
-3 -10 l6 -25 -26 24 c-14 14 -26 19 -26 13 0 -6 7 -15 15 -19 8 -5 17 -23 21
-40 11 -57 -50 -66 -137 -22 -20 10 -39 25 -42 34 -11 26 -28 17 -21 -11 5
-20 4 -25 -6 -19 -9 6 -10 3 0 -15 7 -14 17 -19 27 -16 13 5 14 4 3 -9 -10
-12 -8 -17 11 -25 22 -10 21 -10 -6 -5 l-30 6 24 -17 c38 -27 110 -30 157 -6
44 23 65 43 88 89 18 35 22 108 6 118 -5 3 -10 0 -10 -8z"/>
<path d="M6128 3149 c9 -16 20 -29 24 -29 12 0 -13 48 -28 54 -8 3 -7 -4 4
-25z"/>
<path d="M6108 3123 c7 -3 16 -2 19 1 4 3 -2 6 -13 5 -11 0 -14 -3 -6 -6z"/>
<path d="M10212 10223 c2 -11 -2 -17 -11 -15 -12 3 -12 0 -2 -12 12 -14 15
-14 28 0 8 8 12 21 9 29 -8 21 -27 19 -24 -2z"/>
<path d="M10165 10162 c2 -3 -1 -14 -7 -26 -10 -19 -8 -19 16 3 14 14 26 25
26 26 0 0 -9 1 -20 1 -10 0 -17 -2 -15 -4z"/>
<path d="M7807 9363 c-3 -5 1 -19 8 -33 l14 -25 -3 28 c-3 30 -11 43 -19 30z"/>
<path d="M7780 9259 c0 -5 5 -7 10 -4 6 3 10 8 10 11 0 2 -4 4 -10 4 -5 0 -10
-5 -10 -11z"/>
<path d="M7685 9160 c-10 -11 -16 -22 -13 -25 3 -3 13 6 22 20 20 30 16 32 -9
5z"/>
<path d="M5395 8445 c-4 -47 -5 -88 -3 -91 3 -2 8 34 12 82 4 47 5 88 3 91 -3
2 -8 -34 -12 -82z"/>
<path d="M1987 8282 c-3 -4 3 -18 12 -31 10 -13 21 -20 24 -15 3 5 -3 19 -13
32 -10 12 -21 19 -23 14z"/>
<path d="M9020 5940 c-20 -6 -21 -8 -5 -8 11 0 31 4 45 8 20 6 21 8 5 8 -11 0
-31 -4 -45 -8z"/>
<path d="M8958 5923 c6 -2 18 -2 25 0 6 3 1 5 -13 5 -14 0 -19 -2 -12 -5z"/>
<path d="M8918 5913 c7 -3 16 -2 19 1 4 3 -2 6 -13 5 -11 0 -14 -3 -6 -6z"/>
<path d="M8878 5903 c7 -3 16 -2 19 1 4 3 -2 6 -13 5 -11 0 -14 -3 -6 -6z"/>
<path d="M8828 5893 c6 -2 18 -2 25 0 6 3 1 5 -13 5 -14 0 -19 -2 -12 -5z"/>
<path d="M8778 5883 c6 -2 18 -2 25 0 6 3 1 5 -13 5 -14 0 -19 -2 -12 -5z"/>
<path d="M8868 5403 c12 -2 32 -2 45 0 12 2 2 4 -23 4 -25 0 -35 -2 -22 -4z"/>
<path d="M8763 5393 c9 -2 23 -2 30 0 6 3 -1 5 -18 5 -16 0 -22 -2 -12 -5z"/>
<path d="M1976 4853 c-4 -4 -42 -13 -84 -19 -76 -12 -76 -12 -24 -13 47 -1
122 20 122 33 0 8 -5 7 -14 -1z"/>
<path d="M1788 4833 c7 -3 16 -2 19 1 4 3 -2 6 -13 5 -11 0 -14 -3 -6 -6z"/>
<path d="M8798 4833 c18 -2 45 -2 60 0 15 2 0 4 -33 4 -33 0 -45 -2 -27 -4z"/>
<path d="M8378 4823 c6 -2 18 -2 25 0 6 3 1 5 -13 5 -14 0 -19 -2 -12 -5z"/>
<path d="M8788 4333 c6 -2 18 -2 25 0 6 3 1 5 -13 5 -14 0 -19 -2 -12 -5z"/>
<path d="M7727 2579 c7 -7 15 -10 18 -7 3 3 -2 9 -12 12 -14 6 -15 5 -6 -5z"/>
<path d="M7788 980 c70 -125 74 -131 88 -119 8 6 14 14 14 17 0 3 -3 3 -6 -1
-7 -7 -54 41 -54 55 0 5 -5 14 -10 21 -6 7 -19 23 -31 37 l-21 25 20 -35z"/>
<path d="M7889 854 c-13 -14 -17 -23 -9 -19 13 5 46 45 37 45 -2 0 -14 -11
-28 -26z"/>
<path d="M7970 744 c0 -8 5 -12 10 -9 6 4 8 11 5 16 -9 14 -15 11 -15 -7z"/>
<path d="M9810 536 c0 -2 8 -10 18 -17 15 -13 16 -12 3 4 -13 16 -21 21 -21
13z"/>
<path d="M9835 480 c10 -11 20 -20 23 -20 3 0 -3 9 -13 20 -10 11 -20 20 -23
20 -3 0 3 -9 13 -20z"/>
<path d="M9875 470 c10 -11 20 -20 23 -20 3 0 -3 9 -13 20 -10 11 -20 20 -23
20 -3 0 3 -9 13 -20z"/>
<path d="M9919 433 c6 -12 16 -25 21 -28 6 -4 8 -10 5 -15 -3 -5 0 -12 6 -16
8 -5 9 -3 4 6 -5 8 -3 11 6 8 8 -3 14 -13 14 -24 0 -12 7 -18 17 -16 14 2 30
-18 32 -43 1 -5 8 -10 16 -10 8 0 15 -7 15 -15 0 -8 7 -15 15 -15 8 -1 14 -6
13 -12 -1 -6 5 -17 15 -25 15 -12 16 -11 3 5 -7 9 -9 17 -3 17 14 0 35 -27 28
-38 -3 -5 22 -35 54 -67 56 -55 60 -58 60 -34 0 20 -20 45 -77 99 -43 40 -118
112 -167 159 -49 47 -84 76 -77 64z m259 -259 c47 -48 37 -51 -13 -3 -22 21
-36 39 -31 39 5 0 25 -16 44 -36z"/>
</g>
</svg>
