<?xml version="1.0" encoding="utf-8"?>
<!-- Generator: Adobe Illustrator 24.0.0, SVG Export Plug-In . SVG Version: 6.00 Build 0)  -->
<svg version="1.1" id="Layer_1" xmlns="http://www.w3.org/2000/svg" xmlns:xlink="http://www.w3.org/1999/xlink" x="0px" y="0px"
	 viewBox="0 0 207.9 208.1" style="enable-background:new 0 0 207.9 208.1;" xml:space="preserve">
<style type="text/css">
	.st0{fill:#BB0CE5;}
</style>
<g>
	<g>
		<path class="st0" d="M102,117.1c1.7,0.1,3.1-1.4,3.1-3c0-1.7-1.4-3-3.1-3c-1.7,0.1-3.1,1.5-2.9,3.2
			C99.2,116,100.3,117.1,102,117.1z"/>
		<path class="st0" d="M113.6,104.2c-1.8,0.1-2.8,1.1-3,2.9c-0.2,1.7,1.3,3.1,2.9,3.2c1.7,0.1,3.1-1.3,3.1-3
			C116.7,105.5,115.3,104.1,113.6,104.2z"/>
		<path class="st0" d="M109.7,95.2c0-1.8-0.9-2.9-2.7-3.1c-1.7-0.2-3.2,1.1-3.3,2.8c-0.1,1.7,1.2,3.2,2.8,3.3
			C108.2,98.2,109.7,96.9,109.7,95.2z"/>
		<path class="st0" d="M107.5,105c0.1-1.7-1.4-3.2-3-3.2c-1.8,0.1-2.9,1.1-3.1,2.8c-0.2,1.6,1.2,3.2,2.9,3.3
			C105.9,108,107.4,106.6,107.5,105z"/>
		<path class="st0" d="M98.1,102.1c-0.1-1.8-1.1-2.8-2.8-3c-1.7-0.2-3.1,1.2-3.2,2.9c-0.1,1.7,1.3,3.1,3,3.2
			C96.7,105.1,98.2,103.8,98.1,102.1z"/>
		<path class="st0" d="M115.9,88c-0.1,1.7,1.2,3.1,3,3c1.8-0.1,2.7-1.1,2.9-2.9c-0.1-1.8-1.1-2.9-2.9-2.9
			C117,85.2,116,86.2,115.9,88z"/>
		<path class="st0" d="M83.2,106.1c-1.7-0.1-3.1,1.2-3,3c0.1,1.8,1.1,2.7,2.7,2.9c1.9,0,3.2-1.2,3.1-2.9
			C86,107.3,85,106.2,83.2,106.1z"/>
		<path class="st0" d="M102.2,124c0-1.8-0.9-2.8-2.7-3.1c-1.8,0.1-3,0.9-3.1,2.7c-0.1,1.8,0.8,2.9,2.6,3.2
			C100.7,127,102.2,125.7,102.2,124z"/>
		<path class="st0" d="M85.2,90c0,1.8,1,2.8,2.8,3c1.8-0.1,2.9-1,3-2.8c0.1-1.8-0.9-2.9-2.7-3.1C86.6,86.9,85.2,88.2,85.2,90z"/>
		<path class="st0" d="M123.5,107c-1.8,0-2.9,1-3,2.8c-0.1,1.7,1.2,3.1,2.9,3.1c1.8-0.1,2.8-1.1,2.9-2.7
			C126.4,108.3,125.2,107,123.5,107z"/>
		<path class="st0" d="M92.9,121.4c0.2-1.7-1-3.2-2.8-3.2c-1.8,0-2.8,0.9-3.1,2.7c0.1,1.8,0.9,3,2.7,3.1
			C91.6,124.1,92.7,123.2,92.9,121.4z"/>
		<path class="st0" d="M123.6,119.2c-0.2-1.8-1.1-2.9-2.9-2.9c-1.8,0-2.8,1-2.9,2.8c-0.1,1.7,1.3,3.1,3,3
			C122.6,122,123.4,121,123.6,119.2z"/>
		<path class="st0" d="M100.4,93c0.2-1.7-1.2-3.2-2.9-3.2c-1.8,0-2.9,1-3.1,2.8c-0.2,1.7,1.2,3.1,3,3.2
			C99.1,95.7,100.2,94.8,100.4,93z"/>
		<path class="st0" d="M106.6,85.7c-0.1,1.8,0.9,2.9,2.8,3.1c1.7,0.2,3.2-1.2,3.1-2.9c-0.1-1.8-1.1-2.8-2.9-3
			C107.8,83,106.6,83.9,106.6,85.7z"/>
		<path class="st0" d="M111.9,126.4c0.1-1.8-0.9-2.9-2.7-3.1c-1.7-0.2-3.2,1.1-3.1,2.9c0,1.8,1,2.8,2.8,3
			C110.7,129,111.8,128.2,111.9,126.4z"/>
		<path class="st0" d="M128.7,100.2c-0.1-1.8-1-2.9-2.9-2.9c-1.8,0-2.9,0.9-3,2.8c-0.1,1.7,1.2,3.1,2.9,3.1
			C127.6,103.1,128.5,102,128.7,100.2z"/>
		<path class="st0" d="M88.3,99.8c-0.1-1.8-1.1-2.9-2.9-2.9c-1.8,0-2.9,1-3,2.8c-0.1,1.7,1.3,3.1,3,3.1
			C87.3,102.6,88.2,101.6,88.3,99.8z"/>
		<path class="st0" d="M92.5,108.8c-1.7-0.1-3.2,1.3-3.1,3c0.1,1.8,1.1,2.8,2.9,3c1.7,0.1,3.1-1.3,3.1-3.1
			C95.2,110,94.3,109,92.5,108.8z"/>
		<path class="st0" d="M119.4,97.7c-0.2-1.8-1.3-2.7-3-2.8c-1.8,0.2-2.8,1.2-2.9,3c-0.1,1.7,1.4,3.1,3.1,3
			C118.3,100.8,119.6,99.4,119.4,97.7z"/>
		<path class="st0" d="M114.3,116.9c-0.2-1.8-1.1-2.8-2.9-3c-1.7-0.1-3.1,1.3-3.1,3c0,1.7,1.4,3.1,3.1,2.9
			C113.3,119.7,114.2,118.7,114.3,116.9z"/>
		<path class="st0" d="M96.8,83c0,1.8,1,2.8,2.8,3c1.8-0.1,2.9-1,3-2.8c0.1-1.8-0.9-2.9-2.7-3.1C98.2,80,96.8,81.3,96.8,83z"/>
		<path class="st0" d="M133.2,121.9c-0.1-1.7-1.1-2.7-2.9-2.7c-1.7,0-2.9,1.2-2.9,2.9c0,1.7,1.3,2.9,3,2.8
			C132.1,124.8,133.4,123.5,133.2,121.9z"/>
		<path class="st0" d="M114.6,64c-1.7,0.1-2.7,1-2.8,2.8c-0.1,1.7,1.2,2.9,3.2,2.9c1.4-0.2,2.4-1,2.5-2.8
			C117.5,65.2,116.2,63.9,114.6,64z"/>
		<path class="st0" d="M71.4,65.8c-0.1,1.7,1.2,3,2.9,2.9c1.8-0.1,2.6-1.1,2.8-2.8c-0.2-1.7-1-2.8-2.8-2.8
			C72.6,63.1,71.6,64.1,71.4,65.8z"/>
		<path class="st0" d="M52,120.5c-0.1-1.7-1.2-2.6-2.6-2.7c-1.8,0-3.1,1.3-3,2.8c0.1,1.7,1,2.7,2.7,2.8
			C50.8,123.5,52.1,122.1,52,120.5z"/>
		<path class="st0" d="M83.7,65.8c-1.7,0.1-2.8,0.9-3,2.7c-0.2,1.7,1.1,3,2.7,3c1.7,0.1,3-1.2,2.9-2.9C86.3,66.9,85.3,66,83.7,65.8z
			"/>
		<path class="st0" d="M124,66.3c-1.7-0.1-3,1.2-2.9,2.9c0.1,1.7,1,2.7,2.7,2.8c1.7,0.1,3-1.2,2.9-3.2
			C126.6,67.4,125.7,66.4,124,66.3z"/>
		<path class="st0" d="M83.2,118.7c-0.2-1.8-1.1-2.9-3-2.8c-1.8,0-2.9,1.1-2.8,2.9c0,1.8,1.1,2.9,2.9,2.8
			C82.2,121.6,83.1,120.5,83.2,118.7z"/>
		<path class="st0" d="M90,71c0,1.8,1,2.9,2.9,2.9c1.9,0,2.7-1.1,2.9-2.9c-0.2-1.8-1.2-2.8-3-2.7C90.9,68.2,90,69.2,90,71z"/>
		<path class="st0" d="M133.2,69.1c-1.4,0.2-2.4,1-2.4,2.8c-0.1,1.7,1.2,2.9,2.9,2.9c1.7-0.1,2.7-1.1,2.7-2.8
			C136.5,70.3,135.2,69.1,133.2,69.1z"/>
		<path class="st0" d="M154.5,117.3c-0.1-1.7-1.2-2.6-2.9-2.7c-1.7,0.2-2.7,1.1-2.7,2.8c0,1.7,1,2.7,2.7,2.8
			C153.3,120.3,154.6,118.9,154.5,117.3z"/>
		<path class="st0" d="M59.4,72.8c0,1.7,0.9,2.7,2.6,2.9c1.6,0.1,3-1.2,2.9-2.8c-0.1-1.7-1.1-2.6-2.7-2.8
			C60.5,70.2,59.5,71,59.4,72.8z"/>
		<path class="st0" d="M99.7,73.6c-0.1,1.7,1.1,3,2.8,3c1.7,0,3-1.2,3-2.9c0-1.7-1-2.7-2.7-2.9C101.1,70.8,99.7,72,99.7,73.6z"/>
		<path class="st0" d="M61.8,123c-0.2-1.7-1-2.8-2.7-2.9c-1.7-0.1-2.8,0.9-2.9,2.6c-0.1,1.7,1.2,3,2.8,3
			C60.7,125.7,61.6,124.7,61.8,123z"/>
		<path class="st0" d="M142.9,65c0.1,1.7,1,2.7,2.7,2.8c1.6,0.1,3-1.3,2.8-2.9c-0.1-1.7-1.2-2.6-2.6-2.7
			C144.1,62.2,142.8,63.5,142.9,65z"/>
		<path class="st0" d="M104.9,61.2c-1.7-0.1-3,1.2-2.9,2.9c0.1,1.7,1.1,2.7,2.8,2.8c1.7,0.1,2.9-1.2,2.9-3.2
			C107.5,62.3,106.7,61.3,104.9,61.2z"/>
		<path class="st0" d="M64.4,60.8c-1.6,0.3-2.7,1.1-2.6,2.9c0,1.7,1.1,2.7,2.8,2.7c1.6,0.1,2.9-1.3,2.8-2.9
			C67.1,61.7,66.1,60.9,64.4,60.8z"/>
		<path class="st0" d="M142.5,124.3c0.1-1.7-1.3-2.9-3.2-2.8c-1.4,0.2-2.4,1.1-2.4,2.8c0,1.7,1.3,2.9,2.9,2.8
			C141.5,127,142.4,126.1,142.5,124.3z"/>
		<path class="st0" d="M133.1,62.1c-0.1,1.6,1.2,3,2.9,2.9c1.7-0.1,2.6-1.1,2.8-2.8c-0.2-1.7-1.1-2.7-2.8-2.8
			C134.3,59.4,133.3,60.4,133.1,62.1z"/>
		<path class="st0" d="M95.7,58.9c-1.7-0.1-3,1.2-2.9,2.9c0.1,1.7,1,2.7,2.7,2.8c1.7,0.1,2.9-1.2,2.9-3.2C98.3,60,97.4,59,95.7,58.9
			z"/>
		<path class="st0" d="M71,125.7c0-1.7-1.3-2.9-2.9-2.8c-1.7,0.1-2.7,1.1-2.7,2.8c-0.1,1.7,1.3,2.9,3.2,2.8
			C70,128.4,71,127.5,71,125.7z"/>
		<path class="st0" d="M123.9,59.8c-0.1,1.6,1.2,3,2.9,2.9c1.7-0.1,2.6-1.1,2.7-2.5c0-1.9-1.2-3.1-2.8-3.1
			C125,57.1,124,58,123.9,59.8z"/>
		<path class="st0" d="M83,59.1c0.1,1.7,1.2,2.6,2.9,2.7c1.6-0.2,2.7-1.1,2.7-2.9c0-1.7-1-2.7-2.8-2.8C84.2,56.1,82.9,57.4,83,59.1z
			"/>
		<path class="st0" d="M152.2,127.1c-0.2-1.7-1-2.8-2.8-2.8c-1.7,0-2.7,0.9-2.9,2.7c-0.1,1.6,1.2,3,2.8,2.9
			C151.2,129.8,152,128.8,152.2,127.1z"/>
		<path class="st0" d="M114.1,56.9c-0.1,1.7,1.2,3,2.8,2.9c1.8-0.1,2.6-1.1,2.8-2.5c0-1.9-1.2-3.2-2.7-3.1
			C115.3,54.3,114.3,55.2,114.1,56.9z"/>
		<path class="st0" d="M73.8,56.5c0,1.7,1,2.6,2.3,2.9c1.8,0.1,3.2-1,3.2-2.5c0.1-1.7-0.8-2.8-2.5-3C75.3,53.6,73.8,54.9,73.8,56.5z
			"/>
		<path class="st0" d="M80.9,128c-0.2-1.6-1-2.8-2.9-2.8c-1.7,0-2.8,1-2.8,2.7c-0.1,1.8,0.9,2.9,2.7,3C79.7,131,80.6,129.9,80.9,128
			z"/>
		<path class="st0" d="M121.2,128.9c-0.2-1.6-1-2.8-2.9-2.8c-1.8,0-2.9,1-2.9,2.8c0,1.8,1,2.9,2.8,2.9
			C120.1,131.9,121,130.8,121.2,128.9z"/>
		<path class="st0" d="M135.5,100.1c-1.7,0-2.7,1-2.9,2.7c-0.1,1.7,1.1,3,2.8,3.1c1.7,0.1,3-1.1,3-2.8
			C138.4,101.4,137.2,100.1,135.5,100.1z"/>
		<path class="st0" d="M154,98.3c-0.1,1.6,1.3,3,2.9,2.8c1.7-0.1,2.6-1.2,2.7-2.6c0-1.8-1.3-3.1-2.8-3
			C155.1,95.6,154.1,96.6,154,98.3z"/>
		<path class="st0" d="M73.2,97c0,1.8,1.1,2.8,2.9,2.8c1.8,0,2.7-1.1,2.9-2.9c-0.2-1.8-1.1-2.9-2.9-2.8C74.3,94.1,73.2,95.2,73.2,97
			z"/>
		<path class="st0" d="M64.1,101.1c-1.7-0.1-3,1.2-2.9,2.9c0.1,1.7,1.1,2.7,2.8,2.8c1.7,0.1,2.9-1.2,2.9-3.2
			C66.7,102.2,65.8,101.2,64.1,101.1z"/>
		<path class="st0" d="M144.7,95.9c-0.2,1.7,1.1,3,3,3c1.4-0.1,2.4-0.9,2.6-2.6c0.1-1.7-1.1-3-2.7-3
			C145.9,93.2,144.9,94.1,144.7,95.9z"/>
		<path class="st0" d="M69.2,95c0.2-1.7-1-3.1-2.6-3.1c-1.7-0.1-2.8,0.8-3,2.5c-0.2,1.7,1,3,2.9,3.2C67.9,97.5,69,96.7,69.2,95z"/>
		<path class="st0" d="M141.9,105.4c0.1,1.7,1,2.7,2.8,2.8c1.7,0.1,2.9-1.2,2.9-3.2c-0.1-1.4-1-2.4-2.8-2.5
			C143.1,102.4,141.8,103.7,141.9,105.4z"/>
		<path class="st0" d="M135,93.1c-0.1,1.8,0.9,2.9,2.7,3c1.8,0.1,2.8-1,3-2.8c-0.2-1.8-1.1-2.9-2.9-2.9
			C136.1,90.4,135,91.4,135,93.1z"/>
		<path class="st0" d="M54.3,92c0.1,1.7,1.2,2.6,2.9,2.7c1.6-0.2,2.7-1.1,2.7-2.9c0-1.7-1-2.7-2.8-2.8C55.4,89,54.1,90.4,54.3,92z"
			/>
		<path class="st0" d="M73.3,103.8c-1.7,0-2.9,1.2-2.9,2.9c0,1.7,1.3,2.9,3,2.8c1.7-0.1,2.9-1.4,2.8-3
			C76.1,104.8,75.1,103.9,73.3,103.8z"/>
		<path class="st0" d="M125.6,90.9c0,1.8,1,2.9,2.8,2.9c1.8,0,2.8-1,3-3c-0.2-1.6-1-2.8-2.9-2.8C126.7,88.1,125.7,89.1,125.6,90.9z"
			/>
		<path class="st0" d="M157.3,108c-0.1-1.7-1.1-2.6-2.5-2.7c-1.9,0-3.1,1.2-3.1,2.8c0,1.7,1,2.7,2.7,2.8
			C156,111,157.4,109.7,157.3,108z"/>
		<path class="st0" d="M75.5,87.7c0,1.7,1.3,2.9,3,2.8c1.7-0.1,2.9-1.4,2.8-3c-0.1-1.7-1.1-2.7-2.9-2.7
			C76.8,84.8,75.5,86.1,75.5,87.7z"/>
		<path class="st0" d="M147,85.8c-0.1,1.9,1,3.2,2.6,3.3c1.7,0.1,2.8-0.8,3-2.5c0.2-1.6-1-3.1-2.7-3.1
			C148.2,83.5,147.3,84.4,147,85.8z"/>
		<path class="st0" d="M66.3,84.7c-0.2,1.7,1.1,3,2.7,3.1c1.7,0.1,3-1.2,2.9-2.9c0-1.8-1-2.6-2.7-2.9C67.5,82.1,66.5,83,66.3,84.7z"
			/>
		<path class="st0" d="M54.8,110.9c-0.2-1.7-1-2.8-2.7-2.8c-1.7-0.1-2.7,0.9-2.9,2.6c-0.2,1.6,1.2,3,2.8,3
			C53.7,113.6,54.6,112.6,54.8,110.9z"/>
		<path class="st0" d="M137.7,83.9c0,1.7,1.2,3,2.9,2.9c1.7-0.1,2.6-1.1,2.8-2.4c0-1.9-1.1-3.1-2.6-3.2
			C139.1,81.1,137.8,82.3,137.7,83.9z"/>
		<path class="st0" d="M56.6,82.6c0.1,1.7,1.1,2.6,2.7,2.8c1.7-0.2,2.8-1,2.8-2.7c0.1-1.7-0.9-2.7-2.6-2.9
			C57.9,79.6,56.6,81,56.6,82.6z"/>
		<path class="st0" d="M135.6,112.4c0-1.7-1.2-3-2.8-3c-1.7,0-3,1.2-2.9,2.9c0.1,1.7,1,2.7,2.7,2.8
			C134.2,115.3,135.5,114,135.6,112.4z"/>
		<path class="st0" d="M128,81.2c0,1.8,1,2.9,2.9,2.9c1.9,0,2.7-1.1,2.9-2.9c-0.2-1.8-1.2-2.8-3-2.8C129,78.4,128,79.4,128,81.2z"/>
		<path class="st0" d="M87.6,80.8c0,1.8,1.1,2.9,2.9,2.8c1.8,0,2.8-1.1,2.9-2.9c-0.2-1.8-1.1-2.9-3-2.8
			C88.6,77.9,87.6,78.9,87.6,80.8z"/>
		<path class="st0" d="M64.1,113.7c0-1.7-1.3-2.9-2.9-2.8c-1.7,0.1-2.7,1.1-2.7,2.8c-0.1,1.7,1.3,2.9,3.2,2.8
			C63,116.3,64,115.4,64.1,113.7z"/>
		<path class="st0" d="M51.5,101.4c0.1,1.7,0.9,2.9,2.6,3c1.7,0.1,2.8-0.8,3-2.5c0.2-1.6-1-3.1-2.7-3.1
			C52.7,98.8,51.8,99.8,51.5,101.4z"/>
		<path class="st0" d="M145.3,115.1c0.1-1.7-1.2-3-2.9-2.9c-1.7,0.1-2.7,1.1-2.8,2.8c-0.1,1.7,1.2,2.9,3.2,2.9
			C144.2,117.7,145.2,116.9,145.3,115.1z"/>
		<path class="st0" d="M118.7,79c0.1,1.7,1.1,2.7,2.8,2.7c1.7,0.1,2.9-1.2,2.9-2.9c0-1.7-1.3-2.9-3-2.8
			C119.8,76.1,118.6,77.4,118.7,79z"/>
		<path class="st0" d="M78.4,77.9c0,1.8,1,2.9,2.9,2.9c1.9,0,2.7-1.1,2.9-3c-0.2-1.8-1.2-2.8-3-2.7C79.3,75.2,78.4,76.2,78.4,77.9z"
			/>
		<path class="st0" d="M152.7,74.3c-1.7,0-2.7,0.9-2.9,2.6c-0.1,1.6,1.2,3,2.8,2.9c1.7-0.1,2.6-1.1,2.8-2.8
			C155.3,75.4,154.4,74.3,152.7,74.3z"/>
		<path class="st0" d="M109,76.1c0,1.8,1,2.9,2.8,2.9c1.8,0,2.8-1,3-3c-0.2-1.6-1-2.8-2.9-2.8C110,73.2,109,74.2,109,76.1z"/>
		<path class="st0" d="M71.6,72.8c-1.7-0.1-3,1.1-3,2.8c0,1.7,1.3,2.9,2.9,2.8c1.7-0.1,2.6-1.1,2.8-2.8C74.2,74,73.3,72.9,71.6,72.8
			z"/>
		<path class="st0" d="M73.9,115.9c-0.2-1.8-1.2-2.8-3-2.7c-1.7,0.1-2.7,1.1-2.7,2.8c0,1.8,1,2.9,2.9,2.9
			C72.9,118.8,73.8,117.7,73.9,115.9z"/>
		<path class="st0" d="M143,71.5c-1.7,0-2.7,0.9-2.9,2.7c-0.1,1.7,1.2,3,2.9,2.9c1.8-0.1,2.6-1.1,2.8-2.8
			C145.6,72.6,144.7,71.5,143,71.5z"/>
		<path class="st0" d="M109.1,136c0-1.7-1.2-2.9-2.9-2.9c-1.7,0-2.9,1.3-2.8,3c0.1,1.7,1.1,2.7,2.8,2.8
			C107.9,138.9,109.1,137.6,109.1,136z"/>
		<path class="st0" d="M146.4,139.2c1.7-0.1,2.8-0.9,3-2.6c0.1-1.7-0.8-2.8-2.5-3c-1.6-0.2-3.1,1-3.1,2.6
			C143.8,138,144.8,138.9,146.4,139.2z"/>
		<path class="st0" d="M75.2,140.6c1.7,0,2.9-1.3,2.8-2.9c-0.1-1.7-1.1-2.6-2.5-2.7c-1.9,0-3.1,1.1-3.2,2.7
			C72.3,139.3,73.5,140.6,75.2,140.6z"/>
		<path class="st0" d="M116,141.1c1.9,0,2.8-1.1,2.9-2.9c-0.2-1.8-1.1-2.8-3-2.8c-1.7,0.1-2.7,1.1-2.7,2.8
			C113.1,140,114.1,141.1,116,141.1z"/>
		<path class="st0" d="M84.9,142.9c1.8,0,2.6-1,2.9-2.7c-0.1-1.7-0.9-2.8-2.6-3c-1.7-0.2-3,1.1-3.1,2.7
			C82,141.7,83.2,143,84.9,142.9z"/>
		<path class="st0" d="M125.1,143.9c1.6,0.1,2.9-1,3-2.5c0.2-1.7-1-3.1-2.6-3.1c-1.7-0.1-2.8,0.8-3,2.5
			C122.2,142.4,123.4,143.8,125.1,143.9z"/>
		<path class="st0" d="M94.6,145.7c1.4-0.2,2.4-1.1,2.4-2.8c0-1.7-1.3-3-2.9-2.9c-1.7,0.1-2.7,1.1-2.7,2.8
			C91.3,144.5,92.6,145.8,94.6,145.7z"/>
		<path class="st0" d="M137.3,143.6c0-1.9-1.2-3.1-2.8-3.1c-1.7,0-2.7,1-2.8,2.7c-0.1,1.6,1.2,3,2.9,2.9
			C136.4,146.1,137.2,145,137.3,143.6z"/>
		<path class="st0" d="M104,148c1.6,0,2.7-1.2,2.7-2.8c0-1.7-1.3-2.9-2.9-2.8c-1.7,0.1-2.7,1.1-2.7,2.8
			C101.1,146.9,102.4,148.1,104,148z"/>
		<path class="st0" d="M75.7,147.1c-0.2-1.7-1-2.8-2.7-2.8c-1.7-0.1-2.7,0.9-2.9,2.6c-0.2,1.6,1.2,3,2.8,2.9
			C74.6,149.8,75.5,148.8,75.7,147.1z"/>
		<path class="st0" d="M116,148c0.1-1.7-1.2-2.9-2.9-2.9c-1.7,0.1-2.7,1.1-2.7,2.8c-0.1,1.7,1.2,2.9,3.2,2.9
			C115,150.6,116,149.8,116,148z"/>
		<path class="st0" d="M84.9,149.7c-0.2-1.7-1.2-2.6-2.6-2.7c-1.8,0.1-3,1.3-3,2.9c0.1,1.7,1.1,2.7,2.8,2.7
			C83.8,152.7,85.1,151.3,84.9,149.7z"/>
		<path class="st0" d="M125.7,150.3c0-1.7-1-2.7-2.7-2.8c-1.6-0.1-3,1.3-2.9,2.9c0.1,1.7,1.2,2.6,2.9,2.7
			C124.7,152.9,125.7,152,125.7,150.3z"/>
		<path class="st0" d="M94.7,152.1c-0.2-1.7-1.1-2.7-2.8-2.7c-1.7,0-2.7,1-2.8,2.7c-0.1,1.6,1.3,3,2.9,2.8
			C93.7,154.8,94.6,153.8,94.7,152.1z"/>
		<path class="st0" d="M135,153.4c0.2-1.6-1-3.1-2.6-3.1c-1.7,0-2.6,1-2.9,2.3c-0.1,1.8,1,3.1,2.5,3.2
			C133.7,155.9,134.7,155.1,135,153.4z"/>
		<path class="st0" d="M103.9,154.9c-0.1-1.7-1.1-2.6-2.5-2.7c-1.9,0-3.1,1.2-3.1,2.8c0,1.7,1,2.7,2.7,2.8
			C102.7,157.9,104,156.5,103.9,154.9z"/>
		<path class="st0" d="M113.7,157.3c-0.2-1.7-1.1-2.7-2.8-2.8c-1.7,0-2.7,1-2.8,2.7c-0.1,1.6,1.2,3,2.8,2.9
			C112.7,160,113.5,158.9,113.7,157.3z"/>
		<path class="st0" d="M104.8,54.6c0,1.7,0.9,2.7,2.6,3c1.7-0.1,2.9-0.9,3-2.6c0.1-1.7-0.8-2.8-2.5-3
			C106.3,51.8,104.9,53,104.8,54.6z"/>
		<path class="st0" d="M90.1,130.8c0-1.7-1.3-2.9-2.9-2.9c-1.7,0.1-2.7,1-2.8,2.8c-0.1,1.7,1.1,3,2.8,3
			C88.9,133.7,90.1,132.5,90.1,130.8z"/>
		<path class="st0" d="M130.5,131.1c-0.3-1.6-1.1-2.7-3-2.7c-1.7,0-2.7,1-2.8,2.7c0,1.8,1,2.9,2.8,2.9
			C129.4,134.2,130.3,133.1,130.5,131.1z"/>
		<path class="st0" d="M95.1,51.9c-0.1,1.6,1.3,3,2.9,2.9c1.7-0.1,2.6-1.2,2.7-2.6c0-1.8-1.3-3.1-2.8-3
			C96.2,49.2,95.2,50.2,95.1,51.9z"/>
		<path class="st0" d="M56,135.5c1.7-0.1,2.8-1,2.9-2.7c0.1-1.7-0.9-2.7-2.6-2.9c-1.6-0.2-3,1.1-3,2.7
			C53.4,134.4,54.4,135.2,56,135.5z"/>
		<path class="st0" d="M99.9,133.2c0-1.7-1.2-3-2.9-2.9c-1.7,0-2.7,1-2.9,2.7c-0.1,1.7,1.1,3,2.8,3.1
			C98.5,136.1,99.8,134.9,99.9,133.2z"/>
		<path class="st0" d="M137.3,136.9c1.7,0,2.6-1,2.8-2.7c-0.1-1.7-0.9-2.8-2.6-3c-1.7-0.2-3,1.1-3,2.7
			C134.4,135.6,135.7,136.9,137.3,136.9z"/>
		<path class="st0" d="M65.9,137.8c1.8-0.1,2.6-1.1,2.8-2.5c0-1.9-1.2-3.2-2.7-3.2c-1.7,0-2.7,0.9-2.9,2.7
			C63,136.5,64.3,137.9,65.9,137.8z"/>
		<path class="st0" d="M85.9,49.4c-0.1,1.7,0.8,2.8,2.5,3c1.6,0.2,3.1-1,3.1-2.6c0-1.7-1-2.6-2.6-2.9C87.1,46.9,86,47.7,85.9,49.4z"
			/>
		<path class="st0" d="M86.8,173.9c1.7,0,2.6-1.1,2.8-2.8c-0.3-1.7-1.2-2.7-2.9-2.7c-1.6,0.1-2.6,1.1-2.6,2.7
			C84,172.8,85.1,173.9,86.8,173.9z"/>
		<path class="st0" d="M160.9,170.3c-0.2-1.6-1-2.6-2.6-2.7c-1.6-0.1-2.6,1-2.8,2.5c-0.2,1.4,1.3,2.9,2.7,2.8
			C159.8,172.8,160.7,171.8,160.9,170.3z"/>
		<path class="st0" d="M188.2,106.3c0.1-1.4-1.3-2.9-2.8-2.8c-1.6,0.1-2.6,1.1-2.6,2.7c0,1.6,1.1,2.5,2.6,2.7
			C187.1,108.8,188.1,107.9,188.2,106.3z"/>
		<path class="st0" d="M117.8,172c1.7,0.1,2.6-1,2.9-2.7c-0.2-1.7-1.1-2.8-2.8-2.8c-1.6,0-2.6,1-2.7,2.6
			C115,170.9,116.1,172,117.8,172z"/>
		<path class="st0" d="M77,171.6c1.7-0.2,2.7-1.1,2.7-2.8c0-1.6-1-2.6-2.6-2.6c-1.7-0.1-2.8,1-2.8,2.7
			C74.3,170.5,75.4,171.4,77,171.6z"/>
		<path class="st0" d="M148.6,170.1c1.6,0,2.6-1.1,2.6-2.7c0-1.7-1.1-2.6-2.8-2.8c-1.6,0.3-2.6,1.1-2.6,2.7
			C145.8,169.1,146.9,170.2,148.6,170.1z"/>
		<path class="st0" d="M110.8,166.9c-0.1-1.7-1.1-2.7-2.8-2.7c-1.7,0-2.7,1.1-2.7,2.8c0,1.7,1.1,2.6,2.8,2.7
			C109.8,169.5,110.9,168.7,110.8,166.9z"/>
		<path class="st0" d="M67.7,168.8c1.7,0,2.6-1.1,2.8-2.7c-0.3-1.7-1.2-2.7-2.9-2.7c-1.6,0-2.6,1.1-2.6,2.6
			C65,167.7,66,168.8,67.7,168.8z"/>
		<path class="st0" d="M45,108.6c0-1.7-1-2.7-2.7-2.8c-1.7,0-2.7,1-2.8,2.7c0,1.7,1.1,2.6,2.7,2.8C43.9,111.2,45,110.3,45,108.6z"/>
		<path class="st0" d="M139.2,167.9c1.7,0,2.6-1.1,2.8-2.8c-0.3-1.6-1.2-2.7-2.9-2.6c-1.6,0.1-2.6,1.1-2.6,2.7
			C136.5,166.8,137.5,167.9,139.2,167.9z"/>
		<path class="st0" d="M101.6,164.2c0-1.7-1.1-2.6-2.7-2.8c-1.7,0.2-2.8,1.1-2.8,2.8c0,1.7,1,2.8,2.7,2.8
			C100.5,167,101.6,166,101.6,164.2z"/>
		<path class="st0" d="M58,166.4c1.7,0,2.8-1.1,2.7-2.8c0-1.6-1.1-2.4-2.6-2.7c-1.6,0.2-2.7,1-2.7,2.6
			C55.2,165.3,56.3,166.4,58,166.4z"/>
		<path class="st0" d="M132.7,162.2c-0.3-1.6-1.2-2.7-2.9-2.6c-1.7,0.1-2.7,1.1-2.6,2.8c0.1,1.7,1.1,2.7,2.8,2.6
			C131.7,165,132.6,163.9,132.7,162.2z"/>
		<path class="st0" d="M166.6,110.5c-0.1-1.7-1-2.8-2.7-2.9c-1.7-0.1-2.8,0.9-2.9,2.6c-0.1,1.7,0.9,2.8,2.6,2.9
			C165.4,113.2,166.3,112.2,166.6,110.5z"/>
		<path class="st0" d="M91.8,162c0-1.7-1-2.8-2.7-2.8c-1.7-0.1-2.8,1-2.8,2.7c-0.1,1.7,1,2.6,2.7,2.9
			C90.7,164.6,91.8,163.7,91.8,162z"/>
		<path class="st0" d="M48.6,163.7c1.5,0.2,2.9-1.3,2.8-2.8c-0.1-1.6-1.1-2.5-2.6-2.7c-1.5,0-2.9,1.3-2.8,2.7
			C46.1,162.5,47,163.5,48.6,163.7z"/>
		<path class="st0" d="M160.5,163.2c1.6-0.2,2.6-1.1,2.7-2.7c0-1.6-1-2.6-2.5-2.8c-1.4-0.2-2.9,1.3-2.8,2.7
			C157.9,162.2,158.9,163,160.5,163.2z"/>
		<path class="st0" d="M112.7,185.6c-1.6,0.2-2.6,1.1-2.6,2.7c0,1.6,1,2.5,2.6,2.7c1.4,0.1,2.9-1.3,2.8-2.7
			C115.3,186.7,114.3,185.8,112.7,185.6z"/>
		<path class="st0" d="M103,183.3c-1.6,0-2.6,1-2.7,2.6c-0.1,1.4,1.4,2.9,2.8,2.7c1.6-0.2,2.4-1.2,2.6-2.7
			C105.5,184.4,104.6,183.3,103,183.3z"/>
		<path class="st0" d="M134.1,181.5c-1.6,0.1-2.5,1-2.7,2.6c-0.1,1.4,1.3,2.9,2.7,2.8c1.6-0.1,2.4-1.1,2.6-2.6
			C136.8,182.8,135.5,181.4,134.1,181.5z"/>
		<path class="st0" d="M96.4,183.2c0-1.6-1-2.6-2.6-2.7c-1.5-0.1-2.9,1.4-2.7,2.8c0.2,1.6,1.2,2.4,2.8,2.6
			C95.4,185.7,96.4,184.8,96.4,183.2z"/>
		<path class="st0" d="M127.5,181.4c-0.1-1.5-1.4-2.8-2.8-2.7c-1.6,0.1-2.5,1.1-2.6,2.7c-0.1,1.5,1.4,2.9,2.9,2.7
			C126.6,183.9,127.4,182.9,127.5,181.4z"/>
		<path class="st0" d="M20.5,103.5c0.1,1.6,1.1,2.5,2.6,2.7c1.5,0,2.9-1.3,2.8-2.6c-0.1-1.6-1-2.6-2.6-2.8
			C21.9,100.6,20.4,102,20.5,103.5z"/>
		<path class="st0" d="M84,178.2c-1.6,0-2.5,1.1-2.7,2.7c-0.1,1.5,1.4,2.9,2.8,2.7c1.6-0.2,2.4-1.2,2.6-2.8
			C86.4,179.3,85.6,178.2,84,178.2z"/>
		<path class="st0" d="M178.6,103.4c-0.3-1.5-1.1-2.7-2.8-2.7c-1.6,0-2.6,1-2.7,2.5c-0.1,1.7,0.9,2.8,2.6,2.9
			C177.4,106.3,178.3,105.2,178.6,103.4z"/>
		<path class="st0" d="M115.1,176.4c-1.6-0.1-2.7,0.9-2.8,2.5c-0.1,1.7,1,2.6,2.6,2.9c1.6-0.2,2.7-1,2.8-2.6
			C117.9,177.5,116.8,176.4,115.1,176.4z"/>
		<path class="st0" d="M77.4,178.2c0.1-1.6-1-2.6-2.5-2.8c-1.4-0.2-2.9,1.3-2.8,2.7c0.1,1.6,1.1,2.5,2.7,2.7
			C76.3,180.7,77.3,179.8,77.4,178.2z"/>
		<path class="st0" d="M146.1,174.5c-1.4-0.1-2.9,1.4-2.7,2.8c0.2,1.6,1.2,2.4,2.8,2.5c1.6-0.3,2.6-1.2,2.6-2.8
			C148.7,175.6,147.7,174.6,146.1,174.5z"/>
		<path class="st0" d="M105.7,179.1c1.7-0.2,2.7-1.1,2.8-2.8c0-1.6-1-2.6-2.5-2.7c-1.7-0.1-2.8,0.9-2.9,2.6
			C103,177.9,104.1,178.8,105.7,179.1z"/>
		<path class="st0" d="M65,173.1c-1.4-0.1-2.9,1.4-2.7,2.8c0.2,1.6,1.2,2.4,2.7,2.6c1.6-0.3,2.6-1.1,2.6-2.7
			C67.6,174.2,66.6,173.3,65,173.1z"/>
		<path class="st0" d="M139.6,174.5c-0.2-1.6-1-2.6-2.6-2.7c-1.7-0.1-2.8,0.9-2.8,2.6c0,1.7,1,2.8,2.7,2.7
			C138.5,177.1,139.4,176,139.6,174.5z"/>
		<path class="st0" d="M95.9,176.7c1.7,0.1,2.6-1,2.9-2.6c-0.2-1.7-1-2.8-2.7-2.8c-1.6,0-2.6,0.9-2.7,2.5
			C93.2,175.5,94.2,176.6,95.9,176.7z"/>
		<path class="st0" d="M58.4,173.1c0.2-1.4-1.3-2.9-2.7-2.8c-1.6,0.1-2.6,1.1-2.6,2.7c0,1.6,1,2.5,2.6,2.7
			C57.2,175.6,58.2,174.7,58.4,173.1z"/>
		<path class="st0" d="M35.7,105.8c0-1.7-1.1-2.6-2.8-2.8c-1.6,0.3-2.7,1.2-2.6,2.9c0.1,1.6,1.1,2.6,2.7,2.6
			C34.6,108.5,35.7,107.5,35.7,105.8z"/>
		<path class="st0" d="M127,174.8c1.7,0,2.8-1,2.8-2.7c0-1.7-1.1-2.6-2.9-2.8c-1.5,0.3-2.6,1.2-2.6,2.9
			C124.5,173.8,125.5,174.8,127,174.8z"/>
		<path class="st0" d="M171.2,132.2c-0.2-1.7-1.1-2.7-2.8-2.7c-1.6,0-2.6,1-2.6,2.6c0,1.7,1,2.8,2.7,2.8
			C170.1,135,170.9,133.9,171.2,132.2z"/>
		<path class="st0" d="M41.7,151.7c1.6-0.2,2.7-1,2.8-2.6c0.1-1.7-0.9-2.8-2.6-2.9c-1.6-0.1-2.7,0.9-2.8,2.5
			C39,150.4,40,151.4,41.7,151.7z"/>
		<path class="st0" d="M156.4,148.5c-0.2-1.6-1-2.7-2.8-2.7c-1.6,0-2.6,0.9-2.8,2.5c-0.1,1.7,0.9,2.8,2.6,2.9
			C155.1,151.3,156,150.2,156.4,148.5z"/>
		<path class="st0" d="M39.9,127.5c-0.3-1.6-1.2-2.7-2.9-2.6c-1.6,0.1-2.6,1.1-2.6,2.7c0,1.7,1.1,2.7,2.7,2.7
			C38.9,130.3,39.7,129.1,39.9,127.5z"/>
		<path class="st0" d="M31.9,149.3c1.4,0.2,2.9-1.3,2.8-2.7c-0.1-1.6-1.1-2.4-2.7-2.6c-1.6,0.2-2.6,1.1-2.6,2.7
			C29.4,148.1,30.4,149.1,31.9,149.3z"/>
		<path class="st0" d="M147,146.1c0-1.7-1-2.8-2.7-2.8c-1.7,0-2.7,1-2.8,2.7c0,1.7,1.1,2.6,2.7,2.8C145.9,148.7,147,147.9,147,146.1
			z"/>
		<path class="st0" d="M39.9,120.6c1.7,0.1,2.6-1,2.9-2.8c-0.3-1.5-1.1-2.7-2.9-2.6c-1.6,0-2.6,1-2.7,2.6
			C37.1,119.4,38.1,120.5,39.9,120.6z"/>
		<path class="st0" d="M30.6,124.8c-0.2-1.6-1.1-2.6-2.7-2.7c-1.6,0-2.6,1-2.7,2.6c-0.1,1.5,1.3,2.9,2.8,2.8
			C29.5,127.4,30.4,126.4,30.6,124.8z"/>
		<path class="st0" d="M65.9,144.9c-0.1-1.7-1-2.8-2.7-2.9c-1.7-0.1-2.8,0.9-2.9,2.6c-0.1,1.7,0.9,2.8,2.6,2.9
			C64.7,147.6,65.7,146.5,65.9,144.9z"/>
		<path class="st0" d="M175.4,147c1.6-0.3,2.6-1.1,2.6-2.7c0-1.6-1-2.6-2.6-2.7c-1.5-0.1-2.9,1.4-2.7,2.8
			C172.8,146,173.8,146.8,175.4,147z"/>
		<path class="st0" d="M173.5,122.6c-0.2-1.7-1-2.8-2.8-2.8c-1.6,0-2.6,1-2.7,2.5c-0.1,1.7,0.9,2.8,2.6,2.9
			C172.3,125.3,173.2,124.2,173.5,122.6z"/>
		<path class="st0" d="M164.3,120.3c-0.1-1.7-1-2.8-2.7-2.9c-1.7-0.1-2.8,0.9-2.9,2.6c-0.1,1.7,0.9,2.8,2.6,2.9
			C163.1,123,164,121.9,164.3,120.3z"/>
		<path class="st0" d="M159.1,139.4c0.1-1.7-0.9-2.8-2.6-2.9c-1.7-0.1-2.8,0.9-2.9,2.6c-0.1,1.7,0.9,2.6,2.5,3
			C157.8,141.9,159,141.1,159.1,139.4z"/>
		<path class="st0" d="M56.7,141.8c-0.3-1.5-1.1-2.6-2.8-2.6c-1.7,0-2.7,1.1-2.7,2.8c0,1.7,1.1,2.7,2.8,2.7
			C55.6,144.7,56.4,143.6,56.7,141.8z"/>
		<path class="st0" d="M168.4,141.3c-0.3-1.5-1.2-2.6-2.9-2.5c-1.6,0.1-2.6,1.1-2.5,2.7c0,1.7,1.1,2.7,2.8,2.7
			C167.4,144.2,168.2,143.1,168.4,141.3z"/>
		<path class="st0" d="M25.1,137.2c1.6-0.1,2.6-1.1,2.6-2.7c0-1.6-1-2.5-2.6-2.7c-1.6,0.2-2.5,1-2.7,2.6
			C22.3,135.8,23.7,137.3,25.1,137.2z"/>
		<path class="st0" d="M183.2,125.3c-0.2-1.6-1-2.6-2.6-2.7c-1.5-0.1-2.9,1.3-2.8,2.8c0.1,1.6,1.1,2.6,2.7,2.6
			C182.1,127.9,182.9,126.9,183.2,125.3z"/>
		<path class="st0" d="M46.9,139.7c-0.2-1.7-1.1-2.8-2.8-2.7c-1.6,0-2.6,1-2.7,2.6c-0.1,1.7,0.9,2.8,2.6,2.9
			C45.7,142.4,46.6,141.3,46.9,139.7z"/>
		<path class="st0" d="M123,160.1c-0.2-1.7-1-2.8-2.7-2.9c-1.7,0-2.8,1-2.8,2.7c-0.1,1.7,1,2.8,2.7,2.8
			C121.8,162.9,122.7,161.8,123,160.1z"/>
		<path class="st0" d="M82.6,159.2c-0.1-1.7-1-2.8-2.7-2.9c-1.7-0.1-2.8,0.9-2.9,2.6c-0.1,1.7,0.9,2.8,2.6,2.9
			C81.4,161.9,82.3,160.9,82.6,159.2z"/>
		<path class="st0" d="M39,156c-1.6,0.1-2.5,1.1-2.7,2.6c-0.1,1.4,1.4,2.9,2.8,2.7c1.6-0.2,2.4-1.2,2.6-2.6
			C41.7,157.2,40.3,155.9,39,156z"/>
		<path class="st0" d="M153.9,158.4c0.1-1.7-1-2.6-2.6-2.9c-1.7,0.2-2.8,1-2.8,2.7c0,1.6,0.9,2.6,2.5,2.8
			C152.7,161,153.8,160,153.9,158.4z"/>
		<path class="st0" d="M72.8,156.8c0-1.7-1.1-2.6-2.7-2.8c-1.7,0.2-2.8,1.1-2.8,2.8c0,1.7,1,2.7,2.7,2.8
			C71.7,159.6,72.8,158.5,72.8,156.8z"/>
		<path class="st0" d="M23.6,112.7c-0.3-1.6-1.2-2.6-2.7-2.6c-1.6,0-2.5,1.1-2.6,2.6c-0.1,1.4,1.4,2.9,2.8,2.7
			C22.6,115.2,23.5,114.2,23.6,112.7z"/>
		<path class="st0" d="M144.3,155.2c-0.3-1.5-1.2-2.6-2.9-2.5c-1.7,0.1-2.7,1.1-2.6,2.8c0.1,1.7,1.1,2.7,2.8,2.6
			C143.3,158.1,144.2,157,144.3,155.2z"/>
		<path class="st0" d="M158.6,132.2c1.7,0,2.6-1.1,2.8-2.7c-0.2-1.7-1.1-2.8-2.8-2.8c-1.7,0-2.8,1-2.8,2.7
			C155.9,131.1,156.9,132.2,158.6,132.2z"/>
		<path class="st0" d="M173.6,116c1.5-0.3,2.6-1.1,2.6-2.8c0-1.6-1-2.6-2.6-2.7c-1.7-0.1-2.8,1-2.8,2.6
			C170.7,114.8,171.8,115.7,173.6,116z"/>
		<path class="st0" d="M63.5,154c0-1.6-1-2.6-2.6-2.7c-1.7-0.1-2.8,1-2.8,2.7c0,1.7,1.1,2.6,2.7,2.8C62.5,156.6,63.6,155.7,63.5,154
			z"/>
		<path class="st0" d="M172.6,150.9c-1.6,0-2.5,1-2.7,2.6c-0.1,1.4,1.4,2.9,2.8,2.7c1.6-0.2,2.4-1.2,2.6-2.7
			C175,151.9,174.2,150.9,172.6,150.9z"/>
		<path class="st0" d="M46.8,132.6c1.7,0.1,2.8-0.9,2.8-2.6c0.1-1.7-1-2.6-2.7-2.9c-1.6,0.2-2.7,1-2.8,2.7
			C44.1,131.5,45.1,132.6,46.8,132.6z"/>
		<path class="st0" d="M180.4,134.6c-0.1-1.6-1-2.5-2.6-2.8c-1.6,0.2-2.7,1-2.8,2.6c-0.1,1.6,0.9,2.6,2.5,2.8
			C178.9,137.4,180.4,136,180.4,134.6z"/>
		<path class="st0" d="M53.8,151.7c0-1.6-1-2.6-2.5-2.7c-1.7-0.1-2.8,0.9-2.9,2.6c-0.1,1.7,1,2.6,2.6,2.9
			C52.7,154.3,53.8,153.4,53.8,151.7z"/>
		<path class="st0" d="M30.2,112.8c-1.7,0-2.8,1.1-2.7,2.8c0,1.6,1.1,2.6,2.7,2.6c1.7,0,2.6-1.1,2.8-2.8
			C32.7,113.9,31.8,112.8,30.2,112.8z"/>
		<path class="st0" d="M185.5,115.5c-0.2-1.6-1-2.6-2.6-2.7c-1.6-0.1-2.6,1-2.8,2.5c-0.2,1.4,1.3,2.9,2.7,2.8
			C184.4,118.1,185.3,117.1,185.5,115.5z"/>
		<path class="st0" d="M166,151.4c0.1-1.7-1-2.8-2.7-2.8c-1.6,0-2.6,1-2.7,2.6c-0.1,1.7,1,2.6,2.7,2.9
			C164.9,153.8,165.9,152.9,166,151.4z"/>
		<path class="st0" d="M37.5,136.9c0-1.7-1.1-2.7-2.8-2.7c-1.6,0-2.6,1.1-2.6,2.7c0,1.7,1.1,2.6,2.8,2.8
			C36.5,139.3,37.5,138.5,37.5,136.9z"/>
		<path class="st0" d="M69.7,41.8c-1.7,0.2-2.8,1.1-2.8,2.8c0,1.6,1,2.6,2.6,2.7c1.7,0.1,2.8-0.9,2.9-2.6C72.4,43,71.3,42,69.7,41.8
			z"/>
		<path class="st0" d="M107.2,44.8c-0.1,1.7,0.9,2.8,2.6,2.9c1.7,0.1,2.8-0.9,2.9-2.6c0.1-1.7-0.9-2.7-2.6-3
			C108.5,42.3,107.3,43.1,107.2,44.8z"/>
		<path class="st0" d="M150.9,43.3c-1.7-0.1-2.8,1-2.8,2.7c0,1.6,1,2.6,2.5,2.7c1.7,0.1,2.6-1,2.9-2.7
			C153.3,44.4,152.5,43.3,150.9,43.3z"/>
		<path class="st0" d="M76.1,46.8c0,1.7,1,2.8,2.7,2.8c1.7,0.1,2.8-1,2.8-2.7c0.1-1.7-1-2.6-2.6-2.9C77.3,44.2,76.2,45.1,76.1,46.8z
			"/>
		<path class="st0" d="M116.9,47.8c0,1.7,1,2.8,2.7,2.8c1.7,0,2.6-1.1,2.8-2.7c-0.2-1.7-1.1-2.8-2.8-2.8C118,45,117,46.1,116.9,47.8
			z"/>
		<path class="st0" d="M160.1,45.5c-1.6,0.2-2.6,1-2.7,2.6c-0.2,1.4,1.3,2.9,2.7,2.8c1.6-0.1,2.6-1.1,2.6-2.7
			C162.7,46.7,161.7,45.8,160.1,45.5z"/>
		<path class="st0" d="M48.3,46.1c-1.6,0-2.6,1-2.7,2.6c-0.1,1.5,1.4,2.9,2.8,2.7c1.6-0.2,2.4-1.2,2.6-2.8
			C50.7,47.1,49.9,46,48.3,46.1z"/>
		<path class="st0" d="M126.2,50.1c0,1.7,1.1,2.6,2.7,2.8c1.7-0.2,2.8-1.1,2.8-2.8c0-1.7-1-2.8-2.7-2.8
			C127.3,47.4,126.2,48.4,126.2,50.1z"/>
		<path class="st0" d="M169.6,53.7c1.4,0.2,3-1.2,2.9-2.6c-0.1-1.6-1-2.5-2.5-2.7c-1.4-0.1-2.9,1.2-2.9,2.5
			C167.1,52.5,168,53.5,169.6,53.7z"/>
		<path class="st0" d="M54.8,51.4c-0.1,1.7,0.9,2.8,2.6,2.8c1.7,0.1,2.6-1,2.9-2.7c-0.2-1.7-1.1-2.7-2.8-2.7
			C55.9,48.8,54.9,49.8,54.8,51.4z"/>
		<path class="st0" d="M136,52.9c0,1.7,1,2.7,2.7,2.8c1.7,0,2.6-1.1,2.8-2.7c-0.2-1.7-1.1-2.8-2.8-2.8C137,50.2,136,51.2,136,52.9z"
			/>
		<path class="st0" d="M64.6,53.9c0.1,1.7,1.1,2.7,2.8,2.7c1.7,0,2.6-1.2,2.7-2.9c-0.3-1.5-1.2-2.6-2.9-2.5
			C65.5,51.2,64.5,52.2,64.6,53.9z"/>
		<path class="st0" d="M145.3,55c-0.1,1.7,0.9,2.8,2.6,2.9c1.7,0.1,2.6-1,3-2.7c-0.2-1.5-1-2.7-2.8-2.7
			C146.4,52.5,145.4,53.4,145.3,55z"/>
		<path class="st0" d="M36.4,53c-1.6-0.1-2.6,0.9-2.8,2.4c-0.2,1.4,1.2,3,2.6,2.9c1.6-0.1,2.5-1,2.8-2.6C38.8,54.2,38,53.1,36.4,53z
			"/>
		<path class="st0" d="M155,58c0,1.6,1,2.6,2.5,2.7c1.7,0.1,2.8-0.9,2.9-2.6c0.1-1.7-1-2.6-2.6-2.9C156.1,55.4,155,56.3,155,58z"/>
		<path class="st0" d="M42.8,58.4c0,1.7,1,2.8,2.7,2.8c1.6,0,2.6-1,2.7-2.6c0-1.7-1.1-2.6-2.7-2.8C43.9,56,42.8,56.8,42.8,58.4z"/>
		<path class="st0" d="M167,57.6c-1.6,0.3-2.6,1.1-2.6,2.7c0,1.7,1.1,2.8,2.8,2.7c1.6,0,2.6-1.1,2.6-2.7
			C169.7,58.6,168.6,57.8,167,57.6z"/>
		<path class="st0" d="M52.5,60.7c-0.1,1.7,0.9,2.8,2.7,2.9c1.7,0.1,2.6-1,2.9-2.7c-0.2-1.7-1.1-2.8-2.8-2.7
			C53.6,58.1,52.6,59.1,52.5,60.7z"/>
		<path class="st0" d="M176.8,60.4c-1.6,0.1-2.6,1-2.7,2.6c-0.2,1.4,1.3,2.9,2.7,2.8c1.6-0.1,2.4-1.1,2.6-2.6
			C179.4,61.8,178.2,60.4,176.8,60.4z"/>
		<path class="st0" d="M30.7,65.2c-0.2,1.4,1.2,3,2.7,2.9c1.6-0.1,2.5-1,2.7-2.5c0.1-1.5-1.2-2.9-2.6-2.9C32,62.7,31,63.7,30.7,65.2
			z"/>
		<path class="st0" d="M152.2,67.3c0,1.7,1,2.7,2.7,2.8c1.7,0,2.6-1.1,2.8-2.7c-0.2-1.7-1.1-2.8-2.8-2.8
			C153.3,64.5,152.2,65.6,152.2,67.3z"/>
		<path class="st0" d="M40.5,67.8c0,1.7,1.1,2.6,2.8,2.8c1.6-0.3,2.7-1.2,2.6-2.9c-0.1-1.6-1.1-2.6-2.7-2.6
			C41.5,65,40.5,66.1,40.5,67.8z"/>
		<path class="st0" d="M96,23.6c1.6,0,2.5-1,2.7-2.5c0-1.4-1.2-2.8-2.6-2.9c-1.4-0.1-2.9,1.3-2.8,2.7C93.5,22.5,94.5,23.6,96,23.6z"
			/>
		<path class="st0" d="M105.7,26.4c1.6-0.2,2.6-1,2.7-2.6c0.1-1.5-1.3-2.9-2.8-2.8c-1.6,0.1-2.6,1.1-2.6,2.7
			C103.1,25.3,104.2,26.2,105.7,26.4z"/>
		<path class="st0" d="M74.7,28.3c1.6-0.2,2.5-1,2.7-2.6c0.1-1.4-1.3-2.9-2.7-2.8C73.1,23,72,24,72.1,25.6
			C72.1,27.2,73.1,28,74.7,28.3z"/>
		<path class="st0" d="M112.4,26c0,1.6,1,2.6,2.6,2.7c1.5,0.1,2.9-1.3,2.8-2.8c-0.2-1.6-1.1-2.4-2.7-2.6
			C113.5,23.5,112.4,24.4,112.4,26z"/>
		<path class="st0" d="M81.3,27.9c0.1,1.6,1.1,2.5,2.7,2.7c1.6-0.2,2.6-1.1,2.7-2.7c0-1.6-1-2.6-2.6-2.8
			C82.6,25,81.2,26.4,81.3,27.9z"/>
		<path class="st0" d="M124.8,31.5c1.6-0.2,2.6-1.1,2.7-2.7c0-1.6-1-2.6-2.5-2.8c-1.4-0.2-2.9,1.3-2.8,2.7
			C122.2,30.4,123.2,31.3,124.8,31.5z"/>
		<path class="st0" d="M93.9,28c-1.7-0.1-2.8,1-2.8,2.7c0,1.6,1,2.6,2.6,2.7c1.7,0.1,2.6-1,2.9-2.7C96.3,29.1,95.5,28,93.9,28z"/>
		<path class="st0" d="M131.4,31c-0.2,1.4,1.3,2.9,2.7,2.8c1.6-0.1,2.5-1.1,2.7-2.5c0-1.5-1.2-2.9-2.6-2.9
			C132.5,28.5,131.6,29.4,131.4,31z"/>
		<path class="st0" d="M62.6,29.8c-1.6,0-2.5,1-2.7,2.6c-0.1,1.4,1.4,2.9,2.8,2.7c1.6-0.2,2.4-1.2,2.6-2.7
			C65.1,30.9,64.2,29.8,62.6,29.8z"/>
		<path class="st0" d="M103,30.3c-1.7,0-2.7,1.1-2.7,2.7c0,1.7,1.1,2.6,2.8,2.7c1.6-0.3,2.7-1.2,2.6-2.9
			C105.6,31.3,104.6,30.2,103,30.3z"/>
		<path class="st0" d="M143.8,36.6c1.6,0,2.5-1,2.7-2.6c-0.2-1.6-1-2.6-2.6-2.8c-1.5-0.2-2.9,1.3-2.8,2.7
			C141.2,35.5,142.2,36.6,143.8,36.6z"/>
		<path class="st0" d="M69.2,34.7c0,1.7,1,2.6,2.8,2.9c1.5-0.3,2.6-1.1,2.6-2.7c0-1.7-1-2.8-2.7-2.8C70.3,32.1,69.3,33.2,69.2,34.7z
			"/>
		<path class="st0" d="M112.9,33c-1.7-0.1-2.8,0.9-2.9,2.6c-0.1,1.7,1,2.6,2.7,2.9c1.7-0.2,2.8-1.1,2.8-2.8
			C115.5,34.1,114.5,33.1,112.9,33z"/>
		<path class="st0" d="M150.4,36.3c0.1,1.6,1.1,2.6,2.7,2.6c1.6,0,2.5-1,2.7-2.5c0-1.4-1.2-2.8-2.6-2.9
			C151.8,33.4,150.3,34.8,150.4,36.3z"/>
		<path class="st0" d="M81.6,34.9C80,34.9,79,36,79,37.5c0,1.7,1,2.8,2.7,2.8c1.7,0,2.6-1.1,2.8-2.7C84.2,35.9,83.3,34.8,81.6,34.9z
			"/>
		<path class="st0" d="M122,35.3c-1.6,0.2-2.7,1-2.7,2.7c0,1.6,0.9,2.6,2.5,2.8c1.7,0.1,2.8-0.9,2.9-2.6
			C124.9,36.5,123.8,35.6,122,35.3z"/>
		<path class="st0" d="M47.9,39.3c-0.2,1.4,1.3,2.9,2.7,2.8c1.6-0.1,2.6-1.1,2.6-2.7c0-1.6-1-2.5-2.6-2.7
			C49.1,36.9,48.1,37.8,47.9,39.3z"/>
		<path class="st0" d="M88.2,40c0,1.6,1,2.6,2.6,2.7c1.7,0.1,2.8-0.9,2.9-2.7c0.1-1.7-1-2.6-2.8-2.9C89.3,37.4,88.2,38.2,88.2,40z"
			/>
		<path class="st0" d="M131.6,38.1c-1.6,0.1-2.6,1.1-2.6,2.7c0,1.7,1.1,2.8,2.8,2.7c1.7,0,2.6-1.1,2.7-2.8
			C134.2,39.1,133.3,38,131.6,38.1z"/>
		<path class="st0" d="M57.6,41.7c-0.1,1.6,0.9,2.7,2.5,2.8c1.7,0.1,2.6-0.9,3-2.6c-0.1-1.6-1-2.7-2.5-2.8
			C58.8,39,57.7,40,57.6,41.7z"/>
		<path class="st0" d="M97.9,42.7c0,1.7,1.1,2.7,2.8,2.7c1.7,0,2.6-1.1,2.8-2.9c-0.3-1.5-1.1-2.6-2.9-2.6C98.9,40,97.9,41,97.9,42.7
			z"/>
		<path class="st0" d="M141,40.4c-1.6,0.3-2.7,1.2-2.6,2.9c0.1,1.6,1.1,2.6,2.7,2.6c1.7,0,2.8-1,2.7-2.7
			C143.7,41.4,142.6,40.6,141,40.4z"/>
		<path class="st0" d="M44.6,89.6c0.1,1.7,1.1,2.7,2.8,2.7c1.7-0.1,2.7-1.1,2.7-2.8c0-1.7-1.1-2.6-3-2.7
			C45.7,87,44.5,87.9,44.6,89.6z"/>
		<path class="st0" d="M156.8,89.1c0,1.7,1,2.8,2.7,2.8c1.7,0,2.6-1.1,2.9-2.8c-0.2-1.5-1.1-2.7-2.8-2.7
			C157.9,86.3,156.9,87.3,156.8,89.1z"/>
		<path class="st0" d="M28.4,74.7c0.1,1.6,1.1,2.5,2.5,2.7c1.5,0,2.9-1.2,2.9-2.6c0-1.6-1-2.6-2.6-2.8
			C29.8,71.8,28.3,73.3,28.4,74.7z"/>
		<path class="st0" d="M171.3,72.3c-0.1,1.7,1,2.8,2.7,2.8c1.6,0,2.6-1,2.7-2.6c0.1-1.7-1-2.6-2.7-2.9
			C172.4,69.8,171.3,70.7,171.3,72.3z"/>
		<path class="st0" d="M183.7,72.5c-1.6,0.2-2.6,1.1-2.6,2.7c0,1.6,1,2.5,2.6,2.7c1.4,0.1,2.9-1.3,2.8-2.8
			C186.2,73.5,185.2,72.7,183.7,72.5z"/>
		<path class="st0" d="M37.7,77.5c0,1.6,1,2.6,2.6,2.7c1.7,0.1,2.8-0.9,2.9-2.6c0.1-1.7-1-2.6-2.7-2.9
			C38.7,74.9,37.7,75.8,37.7,77.5z"/>
		<path class="st0" d="M50.1,77.1c-1.7,0.1-2.7,1.1-2.7,2.8c0,1.7,1.1,2.7,2.8,2.7c1.7,0,2.6-1.1,2.7-2.8
			C52.7,78.1,51.8,77,50.1,77.1z"/>
		<path class="st0" d="M168.9,82c-0.1,1.7,0.9,2.8,2.6,2.8c1.7,0.1,2.6-1,2.9-2.7c-0.2-1.7-1.1-2.7-2.8-2.7
			C170,79.4,169,80.4,168.9,82z"/>
		<path class="st0" d="M25.6,84.6c0.2,1.6,1.2,2.4,2.7,2.6c1.5-0.1,2.8-1.4,2.7-2.8c-0.1-1.6-1.1-2.5-2.7-2.7
			C26.9,81.7,25.5,83.2,25.6,84.6z"/>
		<path class="st0" d="M171.6,91.5c-0.2-1.7-1.1-2.8-2.8-2.8c-1.6,0-2.6,1-2.7,2.6c-0.1,1.7,0.9,2.8,2.6,2.9
			C170.5,94.2,171.4,93.1,171.6,91.5z"/>
		<path class="st0" d="M23.3,93.8c0.1,1.6,1.1,2.5,2.7,2.7c1.6-0.2,2.6-1,2.7-2.6c0.1-1.6-1-2.6-2.5-2.8
			C24.7,90.9,23.2,92.3,23.3,93.8z"/>
		<path class="st0" d="M181.4,94.3c-0.1-1.6-0.9-2.7-2.5-2.8c-1.7-0.1-2.8,0.9-2.9,2.6c-0.1,1.6,0.9,2.7,2.5,2.8
			C180.1,97,181,95.9,181.4,94.3z"/>
		<path class="st0" d="M49.7,70.5c-0.1,1.7,1,2.6,2.8,2.9c1.6-0.2,2.7-1,2.7-2.8c0-1.7-1-2.8-2.7-2.8C50.8,67.7,49.8,68.8,49.7,70.5
			z"/>
		<path class="st0" d="M162,70c-0.1,1.7,1,2.6,2.7,2.8c1.7-0.2,2.7-1.1,2.7-2.8c0-1.6-1-2.6-2.6-2.7C163.1,67.3,162,68.3,162,70z"/>
		<path class="st0" d="M169.3,101.2c-0.2-1.7-1-2.8-2.8-2.8c-1.7,0-2.8,1-2.8,2.7c0,1.7,1,2.7,2.7,2.8
			C168.2,103.9,169.1,102.8,169.3,101.2z"/>
		<path class="st0" d="M40.9,86.8c-0.2-1.7-1.1-2.8-2.8-2.8c-1.6,0-2.6,1-2.7,2.6c-0.1,1.7,0.9,2.8,2.6,2.9
			C39.7,89.6,40.6,88.5,40.9,86.8z"/>
		<path class="st0" d="M38.1,96.5c-0.3-1.7-1.2-2.7-2.9-2.7c-1.6,0-2.6,1.1-2.6,2.6c0,1.7,1,2.8,2.7,2.8
			C37,99.2,37.9,98.1,38.1,96.5z"/>
		<path class="st0" d="M185.2,96.7c0.2,1.6,1.2,2.4,2.7,2.5c1.5-0.1,2.8-1.4,2.7-2.8c-0.1-1.6-1.1-2.5-2.7-2.6
			C186.4,93.7,185,95.3,185.2,96.7z"/>
		<path class="st0" d="M42.3,98.8c0,1.7,1,2.8,2.7,2.8c1.7,0,2.6-1,2.9-2.7c-0.2-1.7-1-2.8-2.8-2.8C43.4,96,42.3,97.1,42.3,98.8z"/>
		<path class="st0" d="M178.2,84.4c-0.1,1.5,1.4,2.9,2.9,2.7c1.6-0.2,2.4-1.2,2.5-2.7c-0.1-1.5-1.4-2.8-2.8-2.7
			C179.3,81.9,178.3,82.8,178.2,84.4z"/>
		<path class="st0" d="M161.7,82.1c1.7,0.1,2.8-0.9,2.9-2.6c0.1-1.7-0.9-2.6-2.5-3c-1.7,0.1-2.8,0.9-2.9,2.6
			C159.1,80.9,160,82,161.7,82.1z"/>
		<path class="st0" d="M127.2,21.7c1.6,0,2.4-1.1,2.6-2.7c-0.3-1.6-1.1-2.6-2.7-2.6c-1.6,0-2.6,1.1-2.6,2.7
			C124.5,20.7,125.6,21.7,127.2,21.7z"/>
		<path class="st0" d="M36.8,165.3c-1.6,0-2.7,1-2.7,2.6c0,1.6,1,2.5,2.7,2.7c1.5-0.2,2.6-1.1,2.5-2.7
			C39.2,166.3,38.3,165.4,36.8,165.3z"/>
		<path class="st0" d="M86.8,21.2c1.6,0,2.4-1.1,2.6-2.7c-0.3-1.6-1.1-2.6-2.7-2.6c-1.6,0-2.6,1.1-2.6,2.7
			C84.2,20.2,85.2,21.3,86.8,21.2z"/>
		<path class="st0" d="M46,168.1c-1.6,0-2.5,1-2.7,2.6c0.2,1.5,1,2.6,2.6,2.6c1.6,0,2.6-1,2.7-2.6C48.6,169.2,47.6,168.1,46,168.1z"
			/>
		<path class="st0" d="M117.8,19.4c1.6,0,2.5-1,2.7-2.6c-0.2-1.6-1-2.6-2.6-2.7c-1.6,0-2.6,1-2.7,2.6
			C115.2,18.3,116.2,19.3,117.8,19.4z"/>
		<path class="st0" d="M77.1,18.4c1.6,0,2.5-1.1,2.6-2.7c-0.3-1.6-1.2-2.6-2.8-2.5c-1.5,0.1-2.5,1.1-2.4,2.6
			C74.4,17.4,75.5,18.4,77.1,18.4z"/>
		<path class="st0" d="M167.4,170c-1.5,0-2.5,1-2.5,2.5c-0.1,1.6,0.9,2.7,2.5,2.7c1.6,0,2.5-1,2.7-2.6C169.9,171,169,170,167.4,170z
			"/>
		<path class="st0" d="M55.5,23c1.6,0.1,2.5-0.9,2.7-2.5c-0.1-1.5-0.9-2.5-2.4-2.6c-1.6-0.1-2.7,0.9-2.7,2.5
			C53.1,21.9,54,22.9,55.5,23z"/>
		<path class="st0" d="M179.6,163.1c-1.6,0-2.6,1-2.6,2.6c0,1.6,1.1,2.6,2.7,2.5c1.5-0.1,2.3-1.1,2.4-2.6
			C181.9,164,181.1,163.1,179.6,163.1z"/>
		<path class="st0" d="M27,163c-1.5,0.1-2.5,0.9-2.6,2.4c-0.1,1.6,0.8,2.7,2.5,2.8c1.5,0.1,2.5-0.8,2.6-2.4
			C29.6,164.2,28.6,163.3,27,163z"/>
		<path class="st0" d="M136.9,24.5c1.6,0,2.6-1.1,2.6-2.7c0-1.6-1.1-2.4-2.7-2.6c-1.6,0.3-2.6,1.1-2.6,2.7
			C134.3,23.5,135.3,24.5,136.9,24.5z"/>
		<path class="st0" d="M64.9,25.4c1.6,0,2.6-1,2.7-2.6c0-1.6-1-2.5-2.6-2.7c-1.6,0.2-2.6,1-2.7,2.6C62.3,24.3,63.3,25.3,64.9,25.4z"
			/>
		<path class="st0" d="M170.2,160.7c-1.6,0-2.6,1.1-2.6,2.7c0,1.6,1.1,2.6,2.7,2.6c1.6,0,2.4-1.1,2.6-2.7
			C172.7,161.7,171.8,160.6,170.2,160.7z"/>
		<path class="st0" d="M16.6,100.6c-0.3-1.5-1.1-2.6-2.7-2.5c-1.6,0-2.6,1.1-2.6,2.7c0,1.6,1.1,2.6,2.7,2.6
			C15.6,103.3,16.4,102.2,16.6,100.6z"/>
		<path class="st0" d="M146.1,26.8c1.6,0,2.5-1,2.7-2.6c-0.2-1.6-1-2.6-2.6-2.7c-1.6,0-2.6,1-2.7,2.6
			C143.5,25.7,144.5,26.7,146.1,26.8z"/>
		<path class="st0" d="M200.3,99.3c-0.2-1.6-1-2.6-2.6-2.7c-1.5,0-2.5,0.9-2.6,2.4c-0.1,1.6,0.9,2.7,2.4,2.8
			C199.1,102,200,101,200.3,99.3z"/>
		<path class="st0" d="M156,29.5c1.5-0.1,2.5-1.1,2.4-2.6c0-1.6-1-2.6-2.7-2.6c-1.6,0-2.5,1.1-2.6,2.7
			C153.5,28.6,154.4,29.6,156,29.5z"/>
		<path class="st0" d="M43.8,30c1.5-0.1,2.3-1.1,2.4-2.6c-0.2-1.5-1-2.5-2.5-2.5c-1.6,0-2.7,1-2.6,2.6C41.1,29.1,42.2,30,43.8,30z"
			/>
		<path class="st0" d="M4.1,100.9c1.6,0.1,2.5-0.9,2.7-2.5c-0.1-1.5-1-2.5-2.5-2.5c-1.6,0-2.6,0.9-2.6,2.5
			C1.7,99.9,2.6,100.8,4.1,100.9z"/>
		<path class="st0" d="M165.1,31.9c1.4-0.1,2.5-0.9,2.6-2.4c0.1-1.6-0.9-2.7-2.5-2.8c-1.5-0.1-2.5,0.9-2.6,2.4
			C162.5,30.7,163.5,31.6,165.1,31.9z"/>
		<path class="st0" d="M98,202.5c-1.5,0.1-2.5,0.9-2.6,2.4c-0.1,1.6,0.8,2.6,2.5,2.7c1.5,0.1,2.5-0.8,2.6-2.3
			C100.5,203.6,99.6,202.7,98,202.5z"/>
		<path class="st0" d="M88.6,199.7c-1.5,0-2.5,0.9-2.5,2.4c-0.1,1.6,0.9,2.5,2.5,2.7c1.5-0.1,2.5-1,2.5-2.5
			C91.2,200.7,90.2,199.7,88.6,199.7z"/>
		<path class="st0" d="M119.8,197.8c-1.5,0.1-2.5,0.9-2.6,2.4c-0.1,1.6,0.8,2.7,2.5,2.8c1.5,0.1,2.5-0.8,2.6-2.4
			C122.4,199,121.4,198,119.8,197.8z"/>
		<path class="st0" d="M79.1,197.4c-1.6-0.1-2.7,0.8-2.7,2.4c-0.1,1.5,0.8,2.5,2.3,2.6c1.6,0.1,2.5-0.8,2.8-2.5
			C81.3,198.6,80.6,197.5,79.1,197.4z"/>
		<path class="st0" d="M110,195.5c-1.6,0-2.7,1-2.7,2.6c0,1.6,1.1,2.5,2.6,2.7c1.6-0.2,2.6-1.1,2.6-2.8
			C112.5,196.5,111.5,195.5,110,195.5z"/>
		<path class="st0" d="M69.6,194.6c-1.6,0-2.6,1-2.6,2.6c0,1.6,1.1,2.5,2.7,2.4c1.5-0.1,2.3-1.1,2.4-2.6
			C72,195.6,71.1,194.6,69.6,194.6z"/>
		<path class="st0" d="M141,193.7c-1.5,0-2.5,1-2.5,2.5c0,1.6,1,2.5,2.5,2.6c1.5-0.2,2.5-1,2.5-2.5
			C143.6,194.7,142.6,193.7,141,193.7z"/>
		<path class="st0" d="M100.9,192.7c-1.6-0.1-2.7,0.9-2.8,2.4c-0.1,1.6,0.9,2.5,2.5,2.8c1.6-0.2,2.6-1,2.7-2.6
			C103.3,193.8,102.4,192.8,100.9,192.7z"/>
		<path class="st0" d="M59.9,192.3c-1.6,0-2.6,1-2.5,2.6c0.1,1.6,1.1,2.5,2.7,2.4c1.5-0.1,2.3-1.1,2.3-2.6
			C62.2,193.2,61.4,192.3,59.9,192.3z"/>
		<path class="st0" d="M131.7,190.8c-1.6,0.3-2.6,1.2-2.5,2.8c0.1,1.5,1.1,2.5,2.6,2.4c1.6,0,2.6-1,2.6-2.7
			C134.3,191.8,133.2,190.9,131.7,190.8z"/>
		<path class="st0" d="M90.9,190.3c-1.6,0-2.6,1.1-2.6,2.7c0,1.6,1.1,2.6,2.7,2.6c1.6,0,2.4-1.1,2.6-2.7
			C93.4,191.3,92.5,190.3,90.9,190.3z"/>
		<path class="st0" d="M122,188.4c-1.5,0.2-2.6,1-2.6,2.6c0,1.6,1,2.6,2.6,2.7c1.6,0,2.6-1,2.7-2.6
			C124.7,189.6,123.6,188.7,122,188.4z"/>
		<path class="st0" d="M81.7,187.6c-1.6,0-2.5,1-2.7,2.6c0.2,1.6,1,2.6,2.6,2.7c1.6,0,2.6-1,2.7-2.6
			C84.3,188.7,83.3,187.6,81.7,187.6z"/>
		<path class="st0" d="M153,186.7c-1.6,0.1-2.6,1.1-2.5,2.8c0.1,1.5,1.1,2.3,2.6,2.4c1.6-0.2,2.5-1.1,2.5-2.6
			C155.6,187.7,154.6,186.6,153,186.7z"/>
		<path class="st0" d="M71.9,185.2c-1.5,0.2-2.6,1-2.6,2.6c0,1.6,1,2.6,2.6,2.7c1.6,0,2.6-1,2.7-2.6
			C74.6,186.3,73.6,185.4,71.9,185.2z"/>
		<path class="st0" d="M143.8,183.9c-1.5,0-2.5,1-2.5,2.5c-0.1,1.6,0.9,2.7,2.5,2.7c1.6,0,2.5-1,2.7-2.6
			C146.3,184.9,145.4,183.9,143.8,183.9z"/>
		<path class="st0" d="M62.7,182.5c-1.5,0-2.5,0.9-2.6,2.4c-0.1,1.6,0.9,2.7,2.4,2.8c1.6,0.1,2.5-0.9,2.8-2.6
			C65.1,183.6,64.3,182.5,62.7,182.5z"/>
		<path class="st0" d="M110.9,7.2c1.5-0.1,2.5-1,2.5-2.5c0-1.6-0.9-2.6-2.5-2.6c-1.5,0-2.5,0.9-2.5,2.4
			C108.3,6.2,109.3,7.1,110.9,7.2z"/>
		<path class="st0" d="M80,9.1C81.5,9,82.3,8,82.4,6.5C82.2,5,81.4,4,79.9,4c-1.6,0-2.6,1-2.6,2.6C77.3,8.2,78.4,9.1,80,9.1z"/>
		<path class="st0" d="M52.8,180.2c-1.5,0.1-2.5,1-2.5,2.5c0,1.6,1,2.7,2.6,2.7c1.6,0,2.5-1.1,2.7-2.7
			C55.3,181.1,54.4,180.1,52.8,180.2z"/>
		<path class="st0" d="M165.2,179.8c-1.6,0-2.6,1-2.6,2.6c0,1.6,1.1,2.6,2.7,2.5c1.5-0.1,2.3-1.1,2.4-2.6
			C167.5,180.8,166.7,179.8,165.2,179.8z"/>
		<path class="st0" d="M120.1,9.6c1.6,0,2.5-1,2.7-2.5c-0.2-1.5-1-2.5-2.5-2.6c-1.6,0-2.6,0.9-2.7,2.6
			C117.6,8.5,118.6,9.5,120.1,9.6z"/>
		<path class="st0" d="M43.7,177.4c-1.5,0.2-2.5,1-2.6,2.5c0,1.6,0.9,2.6,2.6,2.7c1.5,0,2.5-1,2.5-2.5
			C46.2,178.5,45.2,177.6,43.7,177.4z"/>
		<path class="st0" d="M155.3,176.9c-1.5,0.1-2.5,1-2.5,2.5c0,1.6,1,2.7,2.6,2.7c1.6,0,2.5-1.1,2.7-2.7
			C157.8,177.9,156.9,176.9,155.3,176.9z"/>
		<path class="st0" d="M89.1,11.4c1.6-0.2,2.5-1,2.5-2.6c0-1.6-1-2.6-2.6-2.6c-1.6,0-2.6,1.1-2.5,2.7C86.6,10.5,87.7,11.3,89.1,11.4
			z"/>
		<path class="st0" d="M129.8,12.3c1.6,0.1,2.5-0.9,2.7-2.5c-0.2-1.5-1-2.5-2.5-2.6c-1.6-0.1-2.7,0.9-2.7,2.6
			C127.3,11.3,128.3,12.3,129.8,12.3z"/>
		<path class="st0" d="M34.1,175.1c-1.6-0.1-2.7,0.9-2.7,2.5c0,1.5,1,2.5,2.5,2.5c1.5,0.1,2.4-0.9,2.6-2.5
			C36.4,176.3,35.6,175.2,34.1,175.1z"/>
		<path class="st0" d="M98.7,14.2c1.6,0.1,2.7-0.9,2.8-2.5c0.1-1.6-1-2.5-2.6-2.8c-1.6,0.2-2.6,1-2.6,2.7
			C96.2,13.1,97.2,14.1,98.7,14.2z"/>
		<path class="st0" d="M139.1,14.7c1.6,0.1,2.5-0.9,2.7-2.5c-0.2-1.5-1-2.5-2.5-2.6c-1.6-0.1-2.7,0.9-2.7,2.6
			C136.6,13.6,137.6,14.6,139.1,14.7z"/>
		<path class="st0" d="M67.9,16c1.5-0.1,2.3-1.1,2.4-2.6c-0.2-1.5-1-2.5-2.5-2.5c-1.6,0-2.6,1-2.6,2.6C65.2,15.2,66.3,16.1,67.9,16z
			"/>
		<path class="st0" d="M108.2,16.6c1.6,0,2.6-1.1,2.6-2.7c0-1.6-1.1-2.4-2.7-2.6c-1.5,0.3-2.6,1.1-2.5,2.7
			C105.5,15.6,106.6,16.6,108.2,16.6z"/>
		<path class="st0" d="M148.9,17.4c1.5,0,2.5-0.9,2.5-2.4c0.1-1.6-0.9-2.5-2.5-2.7c-1.5,0.1-2.5,0.9-2.5,2.4
			C146.3,16.4,147.3,17.4,148.9,17.4z"/>
		<path class="st0" d="M8.6,110.4c0,1.6,1,2.6,2.6,2.6c1.6,0,2.5-1.1,2.6-2.7c-0.3-1.6-1.2-2.6-2.8-2.5
			C9.5,107.9,8.6,108.9,8.6,110.4z"/>
		<path class="st0" d="M183.4,65.3c-0.1,1.6,0.9,2.7,2.5,2.7c1.6,0.1,2.5-1,2.7-2.6c-0.2-1.6-1.1-2.6-2.7-2.6
			C184.5,62.8,183.5,63.8,183.4,65.3z"/>
		<path class="st0" d="M13,138.9c-1.5,0-2.5,0.9-2.6,2.4c-0.1,1.6,0.9,2.5,2.5,2.7c1.5-0.2,2.5-1,2.6-2.5
			C15.6,140,14.7,139,13,138.9z"/>
		<path class="st0" d="M29.1,46.2c1.6,0.1,2.5-0.9,2.7-2.5c-0.2-1.5-1-2.5-2.5-2.6c-1.6-0.1-2.7,0.9-2.7,2.6
			C26.7,45.1,27.6,46.1,29.1,46.2z"/>
		<path class="st0" d="M181.8,46.7c1.5,0.1,2.5-0.8,2.6-2.4c0.1-1.6-0.9-2.6-2.5-2.8c-1.4,0.1-2.5,0.9-2.6,2.4
			C179.2,45.5,180.1,46.6,181.8,46.7z"/>
		<path class="st0" d="M196.7,137.1c-1.5,0-2.5,0.9-2.5,2.4c-0.1,1.6,0.9,2.5,2.5,2.7c1.5-0.1,2.5-0.9,2.5-2.4
			C199.3,138.2,198.3,137.1,196.7,137.1z"/>
		<path class="st0" d="M204.8,108.8c-1.6-0.1-2.6,0.8-2.7,2.4c-0.1,1.5,0.8,2.5,2.3,2.6c1.6,0.1,2.5-0.8,2.8-2.5
			C207,109.9,206.3,108.9,204.8,108.8z"/>
		<path class="st0" d="M12.3,72.2c1.5-0.1,2.3-1.1,2.4-2.6c-0.2-1.6-1-2.5-2.5-2.5c-1.6,0-2.6,1-2.6,2.6
			C9.6,71.3,10.7,72.3,12.3,72.2z"/>
		<path class="st0" d="M11.5,119.7c-0.1-1.4-0.9-2.5-2.4-2.6c-1.6-0.1-2.7,0.9-2.7,2.5c-0.1,1.5,0.9,2.5,2.4,2.6
			C10.3,122.3,11.2,121.4,11.5,119.7z"/>
		<path class="st0" d="M35.9,46.5c0,1.6,1.1,2.6,2.7,2.6c1.6,0,2.4-1.1,2.6-2.7c-0.3-1.6-1.1-2.6-2.7-2.6
			C36.9,43.8,35.9,44.9,35.9,46.5z"/>
		<path class="st0" d="M190.1,137.3c-0.2-1.5-1-2.6-2.6-2.6c-1.6,0-2.6,1-2.7,2.6c0,1.6,1,2.6,2.6,2.7
			C189,140,189.8,138.9,190.1,137.3z"/>
		<path class="st0" d="M16.4,81.7c0,1.6,1.1,2.6,2.7,2.6c1.6,0,2.4-1.1,2.6-2.7C21.5,80,20.6,79,19,79
			C17.4,79.1,16.4,80.1,16.4,81.7z"/>
		<path class="st0" d="M24.2,65.3c1.6,0,2.4-1.1,2.6-2.7C26.6,61,25.7,60,24.1,60c-1.6,0-2.6,1.1-2.6,2.7
			C21.6,64.3,22.6,65.3,24.2,65.3z"/>
		<path class="st0" d="M14.6,62.8c1.5-0.1,2.3-1.1,2.4-2.6c-0.2-1.5-1-2.5-2.5-2.5c-1.6,0-2.6,1-2.5,2.6C12,62,13,63,14.6,62.8z"/>
		<path class="st0" d="M9.3,81.9c1.5,0,2.5-0.9,2.6-2.4C12,77.9,11,77,9.3,76.7c-1.5,0.1-2.5,0.9-2.6,2.4
			C6.7,80.8,7.6,81.9,9.3,81.9z"/>
		<path class="st0" d="M190.4,77.4c-0.1,1.6,0.9,2.7,2.5,2.7c1.6,0.1,2.5-1,2.7-2.6c-0.2-1.6-1.1-2.6-2.7-2.6
			C191.4,74.9,190.4,75.9,190.4,77.4z"/>
		<path class="st0" d="M18.4,131.7c0-1.6-1.1-2.5-2.7-2.6c-1.6,0.3-2.6,1.2-2.5,2.8c0.1,1.5,1.1,2.5,2.6,2.5
			C17.4,134.3,18.4,133.3,18.4,131.7z"/>
		<path class="st0" d="M26.4,56c1.6,0,2.6-1,2.6-2.6c0-1.6-1.1-2.5-2.7-2.6c-1.6,0.3-2.6,1.2-2.5,2.8C23.9,55,24.9,56,26.4,56z"/>
		<path class="st0" d="M176.5,53.4c0,1.5,1,2.5,2.5,2.6c1.6,0.1,2.7-0.9,2.7-2.5c0.1-1.6-1-2.5-2.6-2.7
			C177.5,50.9,176.5,51.8,176.5,53.4z"/>
		<path class="st0" d="M195.2,118.3c-0.3-1.6-1.1-2.6-2.7-2.6c-1.6,0-2.6,1.1-2.6,2.7c0,1.6,1.1,2.6,2.7,2.6
			C194.2,120.9,195,119.8,195.2,118.3z"/>
		<path class="st0" d="M199.6,127.8c-1.6-0.1-2.6,0.9-2.6,2.5c0,1.5,0.9,2.5,2.4,2.5c1.6,0.1,2.5-0.9,2.7-2.5
			C201.9,128.9,201.1,127.9,199.6,127.8z"/>
		<path class="st0" d="M6.1,126.9c-1.6,0-2.6,1-2.5,2.6c0.1,1.6,1.1,2.5,2.7,2.4c1.5-0.1,2.2-1.1,2.3-2.6
			C8.4,127.8,7.6,126.9,6.1,126.9z"/>
		<path class="st0" d="M21.3,69.8c-1.6,0-2.6,1.1-2.6,2.7c0,1.6,1.1,2.6,2.7,2.6c1.6,0,2.4-1.1,2.6-2.7
			C23.8,70.8,22.9,69.7,21.3,69.8z"/>
		<path class="st0" d="M188.8,58.8c1.5-0.2,2.5-1,2.6-2.5c0-1.6-1-2.6-2.6-2.6c-1.5,0-2.5,1-2.5,2.5
			C186.2,57.7,187.2,58.6,188.8,58.8z"/>
		<path class="st0" d="M189.8,130.2c1.6,0,2.4-1.1,2.6-2.7c-0.3-1.6-1.1-2.6-2.7-2.6c-1.6,0-2.6,1.1-2.6,2.7
			C187.1,129.2,188.2,130.2,189.8,130.2z"/>
		<path class="st0" d="M182.2,153.7c-1.6,0.3-2.6,1.2-2.5,2.8c0.1,1.5,1,2.5,2.5,2.5c1.6,0,2.6-1,2.6-2.6
			C184.9,154.7,183.8,153.9,182.2,153.7z"/>
		<path class="st0" d="M32.3,155.9c0-1.5-0.9-2.5-2.4-2.6c-1.6-0.1-2.7,0.9-2.8,2.4c-0.1,1.6,0.9,2.5,2.5,2.8
			C31.2,158.4,32.3,157.5,32.3,155.9z"/>
		<path class="st0" d="M53.4,32.4c1.6-0.2,2.6-1.1,2.6-2.7c0-1.6-1.1-2.6-2.7-2.6c-1.6,0-2.6,1.1-2.6,2.7
			C50.8,31.4,51.9,32.2,53.4,32.4z"/>
		<path class="st0" d="M174.8,34.6c1.6,0.1,2.5-0.9,2.7-2.5c-0.1-1.5-1-2.5-2.5-2.5c-1.6,0-2.6,0.9-2.6,2.5
			C172.4,33.5,173.3,34.5,174.8,34.6z"/>
		<path class="st0" d="M20.2,151c-1.6-0.1-2.7,0.8-2.8,2.4c-0.1,1.5,0.8,2.5,2.3,2.7c1.6,0.1,2.6-0.8,2.8-2.5
			C22.5,152.2,21.7,151.1,20.2,151z"/>
		<path class="st0" d="M31.6,36.9c1.5-0.1,2.5-0.9,2.5-2.4c0.1-1.6-0.9-2.6-2.5-2.7c-1.5,0-2.5,0.9-2.6,2.4
			C29,35.8,29.9,36.7,31.6,36.9z"/>
		<path class="st0" d="M201.7,118.1c-1.6,0.1-2.5,1.1-2.4,2.7c0.1,1.5,1.1,2.3,2.5,2.4c1.6-0.2,2.5-1,2.5-2.5
			C204.3,119,203.3,118,201.7,118.1z"/>
		<path class="st0" d="M13.6,91.5c0,1.6,1.1,2.6,2.7,2.6c1.6,0,2.6-1.1,2.6-2.7c0-1.6-1.1-2.4-2.7-2.6C14.6,89,13.6,89.9,13.6,91.5z
			"/>
		<path class="st0" d="M197.4,89.6c0,1.5,1,2.5,2.5,2.5c1.6,0,2.5-1,2.7-2.6c-0.2-1.5-1-2.5-2.5-2.6C198.4,87,197.4,87.9,197.4,89.6
			z"/>
		<path class="st0" d="M195.7,70.8c1.5-0.1,2.5-0.9,2.6-2.4c0.1-1.6-0.8-2.7-2.4-2.8c-1.5-0.1-2.5,0.8-2.6,2.3
			C193.1,69.6,194.1,70.6,195.7,70.8z"/>
		<path class="st0" d="M194.4,146.9c-1.6,0-2.6,1-2.6,2.6c0,1.5,1,2.4,2.5,2.4c1.6,0,2.5-1,2.6-2.5
			C196.7,147.8,195.9,146.9,194.4,146.9z"/>
		<path class="st0" d="M25.4,143.9c0-1.6-1-2.6-2.6-2.7c-1.6,0-2.6,1-2.7,2.6c0,1.6,1,2.5,2.6,2.7C24.3,146.3,25.4,145.5,25.4,143.9
			z"/>
		<path class="st0" d="M41.4,39.3c1.6,0,2.5-1.1,2.6-2.7c-0.3-1.6-1.2-2.6-2.8-2.5c-1.5,0.1-2.5,1.1-2.4,2.6
			C38.7,38.3,39.8,39.3,41.4,39.3z"/>
		<path class="st0" d="M184.6,144c-1.6,0-2.5,1.1-2.6,2.7c0.3,1.6,1.2,2.6,2.8,2.5c1.5-0.1,2.5-1.1,2.4-2.6
			C187.2,145,186.2,144,184.6,144z"/>
		<path class="st0" d="M162.8,41.6c1.6,0,2.5-1,2.7-2.6c-0.2-1.6-1-2.6-2.6-2.7c-1.6,0-2.6,1-2.7,2.6
			C160.2,40.5,161.2,41.6,162.8,41.6z"/>
		<path class="st0" d="M172,43.9c1.6,0.1,2.5-1,2.7-2.6c-0.2-1.5-1.1-2.6-2.7-2.6c-1.5,0-2.5,1-2.6,2.5
			C169.4,42.8,170.4,43.9,172,43.9z"/>
		<path class="st0" d="M197.4,108.6c0-1.6-1.1-2.5-2.7-2.6c-1.6,0.3-2.6,1.2-2.5,2.8c0.1,1.5,1.1,2.5,2.5,2.5
			C196.4,111.2,197.4,110.2,197.4,108.6z"/>
		<path class="st0" d="M18.2,125.2c1.6-0.3,2.6-1.1,2.6-2.7c0-1.6-1.1-2.6-2.7-2.6c-1.6,0-2.6,1.1-2.6,2.7
			C15.5,124.1,16.6,125,18.2,125.2z"/>
		<path class="st0" d="M7.2,91.2c1.5-0.1,2.3-1.1,2.4-2.6C9.4,87,8.5,86.1,7,86.1c-1.6,0-2.6,1-2.6,2.6C4.5,90.3,5.6,91.3,7.2,91.2z
			"/>
		<path class="st0" d="M193.3,87.3c0-1.6-1-2.5-2.6-2.7c-1.6,0.2-2.6,1-2.7,2.6c0,1.6,1,2.6,2.6,2.7
			C192.2,89.9,193.2,88.9,193.3,87.3z"/>
		<path class="st0" d="M17.4,53.1c1.5-0.1,2.3-1.1,2.4-2.6c-0.2-1.6-1.1-2.5-2.6-2.5c-1.7,0-2.4,1.4-2.4,2.8
			C14.7,52.4,15.9,53.2,17.4,53.1z"/>
		<path class="st0" d="M202.7,82.8c1.3,0,2.4-0.6,2.4-2.4c-0.2-1.3-0.5-2.6-2.3-2.7c-1.5,0-2.5,0.8-2.6,2.4
			C200.1,81.7,201.1,82.8,202.7,82.8z"/>
		<path class="st0" d="M101,4.4c1.6,0.1,2.5-0.8,2.7-2.4c0-1.4-0.6-2.1-2.1-2c-1.4,0.1-2.9-0.3-3,1.8C98.6,3.3,99.5,4.3,101,4.4z"/>
		<path class="st0" d="M4.4,107.8c0.1-1.6-0.9-2.6-2.5-2.7c-1.6-0.1-2.1,0.9-1.8,2.4c-0.2,1.5,0,2.7,1.8,2.7
			C3.4,110.1,4.4,109.3,4.4,107.8z"/>
		<path class="st0" d="M158.2,19.7c1.4,0,2.3-0.8,2.5-2.2c0-0.7-2.6-2.7-3.4-2.6c-1.3,0.3-1.7,1.3-1.7,2.4
			C155.7,18.8,156.7,19.7,158.2,19.7z"/>
		<path class="st0" d="M128.8,200.7c-1.5,0.1-2.4,1.1-2.4,2.6c0,1.1,0.6,2.2,1.8,1.7c1.1-0.5,3.1,0.2,3.3-1.8
			C131.3,201.4,130.3,200.6,128.8,200.7z"/>
		<path class="st0" d="M177.3,172.8c-1.6,0-2.6,0.9-2.6,2.6c0,1.2,0.6,2.1,1.8,2.3c0.6,0.1,3.1-2.5,3.2-3.1
			C179.3,173.5,178.4,172.8,177.3,172.8z"/>
		<path class="st0" d="M50.6,189.5c-1.1,0.1-2.1,0.5-2.4,1.7c-0.2,0.7,2.5,2.6,3.5,2.7c1.2,0.1,1.4-0.9,1.4-1.7
			C53.2,190.6,52.3,189.7,50.6,189.5z"/>
		<path class="st0" d="M207.9,101.7c-0.6-0.8,0.8-2.4-1.1-2.5c-1.5-0.1-2.5,0.9-2.5,2.5c0,1.5,0.9,2.6,2.4,2.5
			C208.8,104.1,207.4,102.4,207.9,101.7z"/>
		<path class="st0" d="M190.9,156.2c-1.4,0.4-1.9,1.4-1.8,2.8c0.1,0.9,0.6,1.8,1.4,1.9c0.8,0.1,1-1,1.4-1.5c0.6-0.7,1.3-1.8,1.2-2.6
			C193,156.1,191.8,156,190.9,156.2z"/>
		<path class="st0" d="M107.7,204.8c-1.4,0-2.5,0.7-2.5,2.1c0,1.8,1.6,0.3,2.3,1.1c0.7-0.9,2.3,0.7,2.5-1
			C110.3,205.7,109.1,204.9,107.7,204.8z"/>
		<path class="st0" d="M58.7,13.2c1.5-0.1,2.3-1.1,2.4-2.6c-0.2-0.5-0.2-1.6-0.9-1.2c-1.3,0.7-3.3,0.9-3.8,2.3
			C56,12.6,57.5,13.3,58.7,13.2z"/>
		<path class="st0" d="M46.5,20.2c1.5-0.1,2.3-1,2.5-2.6c-0.2-0.5,0-1.7-1-1.3c-1.4,0.6-3,1.3-3.6,2.6
			C44.1,19.6,45.5,20.3,46.5,20.2z"/>
		<path class="st0" d="M9.8,148.5c0.7,1.3,1.4,2.3,1.8,3.5c0.5,1.2,0.9,0.7,1.3,0.1c0.5-0.8,0.5-1.8,0-2.6
			C12.2,148.4,11.2,147.9,9.8,148.5z"/>
		<path class="st0" d="M18.5,160.4c-0.5-0.2-1.1-0.3-1.5,0.1c-0.5,0.6,0.1,0.9,0.4,1.3c0.6,0.9,1.2,1.8,1.9,3
			C20.6,162.7,20.3,161,18.5,160.4z"/>
		<path class="st0" d="M192,48.7c-0.7-1.1-1.3-2.1-2-3.1c-0.2-0.3-0.6-0.4-0.9-0.6c-0.2,0.3-0.4,0.6-0.5,1
			C188.3,47.9,189.6,49,192,48.7z"/>
		<path class="st0" d="M198.6,60.8c-0.7-1.4-1.4-2.8-2.1-4.3C194.9,59.2,195.7,60.8,198.6,60.8z"/>
		<path class="st0" d="M21.6,40.1c-0.9,1.2-1.7,2.4-2.7,3.7C21.8,43.4,22.4,42.5,21.6,40.1z"/>
		<path class="st0" d="M94.2,0.6c-1.5-0.1-2.9-0.3-4.3,0.8C91.7,2.4,93,2.4,94.2,0.6z"/>
		<path class="st0" d="M36.7,24.6c-0.7,1-2,1.3-3.1,2.5C35.8,27.2,36.6,26.4,36.7,24.6z"/>
		<path class="st0" d="M159.5,191.2c1.6-0.1,2.4-1.1,3.6-1.9C161.2,188.8,160.5,189.8,159.5,191.2z"/>
		<path class="st0" d="M1.2,118.7c0.7-1.2,0.5-2.1-0.5-3.3C0.3,116.7,0.4,117.7,1.2,118.7z"/>
		<path class="st0" d="M168,22.5c-0.5-1.3-1.5-1.8-2.9-2.2C165.8,21.6,166.5,22.4,168,22.5z"/>
		<path class="st0" d="M148.3,197.9c1.3-0.6,2.1-1,3.4-1.6C149.9,195.9,149.1,196.3,148.3,197.9z"/>
		<path class="st0" d="M71.8,5.2c-1-0.3-1.6,0.6-2.5,0.7C70.8,6.2,70.8,6.2,71.8,5.2z"/>
		<path class="st0" d="M5,136.7c0.3,1,0.6,1.7,0.8,2.4C6.3,138.2,6.2,137.4,5,136.7z"/>
	</g>
</g>
</svg>
