<?xml version="1.0" encoding="utf-8"?>
<!-- Generator: Adobe Illustrator 24.0.0, SVG Export Plug-In . SVG Version: 6.00 Build 0)  -->
<svg version="1.1" id="Layer_1" xmlns="http://www.w3.org/2000/svg" xmlns:xlink="http://www.w3.org/1999/xlink" x="0px" y="0px"
	 viewBox="0 0 87 87" style="enable-background:new 0 0 87 87;" xml:space="preserve">
<style type="text/css">
	.st0{fill:#EC297B;}
	.st1{fill:#FFFFFF;}
</style>
<g>
	<path class="st0" d="M59.9,87H27.1C12.2,87,0,74.8,0,59.9V27.1C0,12.2,12.2,0,27.1,0h32.7C74.8,0,87,12.2,87,27.1v32.7
		C87,74.8,74.8,87,59.9,87z"/>
</g>
<g>
	<path class="st1" d="M37.6,32c-2.3-0.7-5.1-1.1-7,0.4c-1.3,1-1.9,2.8-1.5,4.3c0.3,1.6,1.6,2.9,3.1,3.4c-0.4,1.3-0.8,2.7-0.8,4
		c0,1.4,0.3,2.8,1.1,3.8c1.4,1.7,4,2,6.1,1.2c2.1-0.8,3.7-2.4,5.2-4.1c1.7-2,5.1-5.8,5.1-5.8c-1.7,3.3-3.2,6.7-4.3,10.3
		c-0.7,2.3-1.2,5.1,0.2,7c1,1.3,2.7,1.8,4.3,1.5c1.6-0.4,2.9-1.6,3.5-3.1c1.3,0.4,2.7,0.7,4,0.7c1.4,0,2.8-0.3,3.9-1.2
		c1.7-1.4,2-4,1.3-6.1c-0.7-2.1-2.3-3.7-4-5.1c-2-1.7-5.7-5-5.7-5c3.3,1.7,6.7,3.1,10.2,4.1c2.3,0.7,5.1,1.1,7-0.4
		c1.3-1,1.9-2.8,1.5-4.3c-0.3-1.6-1.6-2.9-3.1-3.4c0.4-1.3,0.8-2.7,0.8-4c0-1.4-0.3-2.8-1.1-3.8c-1.4-1.7-4-2-6.1-1.2
		c-2.1,0.8-3.7,2.4-5.2,4.1c-1.7,2-5.1,5.8-5.1,5.8c1.7-3.3,3.2-6.7,4.3-10.3c0.7-2.3,1.2-5.1-0.2-7c-1-1.3-2.7-1.8-4.3-1.5
		c-1.6,0.4-2.9,1.6-3.5,3.1c-1.3-0.4-2.7-0.7-4-0.7c-1.4,0-2.8,0.3-3.9,1.2c-1.7,1.4-2,4-1.3,6.1c0.7,2.1,2.3,3.7,4,5.1
		c2,1.7,4.2,3.2,6.5,4.4C48.6,35.5,41.1,33,37.6,32z"/>
	<path class="st1" d="M48,40.6c-3.6,4.8-12.8,21.6-25.4,26.6c0,0-1.5,3.1,3.4,3.2C31,70.5,49.1,39.1,48,40.6z"/>
</g>
</svg>
