<?xml version="1.0" encoding="utf-8"?>
<!-- Generator: Adobe Illustrator 24.0.0, SVG Export Plug-In . SVG Version: 6.00 Build 0)  -->
<svg version="1.1" id="Layer_1" xmlns="http://www.w3.org/2000/svg" xmlns:xlink="http://www.w3.org/1999/xlink" x="0px" y="0px"
	 viewBox="0 0 227.3 258.8" style="enable-background:new 0 0 227.3 258.8;" xml:space="preserve">
<style type="text/css">
	.st0{opacity:0.5;fill:#FF5A8D;}
	.st1{fill:#FFFFFF;}
</style>
<path class="st0" d="M16.7,158.8l158.8,95.1c22.8,13.7,51.9-2.8,51.9-29.4V34.3c0-26.6-29-43.1-51.9-29.4L16.7,100
	C-5.6,113.3-5.6,145.5,16.7,158.8z"/>
<g>
	<path class="st1" d="M193,138h-57.3c-4.6,0-8.7-2.4-10.9-6.4c-2.3-4-2.2-8.7,0.2-12.6l28.7-47.9c2.3-3.8,6.3-6.1,10.8-6.1
		c4.5,0,8.5,2.3,10.8,6.1l28.7,47.9c2.4,3.9,2.4,8.7,0.2,12.6C201.6,135.6,197.5,138,193,138z M157.3,73.4l-28.7,47.9
		c-1.5,2.5-1.6,5.6-0.1,8.2c1.5,2.6,4.1,4.1,7.1,4.1H193c3,0,5.6-1.5,7.1-4.1c1.5-2.6,1.4-5.6-0.1-8.2l-28.7-47.9
		c-1.5-2.5-4.1-3.9-7-3.9C161.4,69.4,158.8,70.9,157.3,73.4L157.3,73.4z"/>
</g>
</svg>
