<?xml version="1.0" encoding="utf-8"?>
<!-- Generator: Adobe Illustrator 24.0.0, SVG Export Plug-In . SVG Version: 6.00 Build 0)  -->
<svg version="1.1" id="Layer_1" xmlns="http://www.w3.org/2000/svg" xmlns:xlink="http://www.w3.org/1999/xlink" x="0px" y="0px"
	 viewBox="0 0 357.82 107.93" style="enable-background:new 0 0 357.82 107.93;" xml:space="preserve">
<style type="text/css">
	.st0{opacity:0.75;}
	.st1{fill:#7055EE;}
	.st2{fill:#091019;}
</style>
<g id="Shape_1" class="st0">
	<g>
		<path class="st1" d="M88,0H54L0,54v36c5.85,8.35,13,4,13,4s79-73.31,81-82S88,0,88,0z"/>
	</g>
</g>
<g class="st0">
	<path class="st1" d="M93.7,95.95c-1.99-8.68-80.73-81.89-80.73-81.89S5.84,9.71,0.01,18.05V54l53.82,53.93h33.89
		C87.72,107.93,95.69,104.63,93.7,95.95z"/>
</g>
<g>
	<path class="st2" d="M177.08,80.97c0,1.88-0.72,3.52-2.16,4.93c-1.44,1.41-3.1,2.11-4.98,2.11c-2.15,0-4.06-0.87-5.73-2.61
		l-31.17-30.46v25.54c0,2.41-0.7,4.32-2.11,5.73c-1.41,1.41-3.32,2.11-5.73,2.11c-2.41,0-4.32-0.7-5.73-2.11
		c-1.41-1.41-2.11-3.32-2.11-5.73v-56.4c0-2.35,0.7-4.22,2.11-5.63c1.41-1.41,3.32-2.11,5.73-2.11c2.41,0,4.32,0.7,5.73,2.11
		s2.11,3.28,2.11,5.63V48.1l30.36-29.46c1.47-1.47,3.15-2.21,5.03-2.21c1.88,0,3.52,0.69,4.93,2.06c1.41,1.37,2.11,3,2.11,4.88
		c0,1.94-0.8,3.69-2.41,5.23l-23.93,22.42l25.64,24.93C176.31,77.49,177.08,79.16,177.08,80.97z"/>
	<path class="st2" d="M222.63,42.42c3.48,3.52,5.23,8.9,5.23,16.14v22.72c0,2.21-0.64,3.94-1.91,5.18
		c-1.27,1.24-3.05,1.86-5.33,1.86c-2.15,0-3.87-0.65-5.18-1.96c-1.31-1.31-1.96-3-1.96-5.08v-0.7c-1,2.48-2.68,4.42-5.03,5.83
		c-2.35,1.41-5.09,2.11-8.24,2.11c-3.35,0-6.38-0.67-9.1-2.01c-2.71-1.34-4.86-3.22-6.43-5.63c-1.58-2.41-2.36-5.09-2.36-8.04
		c0-3.62,0.92-6.47,2.76-8.55c1.84-2.08,4.81-3.58,8.9-4.52c4.09-0.94,9.68-1.41,16.79-1.41h2.61v-1.81c0-2.81-0.62-4.86-1.86-6.13
		c-1.24-1.27-3.3-1.91-6.18-1.91c-2.88,0-7.04,1.01-12.47,3.02c-1.54,0.74-2.85,1.11-3.92,1.11c-1.48,0-2.65-0.52-3.52-1.56
		c-0.87-1.04-1.31-2.4-1.31-4.07c0-1.34,0.3-2.45,0.91-3.32c0.6-0.87,1.57-1.67,2.92-2.41c2.35-1.27,5.21-2.28,8.6-3.02
		c3.38-0.74,6.72-1.11,10-1.11C213.78,37.14,219.14,38.9,222.63,42.42z M210.66,75.09c1.81-1.98,2.71-4.54,2.71-7.69v-1.71h-1.71
		c-5.43,0-9.23,0.44-11.41,1.31c-2.18,0.87-3.27,2.45-3.27,4.73c0,1.88,0.62,3.4,1.86,4.57c1.24,1.17,2.8,1.76,4.67,1.76
		C206.47,78.06,208.85,77.07,210.66,75.09z"/>
	<path class="st2" d="M273.45,38.7c1.17,1.04,1.76,2.6,1.76,4.68c0,2.21-0.54,3.85-1.61,4.93c-1.07,1.07-2.98,1.74-5.73,2.01
		l-3.02,0.3c-3.69,0.4-6.35,1.61-7.99,3.62c-1.64,2.01-2.46,4.59-2.46,7.74v19.2c0,2.35-0.72,4.12-2.16,5.33
		c-1.44,1.21-3.23,1.81-5.38,1.81c-2.21,0-4.04-0.6-5.48-1.81c-1.44-1.21-2.16-2.98-2.16-5.33v-36.9c0-2.21,0.74-3.92,2.21-5.13
		c1.47-1.21,3.25-1.81,5.33-1.81c2.01,0,3.68,0.59,5.03,1.76c1.34,1.17,2.01,2.8,2.01,4.88v2.71c1.21-2.88,3.03-5.09,5.48-6.64
		c2.45-1.54,5.11-2.41,7.99-2.61l1.41-0.1C270.68,37.2,272.27,37.66,273.45,38.7z"/>
	<path class="st2" d="M280.83,27.23c-1.54-1.37-2.31-3.23-2.31-5.58c0-2.35,0.77-4.19,2.31-5.53c1.54-1.34,3.65-2.01,6.33-2.01
		c2.61,0,4.71,0.69,6.28,2.06c1.57,1.37,2.36,3.2,2.36,5.48c0,2.35-0.77,4.21-2.31,5.58c-1.54,1.37-3.65,2.06-6.33,2.06
		S282.38,28.61,280.83,27.23z M281.69,86.5c-1.44-1.21-2.16-2.98-2.16-5.33v-36.7c0-2.35,0.74-4.12,2.21-5.33
		c1.47-1.21,3.28-1.81,5.43-1.81c2.14,0,3.94,0.6,5.38,1.81c1.44,1.21,2.16,2.98,2.16,5.33v36.7c0,2.35-0.72,4.12-2.16,5.33
		c-1.44,1.21-3.23,1.81-5.38,1.81C284.96,88.31,283.13,87.71,281.69,86.5z"/>
	<path class="st2" d="M355.23,80.97c0,1.88-0.69,3.55-2.06,5.03c-1.37,1.47-2.97,2.21-4.78,2.21c-1.74,0-3.35-0.7-4.83-2.11
		l-22.02-20.41v15.38c0,2.35-0.72,4.12-2.16,5.33c-1.44,1.21-3.23,1.81-5.38,1.81c-2.21,0-4.04-0.6-5.48-1.81
		c-1.44-1.21-2.16-2.98-2.16-5.33V23.46c0-2.35,0.72-4.12,2.16-5.33c1.44-1.21,3.27-1.81,5.48-1.81c2.14,0,3.94,0.6,5.38,1.81
		c1.44,1.21,2.16,2.98,2.16,5.33v35.99l20.11-19.81c1.47-1.47,3.12-2.21,4.93-2.21c1.88,0,3.52,0.69,4.93,2.06
		c1.41,1.37,2.11,3,2.11,4.88c0,1.74-0.77,3.39-2.31,4.93l-13.37,12.77l14.98,13.88C354.46,77.42,355.23,79.1,355.23,80.97z"/>
</g>
</svg>
