<?xml version="1.0" encoding="iso-8859-1"?>
<!-- Generator: Adobe Illustrator 18.1.1, SVG Export Plug-In . SVG Version: 6.00 Build 0)  -->
<svg version="1.1" id="Capa_1" xmlns="http://www.w3.org/2000/svg" xmlns:xlink="http://www.w3.org/1999/xlink" x="0px" y="0px"
	 viewBox="0 0 612 612" style="enable-background:new 0 0 612 612;" xml:space="preserve">
<g>
	<g>
		<path d="M268.619,396.135c-2.166-0.741-4.835-1.279-8.017-1.622c-3.182-0.343-7.087-0.508-11.72-0.508h-12.791v37.436
			c1.297,0.184,2.95,0.324,4.963,0.41c2.007,0.098,4.088,0.141,6.249,0.141c6.12,0,11.242-0.496,15.386-1.481
			c4.137-0.991,7.479-2.368,10.006-4.125c2.534-1.763,4.357-3.898,5.471-6.395c1.114-2.503,1.665-5.233,1.665-8.201
			c0-3.648-0.832-6.793-2.497-9.455C275.663,399.691,272.756,397.616,268.619,396.135z"/>
		<path d="M155.387,403.082c-3.274-3.764-7.173-6.579-11.677-8.433c-4.51-1.854-9.449-2.779-14.829-2.779
			c-5.373,0-10.318,0.924-14.823,2.779c-4.51,1.854-8.403,4.67-11.677,8.433c-3.274,3.77-5.838,8.482-7.693,14.137
			c-1.854,5.649-2.778,12.246-2.778,19.78c0,7.534,0.924,14.131,2.778,19.78c1.854,5.655,4.419,10.343,7.693,14.088
			c3.274,3.733,7.167,6.542,11.677,8.433c4.504,1.885,9.449,2.821,14.823,2.821c5.379,0,10.312-0.936,14.829-2.821
			c4.504-1.891,8.403-4.7,11.677-8.433c3.268-3.739,5.832-8.433,7.687-14.088c1.854-5.655,2.785-12.246,2.785-19.78
			c0-7.534-0.93-14.137-2.785-19.78C161.219,411.564,158.655,406.851,155.387,403.082z"/>
		<path d="M587.52,290.119H24.48c-13.519,0-24.48,10.961-24.48,24.48v244.8c0,13.519,10.961,24.48,24.48,24.48h563.04
			c13.519,0,24.48-10.961,24.48-24.48v-244.8C612,301.079,601.039,290.119,587.52,290.119z M185.265,462.99
			c-2.687,7.876-6.61,14.657-11.769,20.337c-5.165,5.685-11.493,10.098-18.996,13.25c-7.509,3.152-16.047,4.725-25.624,4.725
			s-18.115-1.579-25.624-4.725c-7.509-3.152-13.837-7.564-18.996-13.25s-9.076-12.46-11.769-20.337
			c-2.687-7.876-4.033-16.542-4.033-25.992c0-9.455,1.346-18.115,4.033-25.992c2.687-7.876,6.61-14.657,11.769-20.337
			c5.159-5.679,11.487-10.098,18.996-13.25c7.509-3.158,16.047-4.725,25.624-4.725c9.572,0,18.115,1.573,25.624,4.725
			c7.503,3.152,13.837,7.564,18.996,13.25c5.159,5.685,9.076,12.46,11.769,20.337c2.681,7.876,4.027,16.536,4.027,25.992
			C189.298,446.448,187.951,455.114,185.265,462.99z M299.568,428.431c-2.472,4.786-6.083,8.843-10.839,12.185
			c-4.755,3.335-10.569,5.9-17.424,7.687c-6.854,1.793-14.731,2.687-23.629,2.687c-2.038,0-4.045-0.031-6.016-0.098
			c-1.977-0.061-3.831-0.184-5.563-0.373v48.464h-22.699V375.003h35.765c5.998,0,11.23,0.269,15.704,0.789
			c4.48,0.526,8.482,1.316,12.001,2.368c8.464,2.595,14.982,6.732,19.553,12.411c4.566,5.685,6.854,12.913,6.854,21.683
			C303.277,418.253,302.034,423.645,299.568,428.431z M411.038,498.988h-83.673V375.003h80.337v19.003h-57.638v32.057h49.486v18.996
			h-49.486v34.933h60.974V498.988z M543.542,498.988h-23.819l-40.404-57.075c-7.099-9.884-14.449-21.347-22.057-34.382h-0.557
			c0.741,15.196,1.114,26.965,1.114,35.312v56.151h-22.687V375.003h23.813l40.771,57.638c8.898,12.662,16.126,23.905,21.683,33.733
			h0.557c-0.74-16.126-1.114-27.864-1.114-35.214v-56.157h22.705v123.985H543.542z"/>
		<circle cx="306" cy="80.141" r="52.02"/>
		<path d="M494.251,265.639h36.64L370.303,121.427c-4.461,6.909-9.963,13.072-16.347,18.225L494.251,265.639z"/>
		<path d="M258.044,139.652c-6.383-5.147-11.885-11.31-16.347-18.225L81.108,265.639h36.64L258.044,139.652z"/>
	</g>
</g>
<g>
</g>
<g>
</g>
<g>
</g>
<g>
</g>
<g>
</g>
<g>
</g>
<g>
</g>
<g>
</g>
<g>
</g>
<g>
</g>
<g>
</g>
<g>
</g>
<g>
</g>
<g>
</g>
<g>
</g>
</svg>
