<?xml version="1.0" encoding="iso-8859-1"?>
<!-- Generator: Adobe Illustrator 18.1.1, SVG Export Plug-In . SVG Version: 6.00 Build 0)  -->
<svg version="1.1" id="Capa_1" xmlns="http://www.w3.org/2000/svg" xmlns:xlink="http://www.w3.org/1999/xlink" x="0px" y="0px"
	 viewBox="0 0 612 612" style="enable-background:new 0 0 612 612;" xml:space="preserve">
<g>
	<g>
		<path d="M345.185,612h130.95c34.28,0,58.445-27.717,58.445-61.984V278.92H345.185L345.185,612L345.185,612z"/>
		<path d="M77.42,550.009c0,34.267,30.584,61.984,64.858,61.984h124.537V278.92H77.42V550.009z"/>
		<path d="M436.5,161.364c12.513-18.437,14.296-43.136,2.429-63.695c-10.684-18.495-30.604-29.99-51.979-29.99
			c-4.781,0-9.522,0.653-14.146,1.783c0.033-0.829,0.163-1.678,0.163-2.508C372.961,30.042,342.925,0,306,0
			s-66.961,30.042-66.961,66.961c0,0.829,0.137,1.672,0.17,2.508c-4.624-1.13-9.372-1.783-14.146-1.783
			c-21.382,0-41.301,11.494-51.986,29.99c-11.867,20.553-10.084,45.252,2.429,63.689H51.297v91.432h215.518v-65.309h78.37v65.309
			h215.518v-91.432H436.5z M359.135,108.517c1.195-1.737,2.56-3.37,4.056-4.852c2.188-2.162,4.441-3.905,6.877-5.316
			c5.146-2.972,10.985-4.539,16.876-4.539c12.082,0,23.328,6.492,29.363,16.928c9.333,16.164,3.775,36.899-12.383,46.232
			c-2.423,1.391-5.127,2.501-8.046,3.298c-2.044,0.555-4.128,0.927-6.204,1.091h-61.044L359.135,108.517z M306,26.123
			c22.518,0,40.837,18.319,40.837,40.837c0,3.357-0.47,6.851-1.398,10.391c-0.653,2.495-1.548,4.924-2.652,7.23l-36.782,63.715
			l-36.795-63.735c-1.097-2.292-1.992-4.715-2.645-7.21c-0.927-3.533-1.398-7.034-1.398-10.391
			C265.163,44.442,283.482,26.123,306,26.123z M195.7,110.737c6.028-10.443,17.281-16.935,29.363-16.935
			c5.891,0,11.729,1.574,16.863,4.532c2.449,1.417,4.702,3.161,6.884,5.316c1.509,1.489,2.874,3.122,4.069,4.859l30.506,52.841
			H222.34c-2.07-0.163-4.16-0.529-6.211-1.091c-2.913-0.797-5.617-1.907-8.026-3.292C191.926,147.637,186.368,126.901,195.7,110.737
			z"/>
	</g>
</g>
<g>
</g>
<g>
</g>
<g>
</g>
<g>
</g>
<g>
</g>
<g>
</g>
<g>
</g>
<g>
</g>
<g>
</g>
<g>
</g>
<g>
</g>
<g>
</g>
<g>
</g>
<g>
</g>
<g>
</g>
</svg>
