<?xml version="1.0" encoding="utf-8"?>
<!-- Generator: Adobe Illustrator 24.0.0, SVG Export Plug-In . SVG Version: 6.00 Build 0)  -->
<svg version="1.1" id="e8e2026c-b237-4860-9f0c-6cc1509a5719"
	 xmlns="http://www.w3.org/2000/svg" xmlns:xlink="http://www.w3.org/1999/xlink" x="0px" y="0px" viewBox="0 0 777 408"
	 style="enable-background:new 0 0 777 408;" xml:space="preserve">
<style type="text/css">
	.st0{fill:#F2F2F2;}
	.st1{fill:#FFFFFF;}
	.st2{fill:#CCCCCC;}
	.st3{fill:#F4263E;}
	.st4{fill:#366BD6;}
	.st5{fill:#FFB8B8;}
	.st6{fill:#2F2E41;}
	.st7{fill:#3F3D56;}
</style>
<path class="st0" d="M775.4,297.4c-4.1,25.9-16.7,51-37.5,66.9c-20.5,15.7-46.7,21.2-72,26c-30.4,5.7-60.8,11-91.4,15.7
	c-4.3,0.7-8.7,1.4-13,2H383.5c-0.2-0.2-0.4-0.5-0.5-0.7c-0.3-0.4-0.6-0.8-0.9-1.3c-0.2-0.2-0.3-0.5-0.5-0.7h111.6
	c6.6,0,11.9-5.3,12-11.9v-149c0.7-2.3,1.4-4.5,2-6.8c2.8-10.7,4.7-21.7,5.5-32.7c0.6-7.7,0.8-15.4,0.6-23.1
	c-0.4-21.2-3.1-42.4-6.1-63.4c-0.2-1.5-0.4-3.1-0.7-4.7c-2.1-14.6-4-30.5,3.3-43.3c8.4-14.7,27.1-20.8,44-19.3
	c30.3,2.7,55.8,25.9,69.1,53.3c13.3,27.4,16.2,58.5,17.4,88.9c0.6,16.1,0.6,33-1.7,49.1c7.6-17.4,15.2-34.8,22.8-52.1
	c4.1-9.3,8.3-18.8,15.9-25.6c15.7-14.2,41.7-11.3,58.5,1.6c16.8,12.9,26,33.4,32.1,53.6C775.6,244.9,779.4,271.5,775.4,297.4z"/>
<path class="st1" d="M708.3,156.9c11,19.5,16,41.8,15.9,64.1c-0.2,22.1-5.1,43.9-14.3,63.9c-8.4,18.1-20.1,34.5-34.5,48.3
	c-14.2,13.8-31.1,24.6-49.5,31.6c-21.4,8-44.6,10.2-67.2,6.4c-3.1-0.5-6.2-1.2-9.3-2c-1.9-0.5-2.7,2.4-0.8,2.9
	c23.5,5.8,48.1,5.1,71.2-2c19.3-6.2,37-16.3,52.2-29.7c15.4-13.4,28-29.6,37.4-47.7c10.3-19.8,16.3-41.6,17.6-63.9
	c1.3-22.6-2.5-45.6-12.3-66.1c-1.2-2.5-2.5-4.9-3.8-7.3c-0.4-0.7-1.4-0.9-2.1-0.5C708.2,155.3,707.9,156.2,708.3,156.9L708.3,156.9z
	"/>
<path class="st1" d="M549.1,50.6c12.2,22.5,21.7,46.3,28.3,71c13.2,49.5,15.2,101.2,5.8,151.6c-4.7,25.1-12.3,49.6-22.8,73
	c-10.4,23.1-25.4,47.5-51,55.6c-2.9,0.9-5.9,1.6-8.9,2c-1.9,0.3-1.1,3.2,0.8,2.9c26.5-3.6,44.9-25.7,56.5-48.1
	c12-23.2,20.5-48.4,26.1-73.9c11.2-50.8,10.8-103.5-1.2-154.1c-6-25.2-14.9-49.7-26.5-72.8c-1.5-2.9-3-5.8-4.5-8.6
	C550.8,47.4,548.2,48.9,549.1,50.6z"/>
<path class="st2" d="M423.6,46.3H244c-7.6,0-13.7,6.2-13.8,13.8v90h27.6c4.1,0,7.9,2.1,10.1,5.6l9.6,15.3l9.2,14.6l1.7,2.7
	l10.5,16.7l0.1,0.2h138.3V60C437.4,52.4,431.2,46.3,423.6,46.3z"/>
<path class="st1" d="M352.5,73.8h-89c-4.9,0-8.9,4-8.9,8.9c0,4.9,4,8.9,8.9,8.9h89c4.9,0,8.9-4,8.9-8.9
	C361.3,77.8,357.4,73.8,352.5,73.8z"/>
<path class="st1" d="M401.8,117.4H264.3c-5.4,0-9.7,4.3-9.7,9.7c0,5.4,4.3,9.7,9.7,9.7h137.5c5.4,0,9.7-4.3,9.7-9.7
	C411.5,121.8,407.2,117.4,401.8,117.4z"/>
<path class="st1" d="M410.6,157c-1.6-3.4-5-5.6-8.8-5.6H264.3c-0.2,0-0.4,0-0.6,0c1.8,1,3.3,2.4,4.4,4.1l9.6,15.3h124.2
	c5.4,0,9.7-4.3,9.7-9.7C411.5,159.7,411.2,158.3,410.6,157z"/>
<path class="st1" d="M411.4,193.8c-0.7-4.8-4.8-8.4-9.6-8.4h-115l1.7,2.7l10.5,16.7h102.8c2,0,4-0.6,5.6-1.8
	c2.6-1.8,4.1-4.8,4.1-7.9C411.5,194.7,411.5,194.2,411.4,193.8z"/>
<path class="st3" d="M521.2,123.8l-14-5.5L437.4,91l-83.5-32.6c-7.1-2.7-15,0.8-17.8,7.8l-2.9,7.5l-6.9,17.8l-10.1,25.9l-7.6,19.4
	l-5.7,14.6l-7.6,19.4l-5.7,14.6l-0.2,0.4l-0.9,2.3l10.5,16.7l0.1,0.2h194.1c3.6,0,7,1.6,9.3,4.4l0.8-2.1l10-25.7l15.7-40.1
	C531.8,134.5,528.3,126.5,521.2,123.8z"/>
<path class="st1" d="M444.9,123.5l-7.5-2.9L362,91.1c-4.6-1.8-9.7,0.5-11.5,5c-1.8,4.6,0.5,9.7,5.1,11.5l24.9,9.7l30.8,12l26.2,10.2
	l1,0.4c4.6,1.8,9.7-0.5,11.5-5.1C451.7,130.4,449.4,125.3,444.9,123.5z"/>
<path class="st1" d="M475,182.1l-37.6-14.7L410.6,157l-14.3-5.6L359,136.9l-12.1-4.7c-4.7-1.8-10,0.2-12.2,4.7
	c-0.1,0.3-0.2,0.5-0.3,0.8c-1.9,5,0.5,10.6,5.5,12.6c0,0,0,0,0,0l3.1,1.2l49.7,19.4l44.8,17.5l30.5,11.9c1.1,0.4,2.3,0.7,3.5,0.7
	c5.4,0,9.7-4.3,9.7-9.7C481.1,187.2,478.7,183.6,475,182.1L475,182.1z"/>
<path class="st1" d="M437.4,203.9L435,203l-23.6-9.2l-21.5-8.4l-37.3-14.6l-18.1-7c-5-2-10.6,0.5-12.6,5.5c-2,5,0.5,10.6,5.5,12.6
	c0,0,0,0,0,0l9,3.5l45.1,17.6l4.6,1.8l0.5,0.2h53.4L437.4,203.9z"/>
<path class="st1" d="M346.2,204.8l-4.6-1.8l-19.4-7.6c-5-2-10.6,0.5-12.6,5.5c-0.3,0.7-0.4,1.4-0.6,2.1c-0.1,0.6-0.1,1.2-0.1,1.8
	c0,0.1,0,0.1,0,0.2h37.7L346.2,204.8z"/>
<path class="st4" d="M386.2,204.8l-4.6-1.8H309c-0.1,0.6-0.1,1.2-0.1,1.8H299l0.1,0.2h87.6L386.2,204.8z M386.2,204.8H299l0.1,0.2
	h87.6L386.2,204.8z M386.2,204.8H299l0.1,0.2h87.6L386.2,204.8z M386.7,205l-0.5-0.2H299l0.1,0.2H386.7z M211.7,405.3
	c-6.6,0-11.9-5.3-11.9-11.9V161.9c0-6.6,5.3-11.9,11.9-12h18.6v-2h-18.6c-7.7,0-13.9,6.3-13.9,14v231.4c0,5.5,3.2,10.4,8.2,12.7
	h176.2c-0.2-0.2-0.3-0.5-0.5-0.7H211.7z M503.3,207.4c-2.6-2.8-6.3-4.4-10.1-4.4h-193l-10.8-17.2l-0.3-0.4l-9.2-14.6l-10.3-16.3
	c-2.6-4.1-7-6.5-11.8-6.5h-46.3c-7.7,0-13.9,6.3-13.9,14v231.4c0,5.5,3.2,10.4,8.2,12.7c1.8,0.8,3.8,1.3,5.8,1.3h281.5
	c2,0,4-0.4,5.8-1.3c5-2.3,8.2-7.2,8.2-12.7V217C507.2,213.4,505.8,210,503.3,207.4L503.3,207.4z M505.2,393.3
	c0,6.6-5.4,11.9-12,11.9H211.7c-6.6,0-11.9-5.3-11.9-11.9V161.9c0-6.6,5.3-11.9,11.9-12h46.3c4.1,0,7.9,2.1,10.1,5.6l9.6,15.3
	l9.2,14.6l1.7,2.7l10.5,16.7l0.1,0.2h194.1c6.6,0,11.9,5.4,12,12V393.3z M386.2,204.8H299l0.1,0.2h87.6L386.2,204.8z M386.2,204.8
	H299l0.1,0.2h87.6L386.2,204.8z M386.2,204.8H299l0.1,0.2h87.6L386.2,204.8z M386.2,204.8l-4.6-1.8h-81.4l-10.8-17.2l-0.9,2.3
	l10.5,16.7l0.1,0.2h87.6L386.2,204.8z"/>
<polygon class="st5" points="156.9,287.8 151.2,299.7 102.3,283.4 110.7,265.7 "/>
<path class="st6" d="M143.2,307.8l11.6-24.2l0,0l14.5,7l0,0l-18,37.6l0,0l-1.1-0.5C142.7,324.1,139.6,315.2,143.2,307.8z"/>
<polygon class="st5" points="168.5,394.7 155.2,394.3 154.6,342.6 170.2,343.5 "/>
<path class="st6" d="M144.6,390.1l26.8,0.9l0,0l-0.5,16.1l0,0l-41.7-1.4l0,0l0-1.2C129.5,396.3,136.4,389.8,144.6,390.1z"/>
<path class="st4" d="M189.8,178.6c0,0-40.6-10.3-59,4.9l-10.3,29.8l-41.1,58.5l59.6,35.7l10.8-27.1l-26-13l31.4-27.1l-5.4,142.9
	l20.6,3.2C170.3,386.5,215.8,210,189.8,178.6z"/>
<path class="st3" d="M128.2,187.9l0.5-0.9c5.2-9.3,4.4-24.4,2.7-35.4c-1.4-9.2-1.3-25.5-1-37.6c0.1-8.4,6.1-15.5,14.3-17.2
	c12.4-2.6,27.5-3.1,35.5-3.2l0,0.5l0-0.5c4.5,0,8.2,3.6,8.3,8c0.2,13,0.2,36.6-3.1,49.3c-4.8,18.8,2.7,31.6,2.8,31.7l0.5,0.8
	L128.2,187.9z"/>
<path class="st5" d="M107.3,239.8c5-2.4,7.1-8.4,4.7-13.4c-0.3-0.5-0.6-1-0.9-1.5l22.9-98.8h-17.3l-20.2,96.9
	c-4.3,3.5-4.9,9.9-1.4,14.2C98.1,240.7,103.1,241.8,107.3,239.8z"/>
<path class="st5" d="M246.7,142.5l-38.2-36.2l-10.3,14.5l25.8,22.7L190,170.4c-0.2,0-0.5,0-0.7,0c-6,0-10.9,4.8-10.9,10.8
	c0,6,4.8,10.9,10.8,10.9c5.4,0,10-4,10.8-9.4l0.1,0.1L246.7,142.5z"/>
<path class="st3" d="M142.2,98c0,0-23.9-3.9-26,14.5s-3.2,18.4-3.2,18.4s17.3-3.2,21.7,1.1S142.2,98,142.2,98z"/>
<path class="st3" d="M177.9,95.2c0,0,19.5-3.2,28.2,5.4s13,10.8,13,10.8s-19.5,10.8-11.9,20.6c0,0-20.6-9.7-23.8-6.5
	S177.9,95.2,177.9,95.2z"/>
<path class="st6" d="M160.8,32.3c-6.1-4.9-7.8-14.4-4.2-21.4S168.3-0.3,176.1,0s15.3,4.8,19.8,11.2c6.4,9,7.7,21.5,16.2,28.6
	c7.7,6.4,18.7,6.2,28.7,5.7c3.4-0.2,6.8-0.4,9.8-1.9s5.5-4.6,5.1-8c2.5,4,1.1,9.5-2.3,12.8s-8.1,4.6-12.8,5.2
	c-16.7,1.8-33.1-5.4-43.2-18.9c-3.5-4.8-6.1-10.4-10.9-13.9s-12.7-3.7-15.6,1.4c-1.4,2.5-1.3,5.7-2.6,8.3s-5.6,4-6.9,1.4"/>
<circle class="st6" cx="159.9" cy="54.6" r="30"/>
<circle class="st5" cx="159.7" cy="62.3" r="24.6"/>
<path class="st6" d="M137.3,44.3c3.3,0.7,2.2,6.3,4.9,8.5c2.4,2,5.8-0.1,8.8-0.8c3.8-0.9,7.7,0.4,11.2,2.1s6.9,3.9,10.7,4.7
	s8.3-0.1,10.5-3.4c2-3.1,1.3-7.3-0.3-10.7c-5.9-12.4-20.6-17.6-33-11.7c-4.9,2.3-9,6.3-11.4,11.1"/>
<path class="st7" d="M716,407c0,0.6-0.4,1-1,1H1c-0.6,0-1-0.4-1-1s0.4-1,1-1h714C715.6,406,716,406.4,716,407z"/>
</svg>
