<?xml version="1.0" standalone="no"?>
<!DOCTYPE svg PUBLIC "-//W3C//DTD SVG 20010904//EN"
 "http://www.w3.org/TR/2001/REC-SVG-20010904/DTD/svg10.dtd">
<svg version="1.0" xmlns="http://www.w3.org/2000/svg"
 width="512.000000pt" height="512.000000pt" viewBox="0 0 512.000000 512.000000"
 preserveAspectRatio="xMidYMid meet">

<g transform="translate(0.000000,512.000000) scale(0.100000,-0.100000)"
fill="#000000" stroke="none">
<path d="M1734 5110 c-28 -11 -54 -48 -54 -78 0 -33 266 -652 292 -679 21 -23
68 -30 103 -17 18 7 45 55 45 79 0 9 -64 165 -141 346 -122 284 -146 332 -170
344 -31 17 -44 18 -75 5z"/>
<path d="M2345 5018 c-44 -24 -45 -28 -45 -339 0 -296 0 -298 23 -324 17 -21
32 -27 62 -27 30 0 45 6 62 27 23 26 23 28 23 323 -1 312 -1 316 -47 340 -27
15 -52 15 -78 0z"/>
<path d="M4357 4828 c-33 -30 -297 -475 -297 -500 0 -24 18 -59 39 -75 23 -18
82 -16 104 4 10 10 81 122 158 249 100 167 139 241 139 264 0 70 -90 106 -143
58z"/>
<path d="M1303 4763 c-32 -6 -63 -50 -63 -88 0 -26 32 -71 184 -262 101 -127
194 -238 207 -247 71 -49 164 28 126 104 -15 28 -357 460 -380 478 -17 14 -48
20 -74 15z"/>
<path d="M5010 4762 c-31 -5 -562 -530 -585 -578 -9 -20 -13 -44 -9 -59 8 -34
50 -65 88 -65 27 0 66 35 323 293 254 254 293 296 293 322 0 57 -50 96 -110
87z"/>
<path d="M4809 3960 c-167 -85 -198 -104 -209 -130 -24 -58 16 -120 77 -120
42 0 405 180 427 212 9 12 16 35 16 51 0 38 -49 87 -87 87 -15 -1 -116 -46
-224 -100z"/>
<path d="M3800 3736 c-62 -13 -148 -57 -180 -91 l-21 -23 -51 34 c-109 73
-240 83 -361 27 -47 -23 -92 -57 -171 -133 -58 -57 -108 -101 -109 -99 -2 2
-14 28 -27 58 -33 72 -101 140 -175 177 -54 26 -70 29 -155 29 -160 0 -155 4
-572 -412 -223 -223 -359 -351 -361 -342 -30 102 -41 131 -66 170 -70 111
-152 162 -261 163 -119 1 -122 -2 -546 -427 -237 -238 -406 -416 -448 -472
-74 -100 -181 -308 -221 -429 -55 -170 -69 -266 -69 -471 0 -156 4 -208 22
-291 130 -608 567 -1048 1165 -1176 126 -26 407 -31 527 -9 47 9 157 14 295
15 243 2 297 10 485 72 115 38 249 105 359 179 113 76 249 206 872 831 678
682 644 638 644 814 0 95 -3 110 -28 160 -39 76 -108 143 -179 175 l-59 27
101 104 c134 138 155 181 155 319 0 90 -3 106 -29 159 -38 77 -102 141 -176
174 l-59 27 43 52 c85 102 115 231 81 349 -41 142 -144 236 -290 263 -68 13
-64 13 -135 -3z m180 -200 c72 -47 101 -157 65 -243 -9 -20 -78 -99 -164 -186
l-148 -150 -35 26 c-19 15 -55 36 -82 47 l-47 21 37 41 c78 87 123 244 96 340
-9 34 -8 38 27 72 75 73 171 85 251 32z m-575 -1 c31 -7 91 -59 111 -96 18
-37 18 -120 -1 -167 -11 -26 -231 -252 -733 -754 -711 -712 -717 -718 -717
-758 0 -54 31 -85 85 -85 40 0 47 7 628 587 407 407 598 592 624 603 125 51
259 -33 261 -164 1 -102 17 -83 -614 -716 -621 -623 -609 -609 -579 -666 16
-28 65 -51 97 -43 19 5 160 138 428 404 338 336 406 400 440 409 53 14 63 14
118 -5 92 -31 139 -122 117 -224 l-12 -55 -646 -648 c-399 -400 -679 -673
-731 -712 -630 -476 -1531 -294 -1929 390 -124 213 -179 447 -169 714 8 210
44 355 132 536 82 169 145 245 535 638 201 203 377 375 392 383 66 34 121 5
167 -88 25 -48 31 -74 31 -123 0 -128 2 -125 -366 -496 -319 -320 -334 -337
-334 -373 0 -51 35 -86 87 -86 37 0 60 23 828 789 440 441 802 795 818 800 46
18 124 13 167 -9 82 -42 124 -163 85 -241 -9 -19 -248 -266 -530 -549 -283
-283 -519 -528 -524 -543 -13 -34 7 -90 37 -106 59 -31 34 -54 797 708 396
395 731 725 745 732 14 7 39 16 55 19 29 7 45 6 100 -5z m650 -636 c56 -16 92
-44 117 -92 25 -51 28 -129 4 -178 -9 -19 -110 -128 -224 -242 l-208 -208 -60
36 c-32 20 -69 38 -82 42 -20 5 -14 14 72 103 66 70 104 118 127 166 32 65 34
75 35 177 l0 108 35 35 c33 33 94 63 129 64 8 0 33 -5 55 -11z m52 -800 c93
-45 127 -174 71 -269 -35 -60 -1282 -1301 -1373 -1367 -138 -100 -264 -163
-419 -208 -49 -14 -91 -24 -92 -22 -2 2 29 25 69 52 52 35 258 234 748 724
783 782 734 721 735 908 0 105 2 115 25 139 60 64 156 82 236 43z"/>
</g>
</svg>
