<?xml version="1.0" encoding="utf-8"?>
<!-- Generator: Adobe Illustrator 24.0.0, SVG Export Plug-In . SVG Version: 6.00 Build 0)  -->
<svg version="1.1" id="Layer_1" xmlns="http://www.w3.org/2000/svg" xmlns:xlink="http://www.w3.org/1999/xlink" x="0px" y="0px"
	 viewBox="0 0 391 320.6" style="enable-background:new 0 0 391 320.6;" xml:space="preserve">
<style type="text/css">
	.st0{opacity:0.5;fill:#57B7FF;}
	.st1{fill:#6F6CEF;}
</style>
<path class="st0" d="M141.1,23.5L6.9,247.5c-19.3,32.2,3.9,73.2,41.5,73.2h268.2c37.6,0,60.8-41,41.5-73.2L224,23.5
	C205.3-7.8,159.8-7.8,141.1,23.5z"/>
<g>
	<path class="st1" d="M293.5,292.7c-53.8,0-97.6-43.8-97.6-97.6s43.8-97.6,97.6-97.6c53.8,0,97.6,43.8,97.6,97.6
		S347.3,292.7,293.5,292.7z M293.5,109.1c-47.5,0-86.1,38.6-86.1,86.1c0,47.5,38.6,86.1,86.1,86.1s86.1-38.6,86.1-86.1
		C379.6,147.7,340.9,109.1,293.5,109.1z"/>
</g>
</svg>
