<?xml version="1.0" encoding="utf-8"?>
<!-- Generator: Adobe Illustrator 24.0.0, SVG Export Plug-In . SVG Version: 6.00 Build 0)  -->
<svg version="1.1" id="Layer_1" xmlns="http://www.w3.org/2000/svg" xmlns:xlink="http://www.w3.org/1999/xlink" x="0px" y="0px"
	 viewBox="0 0 357.8 107.9" style="enable-background:new 0 0 357.8 107.9;" xml:space="preserve">
<style type="text/css">
	.st0{opacity:0.75;}
	.st1{fill:#7055EE;}
	.st2{fill:#FFFFFF;}
</style>
<g id="Shape_1" class="st0">
	<g>
		<path class="st1" d="M88,0H54L0,54v36c5.8,8.3,13,4,13,4s79-73.3,81-82S88,0,88,0z"/>
	</g>
</g>
<g class="st0">
	<path class="st1" d="M93.7,95.9C91.7,87.3,13,14.1,13,14.1S5.8,9.7,0,18v36l53.8,53.9h33.9C87.7,107.9,95.7,104.6,93.7,95.9z"/>
</g>
<g>
	<path class="st2" d="M177.1,81c0,1.9-0.7,3.5-2.2,4.9s-3.1,2.1-5,2.1c-2.1,0-4.1-0.9-5.7-2.6L133,54.9v25.5c0,2.4-0.7,4.3-2.1,5.7
		s-3.3,2.1-5.7,2.1s-4.3-0.7-5.7-2.1s-2.1-3.3-2.1-5.7V24.1c0-2.4,0.7-4.2,2.1-5.6c1.4-1.4,3.3-2.1,5.7-2.1s4.3,0.7,5.7,2.1
		s2.1,3.3,2.1,5.6v24l30.4-29.5c1.5-1.5,3.1-2.2,5-2.2s3.5,0.7,4.9,2.1c1.4,1.4,2.1,3,2.1,4.9c0,1.9-0.8,3.7-2.4,5.2L149.1,51
		l25.6,24.9C176.3,77.5,177.1,79.2,177.1,81z"/>
	<path class="st2" d="M222.6,42.4c3.5,3.5,5.2,8.9,5.2,16.1v22.7c0,2.2-0.6,3.9-1.9,5.2s-3.1,1.9-5.3,1.9c-2.1,0-3.9-0.7-5.2-2
		s-2-3-2-5.1v-0.7c-1,2.5-2.7,4.4-5,5.8s-5.1,2.1-8.2,2.1c-3.4,0-6.4-0.7-9.1-2c-2.7-1.3-4.9-3.2-6.4-5.6c-1.6-2.4-2.4-5.1-2.4-8
		c0-3.6,0.9-6.5,2.8-8.6s4.8-3.6,8.9-4.5s9.7-1.4,16.8-1.4h2.6v-1.8c0-2.8-0.6-4.9-1.9-6.1s-3.3-1.9-6.2-1.9c-2.9,0-7,1-12.5,3
		c-1.5,0.7-2.9,1.1-3.9,1.1c-1.5,0-2.6-0.5-3.5-1.6c-0.9-1-1.3-2.4-1.3-4.1c0-1.3,0.3-2.5,0.9-3.3c0.6-0.9,1.6-1.7,2.9-2.4
		c2.4-1.3,5.2-2.3,8.6-3c3.4-0.7,6.7-1.1,10-1.1C213.8,37.1,219.1,38.9,222.6,42.4z M210.7,75.1c1.8-2,2.7-4.5,2.7-7.7v-1.7h-1.7
		c-5.4,0-9.2,0.4-11.4,1.3c-2.2,0.9-3.3,2.4-3.3,4.7c0,1.9,0.6,3.4,1.9,4.6s2.8,1.8,4.7,1.8C206.5,78.1,208.9,77.1,210.7,75.1z"/>
	<path class="st2" d="M273.5,38.7c1.2,1,1.8,2.6,1.8,4.7c0,2.2-0.5,3.8-1.6,4.9c-1.1,1.1-3,1.7-5.7,2l-3,0.3c-3.7,0.4-6.4,1.6-8,3.6
		c-1.6,2-2.5,4.6-2.5,7.7v19.2c0,2.3-0.7,4.1-2.2,5.3s-3.2,1.8-5.4,1.8c-2.2,0-4-0.6-5.5-1.8s-2.2-3-2.2-5.3V44.3
		c0-2.2,0.7-3.9,2.2-5.1c1.5-1.2,3.3-1.8,5.3-1.8c2,0,3.7,0.6,5,1.8c1.3,1.2,2,2.8,2,4.9v2.7c1.2-2.9,3-5.1,5.5-6.6
		c2.5-1.5,5.1-2.4,8-2.6l1.4-0.1C270.7,37.2,272.3,37.7,273.5,38.7z"/>
	<path class="st2" d="M280.8,27.2c-1.5-1.4-2.3-3.2-2.3-5.6s0.8-4.2,2.3-5.5s3.6-2,6.3-2c2.6,0,4.7,0.7,6.3,2.1s2.4,3.2,2.4,5.5
		c0,2.4-0.8,4.2-2.3,5.6s-3.6,2.1-6.3,2.1S282.4,28.6,280.8,27.2z M281.7,86.5c-1.4-1.2-2.2-3-2.2-5.3V44.5c0-2.3,0.7-4.1,2.2-5.3
		s3.3-1.8,5.4-1.8c2.1,0,3.9,0.6,5.4,1.8c1.4,1.2,2.2,3,2.2,5.3v36.7c0,2.3-0.7,4.1-2.2,5.3s-3.2,1.8-5.4,1.8
		C285,88.3,283.1,87.7,281.7,86.5z"/>
	<path class="st2" d="M355.2,81c0,1.9-0.7,3.6-2.1,5c-1.4,1.5-3,2.2-4.8,2.2c-1.7,0-3.4-0.7-4.8-2.1l-22-20.4v15.4
		c0,2.3-0.7,4.1-2.2,5.3s-3.2,1.8-5.4,1.8c-2.2,0-4-0.6-5.5-1.8s-2.2-3-2.2-5.3V23.5c0-2.4,0.7-4.1,2.2-5.3s3.3-1.8,5.5-1.8
		c2.1,0,3.9,0.6,5.4,1.8c1.4,1.2,2.2,3,2.2,5.3v36l20.1-19.8c1.5-1.5,3.1-2.2,4.9-2.2c1.9,0,3.5,0.7,4.9,2.1c1.4,1.4,2.1,3,2.1,4.9
		c0,1.7-0.8,3.4-2.3,4.9l-13.4,12.8l15,13.9C354.5,77.4,355.2,79.1,355.2,81z"/>
</g>
</svg>
